<ttFont>
          <CharString index="0">
            rmoveto
            207 107 170 189 40 hvcurveto
            75 356 -72 callsubr
            -75 -356 rlineto
            -160 -34 -87 -166 -193 hhcurveto
            -142 -47 90 115 38 6 42 9 41 hvcurveto
            75 356 -72 callsubr
            -76 -356 rlineto
            -9 -43 -5 -43 -41 vvcurveto
            -128 54 -104 163 vhcurveto
            return
          </CharString>
          <CharString index="1">
            68 -25 -57 58 -90 hhcurveto
            -150 -140 -157 -162 -114 70 -105 115 hvcurveto
            10 32 rmoveto
            -93 -67 88 102 135 117 149 134 87 67 -68 -77 11 hvcurveto
            -50 callsubr
            -80 -24 -115 -70 -79 hhcurveto
            return
          </CharString>
          <CharString index="2">
            rmoveto
            88 93 53 85 61 hvcurveto
            -18 -85 0 -6 -6 vvcurveto
            -16 7 -11 16 -3 vhcurveto
            hintmask 01111000
            -48 callgsubr
            8 32 rlineto
            -10 -5 5 10 2 3 13 3 13 hvcurveto
            94 445 rlineto
            -34 -38 callgsubr
            hintmask 10111000
            -99 -50 -99 -69 -89 hhcurveto
            -67 -33 37 77 26 4 31 8 35 hvcurveto
            62 -43 callsubr
            -63 -296 rlineto
            -8 -36 -4 -32 -28 vvcurveto
            -91 41 -47 80 vhcurveto
            return
          </CharString>
          <CharString index="3">
            rmoveto
            -24 -17 23 27 3 1 5 1 4 hvcurveto
            -26 hlineto
            -1 -6 -1 -5 -6 vvcurveto
            -38 26 -29 37 41 44 38 46 10 vhcurveto
            -24 hlineto
            -34 -11 -30 -28 -26 hhcurveto
            endchar
          </CharString>
          <CharString index="4">
            rmoveto
            25 hlineto
            32 7 25 30 35 hhcurveto
            27 14 -17 -30 -5 -1 -5 -1 -5 hvcurveto
            25 hlineto
            1 6 0 5 6 vvcurveto
            35 -21 32 -41 -47 -39 -40 -44 -9 vhcurveto
            return
          </CharString>
          <CharString index="5">
            rmoveto
            167 115 79 138 98 -81 33 -123 28 hvcurveto
            -119 27 -57 24 74 vvcurveto
            105 70 82 171 80 52 -21 -57 37 vhcurveto
            24 26 rlineto
            58 -41 -60 26 -87 hhcurveto
            -164 -119 -86 -143 -89 71 -30 122 -27 hvcurveto
            124 -28 63 -32 -77 vvcurveto
            -116 -93 -62 -144 -103 -74 35 68 -48 vhcurveto
            -25 -25 rlineto
            -73 57 78 -35 107 hhcurveto
            return
          </CharString>
          <CharString index="6">
            rmoveto
            127 94 72 102 70 -63 21 -101 27 hvcurveto
            -77 20 -39 13 48 vvcurveto
            93 81 43 88 61 55 -22 -40 19 vhcurveto
            25 17 rlineto
            43 -18 -54 31 -78 hhcurveto
            -110 -103 -58 -116 -62 48 -17 89 -23 hvcurveto
            91 -24 51 -18 -55 vvcurveto
            -82 -78 -54 -102 -69 -49 25 51 -42 vhcurveto
            -23 -23 rlineto
            -55 38 63 -27 76 hhcurveto
            return
          </CharString>
          <CharString index="7">
            33 vstem
            -103 callgsubr
            return
          </CharString>
          <CharString index="8">
            58 274 rlineto
            234 hlineto
            108 -274 rlineto
            40 hlineto
            -109 278 rlineto
            117 12 98 121 120 vvcurveto
            91 -56 88 -96 vhcurveto
            -278 hlineto
            -151 -710 rlineto
            100 306 rmoveto
            79 372 rlineto
            242 hlineto
            75 50 -71 -81 -103 -88 -117 -109 hvcurveto
            return
          </CharString>
          <CharString index="9">
            rmoveto
            94 63 68 -63 25 15 -74 77 -7 callsubr
            -106 -77 rlineto
            return
          </CharString>
          <CharString index="10">
            3 4 1 3 -8 callsubr
            8 4 1 5 1 3 hvcurveto
            99 463 rlineto
            -35 hlineto
            -25 -118 rlineto
            return
          </CharString>
          <CharString index="11">
            -89 -91 -84 -40 -85 hhcurveto
            -135 -88 122 144 182 158 206 193 101 71 -40 -97 28 hvcurveto
            33 15 rlineto
            90 -24 -64 65 -137 hhcurveto
            -206 -187 -215 -208 -151 90 -146 159 88 87 40 81 84 hvcurveto
            return
          </CharString>
          <CharString index="12">
            hstem
            29 35 395 -100 callsubr
            return
          </CharString>
          <CharString index="13">
            rmoveto
            104 131 58 107 68 hvcurveto
            -28 12 rlineto
            -100 -71 -108 -44 -85 hhcurveto
            -135 -86 122 145 178 151 209 207 82 82 -35 -101 28 hvcurveto
            33 14 rlineto
            90 -22 -73 65 -120 hhcurveto
            -232 -170 -227 -194 -153 89 -146 155 hvcurveto
            return
          </CharString>
          <CharString index="14">
            rmoveto
            64 81 59 82 18 hvcurveto
            117 552 -72 callsubr
            -117 -553 rlineto
            -61 -13 -62 -47 -50 hhcurveto
            -25 -28 5 20 -17 hvcurveto
            -25 -22 rlineto
            -26 20 33 -9 38 hhcurveto
            273 819 rmoveto
            34 hlineto
            18 84 -72 callsubr
            return
          </CharString>
          <CharString index="15">
            -6 28 rlineto
            -3 -5 -38 -22 -41 hhcurveto
            -29 -24 17 32 8 2 12 7 31 hvcurveto
            78 363 rlineto
            117 hlineto
            7 30 rlineto
            -117 hlineto
            38 179 -72 callsubr
            -38 -179 -34 callgsubr
            -87 -409 rlineto
            -1 -7 -1 -7 -6 vvcurveto
            return
          </CharString>
          <CharString index="16">
            399 hlineto
            7 29 rlineto
            -359 hlineto
            459 463 6 28 rlineto
            -396 hlineto
            -6 -29 rlineto
            356 hlineto
            -460 -463 rlineto
            return
          </CharString>
          <CharString index="17">
            -176 rmoveto
            29 62 14 64 rlineto
            -36 hlineto
            -14 -64 rlineto
            12 hlineto
            -25 -62 rlineto
            return
          </CharString>
          <CharString index="18">
            14 callgsubr
            107 78 -19 14 -94 -63 -68 63 -25 -14 rlineto
            return
          </CharString>
          <CharString index="19">
            rmoveto
            72 24 64 10 2 hvcurveto
            -25 hlineto
            -4 -1 -14 -44 -51 hhcurveto
            return
          </CharString>
          <CharString index="20">
            rmoveto
            79 367 rlineto
            -28 hlineto
            -3 -1 -61 -51 -40 hhcurveto
            -6 -27 rlineto
            31 54 31 17 17 hvcurveto
            -71 -334 rlineto
            -78 hlineto
            -6 -27 rlineto
            178 hlineto
            6 27 rlineto
            return
          </CharString>
          <CharString index="21">
            535 hlineto
            7 32 rlineto
            -492 hlineto
            632 648 7 30 rlineto
            -532 hlineto
            -7 -32 rlineto
            490 hlineto
            -634 -648 rlineto
            return
          </CharString>
          <CharString index="22">
            -60 callgsubr
            1 -5 -2 0 -3 hhcurveto
            -72 -81 -50 -82 -55 hvcurveto
            27 132 rlineto
            -32 hlineto
            return
          </CharString>
          <CharString index="23">
            214 -10 rmoveto
            77 84 47 69 55 hvcurveto
            -12 -61 -2 -6 -8 vvcurveto
            return
          </CharString>
          <CharString index="24">
            213 hmoveto
            34 hlineto
            58 272 363 438 rlineto
            -38 hlineto
            -334 -403 -162 403 rlineto
            -39 hlineto
            176 -436 rlineto
            return
          </CharString>
          <CharString index="25">
            rmoveto
            17 83 rlineto
            -32 hlineto
            -17 -83 rlineto
            return
          </CharString>
          <CharString index="26">
            rmoveto
            -38 -38 -12 -24 -30 hvcurveto
            67 153 rlineto
            183 hlineto
            6 26 rlineto
            -204 hlineto
            -5 -15 -73 -163 -15 -37 rrcurveto
            26 hlineto
            29 28 44 19 41 hhcurveto
            51 46 -29 -53 -68 -66 -51 -74 -52 -37 25 38 -14 hvcurveto
            -23 -11 rlineto
            -46 38 callgsubr
            62 87 60 -48 41 -69 hvcurveto
            return
          </CharString>
          <CharString index="27">
            hlineto
            151 709 rlineto
            -35 hlineto
            return
          </CharString>
          <CharString index="28">
            rmoveto
            88 81 49 71 41 -29 33 -48 9 hvcurveto
            70 15 36 36 52 vvcurveto
            52 -48 40 -72 -58 -58 -26 -39 -28 vhcurveto
            15 -19 rlineto
            35 24 47 24 53 hhcurveto
            56 40 -29 -43 -56 return
          </CharString>
          <CharString index="29">
            -99 -50 -99 -69 -89 hhcurveto
            -67 -33 37 77 26 4 31 8 35 hvcurveto
            62 -43 callsubr
            -63 -296 rlineto
            -8 -36 -4 -32 -28 vvcurveto
            -91 41 -47 80 vhcurveto
            endchar
          </CharString>
          <CharString index="30">
            rmoveto
            27 -15 callsubr
            -44 hlineto
            endchar
          </CharString>
          <CharString index="31">
            rmoveto
            18 14 -13 -20 -27 -27 -21 -22 -19 -12 14 19 28 24 20 24 hvcurveto
            return
          </CharString>
          <CharString index="32">
            -46 callsubr
            97 45 101 74 86 hhcurveto
            64 33 -40 -77 -25 -4 -30 -7 -34 hvcurveto
            -61 -290 -25 callsubr
            62 294 rlineto
            8 36 3 33 28 vvcurveto
            89 -38 48 -80 -84 -90 -54 -84 -58 vhcurveto
            return
          </CharString>
          <CharString index="33">
            rmoveto
            676 697 -18 17 -676 -696 rlineto
            return
          </CharString>
          <CharString index="34">
            31 hlineto
            73 341 rlineto
            -187 hlineto
            -6 -30 rlineto
            155 hlineto
            -33 -154 rlineto
            return
          </CharString>
          <CharString index="35">
            rlineto
            -34 hlineto
            return
          </CharString>
          <CharString index="36">
            hlineto
            41 callgsubr
            253 hlineto
            6 32 rlineto
            -539 hlineto
            -6 -32 rlineto
            252 hlineto
            endchar
          </CharString>
          <CharString index="37">
            rmoveto
            -28 19 -20 29 39 34 32 39 28 -18 20 -29 -39 -35 -31 -40 vhcurveto
            return
          </CharString>
          <CharString index="38">
            19 23 rlineto
            -24 5 -12 13 19 vvcurveto
            33 22 24 return
          </CharString>
          <CharString index="39">
            33 -80 callsubr
            -138 -654 return
          </CharString>
          <CharString index="40">
            70 14 36 36 52 vvcurveto
            53 -47 39 -72 -58 -58 -25 -40 -28 vhcurveto
            15 -19 rlineto
            35 24 47 24 53 hhcurveto
            56 39 -29 -42 -56 -54 -31 -92 -43 callgsubr
            return
          </CharString>
          <CharString index="41">
            rmoveto
            17 83 rlineto
            -32 hlineto
            -18 -83 rlineto
            return
          </CharString>
          <CharString index="42">
            -103 callsubr
            endchar
          </CharString>
          <CharString index="43">
            -98 callsubr
            endchar
          </CharString>
          <CharString index="44">
            -93 -10 29 225 29 225 30 return
          </CharString>
          <CharString index="45">
            -21 520 -20 return
          </CharString>
          <CharString index="46">
            35 hlineto
            73 347 rlineto
            447 hlineto
            -74 -347 31 callgsubr
            -34 hlineto
            -71 -331 rlineto
            -446 hlineto
            71 331 rlineto
            -35 hlineto
            return
          </CharString>
          <CharString index="47">
            30 -57 callgsubr
            return
          </CharString>
          <CharString index="48">
            rmoveto
            154 148 153 166 hvcurveto
            hintmask 11011000
            121 -74 98 -113 -151 -152 -152 -169 -119 73 -98 115 vhcurveto
            -18 callgsubr
          </CharString>
          <CharString index="49">
            165 -10 rmoveto
            88 93 53 85 61 hvcurveto
            -18 -85 0 -6 -6 vvcurveto
            -16 7 -11 16 -3 vhcurveto
            return
          </CharString>
          <CharString index="50">
            34 hlineto
            110 520 rlineto
            return
          </CharString>
          <CharString index="51">
            hhcurveto
            78 57 -51 -76 9 hvcurveto
            29 16 rlineto
            88 -11 -64 55 -91 hhcurveto
            -206 -140 -249 -261 -133 75 -82 113 hvcurveto
            8 32 rmoveto
            -95 -67 77 97 131 126 117 125 95 66 -78 -97 -132 -125 -115 -125 hvcurveto
            endchar
          </CharString>
          <CharString index="52">
            rmoveto
            -91 callsubr
            return
          </CharString>
          <CharString index="53">
            -21 245 30 435 -20 return
          </CharString>
          <CharString index="54">
            21 -21 710 -20 return
          </CharString>
          <CharString index="55">
            26 12 27 9 -20 hstemhm
            return
          </CharString>
          <CharString index="56">
            -37 -223 30 184 31 40 callsubr
            return
          </CharString>
          <CharString index="57">
            -38 -11 callgsubr
            return
          </CharString>
          <CharString index="58">
            -92 -60 -60 -7 -6 vhcurveto
            15 -18 rlineto
            22 21 46 37 68 hhcurveto
            60 27 -33 return
          </CharString>
          <CharString index="59">
            26 -31 -38 15 -44 hhcurveto
            -151 -152 -152 -169 -64 21 -57 37 -40 hvcurveto
            -23 165 rmoveto
            150 134 135 127 37 34 -14 -23 26 vhcurveto
            -311 -386 rlineto
            -30 35 -17 48 55 vvcurveto
            return
          </CharString>
          <CharString index="60">
            -138 -82 callsubr
            return
          </CharString>
          <CharString index="61">
            34 hlineto
            69 325 rlineto
            return
          </CharString>
          <CharString index="62">
            -88 callgsubr
            endchar
          </CharString>
          <CharString index="63">
            -42 callgsubr
            18 callsubr
            return
          </CharString>
          <CharString index="64">
            292 -72 callsubr
            return
          </CharString>
          <CharString index="65">
            32 -14 callsubr
            return
          </CharString>
          <CharString index="66">
            -21 496 -8 callgsubr
            return
          </CharString>
          <CharString index="67">
            106 -20 callgsubr
            return
          </CharString>
          <CharString index="68">
            -43 28 -56 hhcurveto
            -123 -87 -123 -149 -77 49 -47 73 return
          </CharString>
          <CharString index="69">
            77 48 -28 -44 -53 -64 -39 -72 -69 -38 38 42 hvcurveto
            -22 -13 rlineto
            -65 66 -29 57 vhcurveto
            return
          </CharString>
          <CharString index="70">
            -87 callsubr
            endchar
          </CharString>
          <CharString index="71">
            70 -5 33 -7 -21 311 30 341 33 return
          </CharString>
          <CharString index="72">
            -62 -31 callsubr
            return
          </CharString>
          <CharString index="73">
            27 130 rlineto
            -32 hlineto
            return
          </CharString>
          <CharString index="74">
            430 -7 rmoveto
            208 155 155 207 206 -155 154 -208 -208 -155 -154 -206 -207 155 -155 208 hvcurveto
            return
          </CharString>
          <CharString index="75">
            -21 274 32 372 32 return
          </CharString>
          <CharString index="76">
            -10 -33 callgsubr
            return
          </CharString>
          <CharString index="77">
            8 33 rmoveto
            -139 -81 122 141 187 166 -25 callgsubr
            136 83 -123 -141 -185 -165 -205 -193 hvcurveto
            endchar
          </CharString>
          <CharString index="78">
            82 30 81 62 93 vvcurveto
            92 -83 52 -88 -112 -133 -72 -126 -63 42 -46 53 -22 vhcurveto
            -88 -26 -105 -80 -114 vvcurveto
            -91 68 -77 119 return
          </CharString>
          <CharString index="79">
            118 26 65 67 77 hhcurveto
            48 37 -27 -38 7 hvcurveto
            return
          </CharString>
          <CharString index="80">
            50 35 578 34 return
          </CharString>
          <CharString index="81">
            -104 -490 -25 callsubr
            104 490 rlineto
            return
          </CharString>
          <CharString index="82">
            rlineto
            34 hlineto
            return
          </CharString>
          <CharString index="83">
            -904 rmoveto
            -86 callsubr
            return
          </CharString>
          <CharString index="84">
            35 hlineto
            47 220 179 158 199 -378 rlineto
            41 hlineto
            -212 399 350 311 rlineto
            -43 hlineto
            -505 -447 rlineto
            return
          </CharString>
          <CharString index="85">
            37 callsubr
            18 callsubr
            70 34 245 35 vstem
            return
          </CharString>
          <CharString index="86">
            -36 -50 callgsubr
            return
          </CharString>
          <CharString index="87">
            hlineto
            6 30 rlineto
            return
          </CharString>
          <CharString index="88">
            97 -21 366 -20 hstem
            31 247 rmoveto
            192 -171 7 33 -167 150 231 150 7 33 -265 -172 rlineto
            return
          </CharString>
          <CharString index="89">
            -54 -44 callsubr
            31 callsubr
            vstem
            return
          </CharString>
          <CharString index="90">
            -40 callgsubr
            203 -20 -9 callsubr
            return
          </CharString>
          <CharString index="91">
            -54 -42 callgsubr
            return
          </CharString>
          <CharString index="92">
            13 -43 79 rlineto
            return
          </CharString>
          <CharString index="93">
            474 32 return
          </CharString>
          <CharString index="94">
            -36 39 52 -21 62 hhcurveto
            204 196 209 217 79 -25 77 -46 56 hvcurveto
            64 77 rlineto
            -605 -419 rmoveto
            return
          </CharString>
          <CharString index="95">
            rlineto
            403 hlineto
            return
          </CharString>
          <CharString index="96">
            577 -21 174 -20 hstem
            172 730 rmoveto
            -35 -92 -18 -82 rlineto
            38 hlineto
            17 82 rlineto
            -13 hlineto
            31 92 rlineto
            return
          </CharString>
          <CharString index="97">
            577 -21 174 -20 hstem
            141 556 rmoveto
            35 92 18 82 rlineto
            -38 hlineto
            -17 -82 rlineto
            13 hlineto
            -31 -92 rlineto
            return
          </CharString>
          <CharString index="98">
            hstem
            -27 callsubr
            vstem
            return
          </CharString>
          <CharString index="99">
            hhcurveto
            7 32 rlineto
            -10 -4 5 return
          </CharString>
          <CharString index="100">
            rlineto
            -26 hlineto
            return
          </CharString>
          <CharString index="101">
            -150 -203 -21 744 -20 return
          </CharString>
          <CharString index="102">
            -115 69 -105 118 return
          </CharString>
          <CharString index="103">
            -63 -21 105 -21 82 -20 hstem
            44 -84 rmoveto
            33 84 18 82 rlineto
            -37 hlineto
            -18 -82 rlineto
            13 hlineto
            -29 -84 rlineto
            return
          </CharString>
          <CharString index="104">
            166 -223 -75 callgsubr
            return
          </CharString>
          <CharString index="105">
            rmoveto
            -191 172 -7 -33 167 -150 -231 -150 -7 -33 265 171 rlineto
            endchar
          </CharString>
          <CharString index="106">
            -40 callsubr
            228 -20 hstem
            81 34 vstem
            return
          </CharString>
          <CharString index="107">
            -61 hhcurveto
            -28 -22 -11 -14 -13 hvcurveto
            18 -22 rlineto
            10 11 15 8 20 47 45 -42 68 hhcurveto
            29 21 return
          </CharString>
          <CharString index="108">
            -74 -93 -87 -70 -84 hvcurveto
            174 129 rmoveto
            59 43 -42 -50 -66 -73 -58 -74 -59 -43 41 52 return
          </CharString>
          <CharString index="109">
            463 30 179 -20 hstem
            48 36 return
          </CharString>
          <CharString index="110">
            -117 -26 -66 -67 -76 hhcurveto
            -48 -37 26 39 -7 hvcurveto
            -22 -15 rlineto
            -47 10 42 -28 57 hhcurveto
            return
          </CharString>
          <CharString index="111">
            -32 callsubr
            hstem
            576 35 vstem
            return
          </CharString>
          <CharString index="112">
            hstem
            13 callsubr
            vstem
            return
          </CharString>
          <CharString index="113">
            33 682 -20 return
          </CharString>
          <CharString index="114">
            -117 -21 return
          </CharString>
          <CharString index="115">
            -91 255 33 hstem
            451 255 rmoveto
            7 33 rlineto
            -395 hlineto
            -6 -33 rlineto
            endchar
          </CharString>
          <CharString index="116">
            -87 callgsubr
            endchar
          </CharString>
          <CharString index="117">
            rmoveto
            16 callgsubr
            return
          </CharString>
          <CharString index="118">
            16 74 -4 callgsubr
            -16 -74 rlineto
            return
          </CharString>
          <CharString index="119">
            -21 108 26 254 -20 hstem
            return
          </CharString>
          <CharString index="120">
            29 35 395 33 return
          </CharString>
          <CharString index="121">
            426 0 29 -18 -21 501 29 8 -20 222 -20 hstemhm
            29 35 hintmask 10101100
            return
          </CharString>
          <CharString index="122">
            16 callgsubr
            -5 -27 rlineto
            242 hlineto
            endchar
          </CharString>
          <CharString index="123">
            0 32 678 -20 hstem
            return
          </CharString>
          <CharString index="124">
            21 -21 542 -20 hstem
            return
          </CharString>
          <CharString index="125">
            -2 callgsubr
            hstem
            return
          </CharString>
          <CharString index="126">
            83 75 120 110 76 37 -70 -68 -81 -74 -121 -110 return
          </CharString>
          <CharString index="127">
            hlineto
            hintmask 10100000
            -97 -217 rlineto
            32 hlineto
            hintmask 01100000
            95 217 rlineto
            return
          </CharString>
          <CharString index="128">
            -172 29 callgsubr
            return
          </CharString>
          <CharString index="129">
            117 -74 111 -133 -168 -158 -158 -164 return
          </CharString>
          <CharString index="130">
            -70 -68 -82 -75 -120 -110 -78 -36 69 68 vhcurveto
            endchar
          </CharString>
          <CharString index="131">
            32 646 32 hstem
            621 35 vstem
            return
          </CharString>
          <CharString index="132">
            25 216 23 107 25 hstem
            return
          </CharString>
          <CharString index="133">
            -191 -21 202 -33 callgsubr
            hstemhm
            hintmask 11010000
            return
          </CharString>
          <CharString index="134">
            -80 -82 52 91 118 129 81 104 80 83 -53 -91 return
          </CharString>
          <CharString index="135">
            38 hlineto
            496 -7 callgsubr
            -447 hlineto
            -7 -33 rlineto
            return
          </CharString>
          <CharString index="136">
            100 105 64 97 78 67 -44 -74 -104 -118 -61 -86 return
          </CharString>
          <CharString index="137">
            26 rlineto
            -240 hlineto
            8 39 23 return
          </CharString>
          <CharString index="138">
            28 35 421 34 return
          </CharString>
          <CharString index="139">
            -10 26 228 25 172 25 228 26 hstem
            return
          </CharString>
          <CharString index="140">
            266 -10 29 226 27 2 26 199 29 return
          </CharString>
          <CharString index="141">
            7 callsubr
            159 -21 return
          </CharString>
          <CharString index="142">
            39 callgsubr
            210 -20 hstem
            return
          </CharString>
          <CharString index="143">
            57 32 -21 56 hhcurveto
            34 35 8 15 38 hvcurveto
            return
          </CharString>
          <CharString index="144">
            -163 -10 29 480 29 return
          </CharString>
          <CharString index="145">
            -173 rmoveto
            64 81 59 82 return
          </CharString>
          <CharString index="146">
            24 158 25 hstemhm
            return
          </CharString>
          <CharString index="147">
            -14 callsubr
            -8 -20 return
          </CharString>
          <CharString index="148">
            27 249 27 vstem
            return
          </CharString>
          <CharString index="149">
            -4 25 175 23 return
          </CharString>
          <CharString index="150">
            32 58 vhcurveto
            hintmask 11111010
            47 43 -23 -39 -51 return
          </CharString>
          <CharString index="151">
            -28 3 callgsubr
            return
          </CharString>
          <CharString index="152">
            22 243 27 return
          </CharString>
          <CharString index="153">
            26 hmoveto
            32 hlineto
            return
          </CharString>
        <CharString name=".notdef">
          -618 endchar
        </CharString>
        <CharString name="A">
          -60 callsubr
          hstem
          -100 callgsubr
          endchar
        </CharString>
        <CharString name="A.sc">
          -59 21 -21 183 29 330 -20 hstem
          -34 hmoveto
          35 hlineto
          120 183 rlineto
          274 hlineto
          42 -183 -25 callsubr
          -123 542 rlineto
          -27 hlineto
          -185 -330 rmoveto
          189 288 66 -288 rlineto
          endchar
        </CharString>
        <CharString name="AE">
          32 callgsubr
          hstem
          -83 hmoveto
          -59 callgsubr
        </CharString>
        <CharString name="AEacute">
          32 callgsubr
          208 -20 hstem
          643 918 -88 callgsubr
          -627 -826 rmoveto
          -59 callgsubr
        </CharString>
        <CharString name="Aacute">
          -60 callsubr
          228 -20 hstem
          -100 callgsubr
          48 643 -45 callsubr
        </CharString>
        <CharString name="Abreve">
          -60 callsubr
          144 19 callgsubr
          371 26 vstem
          -100 callgsubr
          -42 581 -104 callsubr
        </CharString>
        <CharString name="Acircumflex">
          -60 callsubr
          228 -20 hstem
          -100 callgsubr
          -122 551 -64 callsubr
        </CharString>
        <CharString name="Adblgrave">
          -60 callsubr
          228 -20 hstem
          -100 callgsubr
          20 551 9 callsubr
        </CharString>
        <CharString name="Adieresis">
          -60 callsubr
          145 82 hstem
          -100 callgsubr
          -88 560 -66 callgsubr
        </CharString>
        <CharString name="Agrave">
          -60 callsubr
          228 -20 hstem
          -100 callgsubr
          -44 551 -77 callsubr
        </CharString>
        <CharString name="Ainvertedbreve">
          -60 callsubr
          206 22 hstem
          -100 callgsubr
          -112 559 -65 callsubr
        </CharString>
        <CharString name="Amacron">
          -60 callsubr
          177 28 hstem
          -100 callgsubr
          99 592 -68 callgsubr
          endchar
        </CharString>
        <CharString name="Aogonek">
          30 -143 -21 185 -54 callsubr
          hstem
          442 27 vstem
          486 -164 29 callgsubr
          77 47 vhcurveto
          -138 -7 callgsubr
          -30 hlineto
          -441 -710 rlineto
          38 hlineto
          151 245 rlineto
          336 hlineto
          47 -245 rlineto
          -65 -44 -24 -31 -21 callsubr
          -322 439 rmoveto
          242 391 74 -391 rlineto
          endchar
        </CharString>
        <CharString name="Aring">
          -60 callsubr
          109 119 hstem
          384 21 80 20 vstem
          -100 callgsubr
          -96 572 -70 callsubr
          69 52 -76 callsubr
          endchar
        </CharString>
        <CharString name="Aringacute">
          31 -57 callgsubr
          228 -20 hstem
          364 21 80 20 vstem
          364 739 rmoveto
          -21 10 -16 17 -7 vhcurveto
          -432 -695 rlineto
          38 hlineto
          151 245 rlineto
          336 hlineto
          47 -245 rlineto
          37 hlineto
          -135 694 rlineto
          29 9 23 27 32 vvcurveto
          28 -18 20 -29 -39 -35 -31 -40 vhcurveto
          -200 -464 rmoveto
          242 391 74 -391 rlineto
          -47 516 -76 callsubr
          92 127 rmoveto
          -44 hlineto
          -76 -78 21 -13 rlineto
          endchar
        </CharString>
        <CharString name="Atilde">
          -60 callsubr
          154 -52 callsubr
          hintmask 11110100
          -100 callgsubr
          16 569 -88 callsubr
          hintmask 11111000
          -97 callgsubr
        </CharString>
        <CharString name="B">
          14 0 32 311 31 304 32 hstem
          528 35 10 35 vstem
          30 hmoveto
          315 hlineto
          108 110 101 118 66 -33 59 -59 20 hvcurveto
          79 34 58 81 86 vvcurveto
          74 -41 71 -79 vhcurveto
          -307 hlineto
          -110 -678 rmoveto
          66 311 rlineto
          287 hlineto
          65 39 -59 -67 -92 -87 -93 -90 hvcurveto
          -207 342 rmoveto
          65 304 rlineto
          266 hlineto
          62 36 -55 -66 -90 -81 -93 -88 hvcurveto
          endchar
        </CharString>
        <CharString name="B.sc">
          -70 0 29 231 28 224 30 hstemhm
          433 33 -2 34 hintmask 11110000
          26 hmoveto
          260 hlineto
          91 89 75 90 52 -29 45 -49 16 hvcurveto
          hintmask 11101000
          64 25 46 61 66 vvcurveto
          57 -35 55 -66 vhcurveto
          -256 hlineto
          -76 -513 rmoveto
          48 231 rlineto
          233 hlineto
          hintmask 11110000
          54 33 -45 -51 -67 -70 -68 -71 hvcurveto
          -173 259 rmoveto
          48 224 rlineto
          216 hlineto
          hintmask 11101000
          51 30 -41 -49 -68 -62 -66 -71 hvcurveto
          endchar
        </CharString>
        <CharString name="C">
          43 -6 33 654 33 hstem
          51 34 vstem
          295 -6 -94 callsubr
          endchar
        </CharString>
        <CharString name="C.sc">
          -47 -5 31 489 30 hstem
          39 32 vstem
          246 -5 rmoveto
          84 108 45 81 55 hvcurveto
          -25 13 rlineto
          -76 -56 -87 -32 -70 hhcurveto
          -112 -72 94 109 132 118 154 168 67 68 -26 -77 24 hvcurveto
          30 15 rlineto
          68 -19 -62 50 -98 hhcurveto
          -191 -137 -171 -146 -119 76 -114 131 hvcurveto
          endchar
        </CharString>
        <CharString name="CR">
          -618 endchar
        </CharString>
        <CharString name="Cacute">
          -28 callgsubr
          572 918 -88 callgsubr
          -178 -832 -94 callsubr
          endchar
        </CharString>
        <CharString name="Ccaron">
          -28 callgsubr
          464 826 -89 callsubr
          -96 -910 -94 callsubr
          endchar
        </CharString>
        <CharString name="Ccedilla">
          40 13 callgsubr
          44 32 654 33 hstem
          48 34 256 24 vstem
          178 -147 rmoveto
          -77 callgsubr
          38 50 102 4 123 57 66 103 rlinecurve
          -28 12 rlineto
          -100 -71 -108 -44 -85 hhcurveto
          -135 -86 122 145 178 151 209 207 82 82 -35 -101 28 hvcurveto
          33 14 rlineto
          90 -22 -73 65 -120 hhcurveto
          -232 -170 -227 -194 -148 83 -142 146 -8 hvcurveto
          -59 -79 -78 callgsubr
          endchar
        </CharString>
        <CharString name="Ccircumflex">
          -28 callgsubr
          404 826 -98 callsubr
          -90 -847 -94 callsubr
          endchar
        </CharString>
        <CharString name="Cdotaccent">
          -28 callgsubr
          295 -6 -94 callsubr
          208 841 -66 callsubr
          endchar
        </CharString>
        <CharString name="D">
          68 0 24 callsubr
          30 hmoveto
          -92 callgsubr
        </CharString>
        <CharString name="D.sc">
          -25 0 30 482 30 hstem
          506 34 vstem
          26 hmoveto
          184 hlineto
          190 140 140 191 119 -68 92 -147 hvcurveto
          -184 hlineto
          -76 -512 rmoveto
          102 482 rlineto
          151 hlineto
          125 63 -77 -109 -157 -107 -139 -183 hvcurveto
          endchar
        </CharString>
        <CharString name="Dcaron">
          68 3 callgsubr
          621 35 vstem
          426 826 -89 callsubr
          -323 -904 rmoveto
          -92 callgsubr
        </CharString>
        <CharString name="Dcroat">
          -74 callgsubr
        </CharString>
        <CharString name="Ddotbelow">
          68 7 callsubr
          138 24 callsubr
          248 -47 callsubr
          -186 138 rmoveto
          -92 callgsubr
        </CharString>
        <CharString name="Delta">
          26 16 callsubr
          306 710 rmoveto
          -29 hlineto
          -286 -680 rlineto
          -30 599 30 vlineto
          -561 2 rmoveto
          262 634 262 -634 rlineto
          endchar
        </CharString>
        <CharString name="E">
          -65 callgsubr
          hstem
          30 hmoveto
          447 -101 callgsubr
          endchar
        </CharString>
        <CharString name="E.sc">
          -110 0 30 232 29 221 30 hstem
          26 hmoveto
          370 -20 callsubr
          -337 hlineto
          49 232 rlineto
          289 hlineto
          7 29 rlineto
          -290 hlineto
          47 221 rlineto
          331 -20 callsubr
          -363 hlineto
          endchar
        </CharString>
        <CharString name="Eacute">
          0 callgsubr
          504 918 -88 callgsubr
          -375 -826 rmoveto
          447 -101 callgsubr
          endchar
        </CharString>
        <CharString name="Ebreve">
          -65 callgsubr
          124 19 callgsubr
          360 26 vstem
          30 hmoveto
          447 -101 callgsubr
          246 146 -104 callsubr
        </CharString>
        <CharString name="Ecaron">
          0 callgsubr
          406 826 -89 callsubr
          -303 -904 rmoveto
          447 -101 callgsubr
          endchar
        </CharString>
        <CharString name="Ecircumflex">
          0 callgsubr
          350 826 -98 callsubr
          -301 -841 rmoveto
          447 -101 callgsubr
          endchar
        </CharString>
        <CharString name="Edblgrave">
          -65 callgsubr
          -32 240 hstemhm
          hintmask 11010000
          474 826 -87 callgsubr
          -283 -918 rmoveto
          447 hlineto
          6 32 rlineto
          -412 hlineto
          67 315 rlineto
          353 hlineto
          7 32 rlineto
          -353 hlineto
          64 299 -12 callsubr
          hintmask 11100000
          7 32 rlineto
          -438 hlineto
          endchar
        </CharString>
        <CharString name="Edieresis">
          -65 callgsubr
          125 82 hstem
          380 835 -93 callgsubr
          -439 -835 rmoveto
          447 -101 callgsubr
          endchar
        </CharString>
        <CharString name="Edotaccent">
          0 callgsubr
          30 hmoveto
          447 -101 callgsubr
          265 125 -66 callsubr
          endchar
        </CharString>
        <CharString name="Edotbelow">
          -32 7 callsubr
          138 32 315 32 299 32 hstem
          30 hmoveto
          447 -101 callgsubr
          58 -848 -82 callsubr
          endchar
        </CharString>
        <CharString name="Egrave">
          0 callgsubr
          30 hmoveto
          447 -101 callgsubr
          243 116 -77 callsubr
        </CharString>
        <CharString name="Einvertedbreve">
          -65 callgsubr
          186 22 hstem
          352 834 -103 callsubr
          -322 -834 rmoveto
          447 -101 callgsubr
          endchar
        </CharString>
        <CharString name="Emacron">
          -65 callgsubr
          157 28 hstem
          30 hmoveto
          447 -101 callgsubr
          386 157 -68 callgsubr
          endchar
        </CharString>
        <CharString name="Eng">
          124 -173 32 162 5 callgsubr
          hintmask 11100000
          412 -173 rmoveto
          65 81 58 82 18 hvcurveto
          157 742 -72 callsubr
          -139 -653 rlineto
          hintmask 11010000
          -353 654 -7 callsubr
          -151 -710 rlineto
          46 callgsubr
          644 347 -644 -7 -33 rlineto
          -61 -14 -61 -47 -50 hhcurveto
          -26 -27 5 20 -18 hvcurveto
          -25 -22 rlineto
          -26 21 32 -9 38 hhcurveto
          endchar
        </CharString>
        <CharString name="Eogonek">
          -32 -143 -21 164 32 315 32 299 32 hstem
          153 27 vstem
          30 hmoveto
          214 hlineto
          -67 -44 -24 -31 -21 callsubr
          -69 callsubr
          77 47 vhcurveto
          198 -101 callgsubr
          endchar
        </CharString>
        <CharString name="Eth">
          -74 callgsubr
        </CharString>
        <CharString name="Etilde">
          -65 callgsubr
          134 -52 callsubr
          hintmask 11110100
          30 hmoveto
          447 -101 callgsubr
          296 134 -88 callsubr
          hintmask 11111000
          -97 callgsubr
        </CharString>
        <CharString name="Euro">
          154 -6 33 257 27 68 26 276 33 hstem
          143 34 vstem
          101 405 rmoveto
          -17 -26 rlineto
          69 hlineto
          -5 -23 -4 -23 -1 -22 rrcurveto
          -96 hlineto
          -18 -27 rlineto
          114 hlineto
          -150 3 89 -140 152 hhcurveto
          104 131 58 107 68 hvcurveto
          -27 12 rlineto
          -100 -72 -108 -44 -85 hhcurveto
          -132 -85 116 141 -4 hvcurveto
          304 hlineto
          18 27 rlineto
          -322 hlineto
          1 22 4 23 6 23 rrcurveto
          350 hlineto
          18 26 rlineto
          -361 hlineto
          143 45 129 133 166 hhcurveto
          82 82 -35 -101 28 hvcurveto
          33 14 rlineto
          90 -22 -73 65 -120 hhcurveto
          -188 -148 -149 -160 -49 hvcurveto
          endchar
        </CharString>
        <CharString name="F">
          -35 21 -21 347 31 300 32 hstem
          30 hmoveto
          35 hlineto
          73 347 rlineto
          343 hlineto
          6 31 rlineto
          -341 hlineto
          63 300 rlineto
          402 hlineto
          7 32 rlineto
          -437 hlineto
          endchar
        </CharString>
        <CharString name="F.sc">
          -116 21 -21 261 30 221 30 hstem
          46 callsubr
          55 261 rlineto
          281 -20 callsubr
          -280 hlineto
          47 221 rlineto
          329 hlineto
          7 30 rlineto
          -362 hlineto
          endchar
        </CharString>
        <CharString name="G">
          -36 callsubr
          hstemhm
          51 34 hintmask 01111000
          535 hmoveto
          -73 callsubr
          hintmask 10111000
          -96 callsubr
          endchar
        </CharString>
        <CharString name="G.alt">
          86 -5 33 274 33 347 33 hstem
          51 34 vstem
          298 -5 rmoveto
          167 157 148 165 53 hvcurveto
          3 8 4 13 1 6 rrcurveto
          -260 hlineto
          -7 -33 rlineto
          222 hlineto
          -141 -48 -136 -133 -149 hhcurveto
          -139 -81 124 139 186 166 205 192 102 70 -63 -83 30 hvcurveto
          30 23 rlineto
          91 -34 -78 65 -111 hhcurveto
          -206 -195 -211 -215 -155 91 -139 156 hvcurveto
          endchar
        </CharString>
        <CharString name="G.sc">
          -26 -4 31 -6 -21 234 28 254 29 hstemhm
          38 33 hintmask 01111000
          439 hmoveto
          30 hlineto
          56 262 rlineto
          -158 hlineto
          -5 -28 rlineto
          127 hlineto
          -24 -111 rlineto
          hintmask 10111000
          -66 -72 -69 -30 -69 hhcurveto
          -111 -73 92 110 135 124 152 156 80 61 -31 -73 23 hvcurveto
          31 16 rlineto
          68 -22 -54 49 -112 hhcurveto
          -170 -150 -160 -159 -117 77 -113 132 73 69 29 61 68 hvcurveto
          endchar
        </CharString>
        <CharString name="Gacute">
          -36 callsubr
          203 -20 hstemhm
          51 34 hintmask 01111100
          555 918 -88 callgsubr
          79 -826 rmoveto
          -73 callsubr
          hintmask 10111100
          -96 callsubr
          endchar
        </CharString>
        <CharString name="Gbreve">
          -36 callsubr
          119 22 62 -20 hstemhm
          51 34 317 26 hintmask 01111111
          535 hmoveto
          -73 callsubr
          hintmask 10111111
          -96 callsubr
          hintmask 01111111
          -90 740 -104 callsubr
        </CharString>
        <CharString name="Gcircumflex">
          -36 callsubr
          203 -20 hstemhm
          51 34 hintmask 01111100
          387 826 -98 callsubr
          167 -841 rmoveto
          -73 callsubr
          hintmask 10111100
          -96 callsubr
          endchar
        </CharString>
        <CharString name="Gcommaaccent">
          70 -155 -21 171 33 -7 -21 311 30 341 33 hstemhm
          51 34 hintmask 10111100
          258 -90 callsubr
          297 176 rmoveto
          -73 callsubr
          hintmask 11011100
          -96 callsubr
          endchar
        </CharString>
        <CharString name="Gdotaccent">
          -36 callsubr
          203 -20 hstemhm
          51 34 hintmask 01111100
          535 hmoveto
          -73 callsubr
          hintmask 10111100
          -96 callsubr
          hintmask 01111100
          -71 719 -66 callsubr
          endchar
        </CharString>
        <CharString name="H">
          85 21 -21 347 32 331 -20 hstem
          30 hmoveto
          -61 callsubr
          endchar
        </CharString>
        <CharString name="H.sc">
          -10 21 -21 262 31 249 -20 hstem
          46 callsubr
          55 262 rlineto
          364 hlineto
          -55 -262 rlineto
          32 hlineto
          115 542 rlineto
          -32 hlineto
          -53 -249 rlineto
          -364 hlineto
          54 249 rlineto
          -33 hlineto
          endchar
        </CharString>
        <CharString name="Hbar">
          94 21 -21 347 32 174 25 -25 157 hstemhm
          hintmask 11100000
          105 553 rmoveto
          47 hlineto
          -117 -553 -25 callsubr
          74 347 rlineto
          446 hlineto
          -74 -347 rlineto
          35 hlineto
          117 553 rlineto
          47 hlineto
          6 25 rlineto
          -47 hlineto
          hintmask 11010000
          28 132 rlineto
          -35 hlineto
          hintmask 11100000
          -28 -132 rlineto
          -446 hlineto
          hintmask 11010000
          28 132 -72 callsubr
          hintmask 11100000
          -28 -132 rlineto
          -47 hlineto
          39 -199 rmoveto
          36 174 rlineto
          447 hlineto
          -37 -174 rlineto
          endchar
        </CharString>
        <CharString name="Hcircumflex">
          85 21 -21 347 32 331 -20 228 -20 hstem
          382 826 -98 callsubr
          -333 -841 rmoveto
          -61 callsubr
          endchar
        </CharString>
        <CharString name="Hdotbelow">
          85 34 callsubr
          347 32 331 -20 hstem
          30 hmoveto
          -61 callsubr
          94 -848 -82 callsubr
          endchar
        </CharString>
        <CharString name="I">
          7 callgsubr
          709 -20 hstem
          30 hmoveto
          35 -80 callsubr
          endchar
        </CharString>
        <CharString name="I.sc">
          -406 21 -21 541 -20 hstem
          46 callsubr
          115 541 rlineto
          -32 hlineto
          endchar
        </CharString>
        <CharString name="IJ">
          66 -11 33 -1 -21 709 -20 hstemhm
          hintmask 01100000
          30 hmoveto
          35 -80 callsubr
          hintmask 10100000
          146 -720 -80 callgsubr
          endchar
        </CharString>
        <CharString name="Iacute">
          7 callgsubr
          918 -20 hstem
          30 hmoveto
          35 -80 callsubr
          131 209 -45 callsubr
        </CharString>
        <CharString name="Ibreve">
          7 callgsubr
          834 19 callgsubr
          152 26 vstem
          30 hmoveto
          35 -80 callsubr
          38 147 -104 callsubr
        </CharString>
        <CharString name="Icircumflex">
          7 callgsubr
          918 -20 hstem
          30 hmoveto
          35 -80 callsubr
          -39 117 -64 callsubr
        </CharString>
        <CharString name="Idblgrave">
          7 callgsubr
          918 -20 hstem
          30 hmoveto
          35 -80 callsubr
          102 117 9 callsubr
        </CharString>
        <CharString name="Idieresis">
          7 callgsubr
          835 82 hstem
          30 hmoveto
          35 -80 callsubr
          -3 126 -66 callgsubr
        </CharString>
        <CharString name="Idotaccent">
          7 callgsubr
          918 -20 hstem
          30 hmoveto
          35 -80 callsubr
          59 126 -66 callsubr
          endchar
        </CharString>
        <CharString name="Idotbelow">
          -395 34 callsubr
          709 -20 hstem
          30 hmoveto
          35 -80 callsubr
          -147 -847 -82 callsubr
          endchar
        </CharString>
        <CharString name="Igrave">
          7 callgsubr
          918 -20 hstem
          30 hmoveto
          35 -80 callsubr
          39 117 -77 callsubr
        </CharString>
        <CharString name="Iinvertedbreve">
          7 callgsubr
          896 22 hstem
          30 hmoveto
          35 -80 callsubr
          -30 125 -65 callsubr
        </CharString>
        <CharString name="Imacron">
          7 callgsubr
          867 28 hstem
          30 hmoveto
          35 -80 callsubr
          184 158 -68 callgsubr
          endchar
        </CharString>
        <CharString name="Iogonek">
          -394 -143 -21 873 -20 hstem
          -60 27 vstem
          -16 -164 29 callgsubr
          77 47 vhcurveto
          151 709 rlineto
          -35 hlineto
          -151 -709 rlineto
          -66 -44 -25 -31 -21 callsubr
          endchar
        </CharString>
        <CharString name="Itilde">
          7 callgsubr
          844 -52 callsubr
          hintmask 11010000
          30 hmoveto
          35 -80 callsubr
          98 135 -88 callsubr
          hintmask 11100000
          -97 callgsubr
        </CharString>
        <CharString name="J">
          -157 -11 33 687 -20 hstem
          104 -11 -80 callgsubr
          endchar
        </CharString>
        <CharString name="J.sc">
          -212 -8 30 519 -20 hstem
          85 -8 rmoveto
          153 43 109 165 35 hvcurveto
          59 275 rlineto
          -33 hlineto
          -58 -275 rlineto
          -154 -33 -34 -90 -126 hhcurveto
          -44 -36 12 17 -23 hvcurveto
          -17 -26 rlineto
          -22 28 38 -11 48 hhcurveto
          endchar
        </CharString>
        <CharString name="Jcircumflex">
          -157 -11 33 896 -20 hstem
          386 826 -98 callsubr
          -263 -852 -80 callgsubr
          endchar
        </CharString>
        <CharString name="K">
          -20 21 5 callgsubr
          hintmask 10100000
          30 hmoveto
          -23 callsubr
          hintmask 11000000
          95 446 rlineto
          -35 hlineto
          endchar
        </CharString>
        <CharString name="K.sc">
          -96 21 -21 541 -20 21 -20 hstemhm
          hintmask 10100000
          46 callsubr
          36 168 143 116 169 -284 rlineto
          38 hlineto
          -181 305 285 237 rlineto
          -40 hlineto
          -406 -335 rlineto
          hintmask 11000000
          71 334 rlineto
          -32 hlineto
          endchar
        </CharString>
        <CharString name="Kcommaaccent">
          -20 -155 -21 197 5 callgsubr
          hintmask 11010000
          208 -90 callsubr
          -158 176 rmoveto
          -23 callsubr
          hintmask 11100000
          95 446 rlineto
          -35 hlineto
          endchar
        </CharString>
        <CharString name="L">
          -65 16 callsubr
          30 hmoveto
          -72 callgsubr
          endchar
        </CharString>
        <CharString name="L.sc">
          -146 0 30 512 -20 hstem
          26 hmoveto
          367 -20 callsubr
          -334 hlineto
          109 512 rlineto
          -33 hlineto
          endchar
        </CharString>
        <CharString name="Lacute">
          -65 0 32 678 -20 228 -20 hstem
          318 918 -88 callgsubr
          -189 -826 rmoveto
          -72 callgsubr
          endchar
        </CharString>
        <CharString name="Lcaron">
          -65 0 32 698 -20 hstem
          289 -35 callgsubr
          -238 -651 rmoveto
          -72 callgsubr
          endchar
        </CharString>
        <CharString name="Lcommaaccent">
          -65 -155 -21 176 32 678 -20 hstem
          217 -90 callsubr
          -167 176 rmoveto
          -72 callgsubr
          endchar
        </CharString>
        <CharString name="Ldot">
          -65 16 callsubr
          30 hmoveto
          -72 callgsubr
          183 -353 -27 callgsubr
        </CharString>
        <CharString name="Lslash">
          -57 16 callsubr
          27 223 rmoveto
          71 58 -60 -281 rlineto
          447 hlineto
          7 32 rlineto
          -413 hlineto
          60 283 224 184 -11 22 -204 -167 76 356 rlineto
          -35 hlineto
          -83 -390 -90 -74 rlineto
          endchar
        </CharString>
        <CharString name="M">
          226 6 callgsubr
          30 hmoveto
          46 callgsubr
          642 174 -504 rlineto
          23 hlineto
          389 504 -136 -642 31 callgsubr
          -32 hlineto
          -408 -529 -183 529 rlineto
          -33 hlineto
          endchar
        </CharString>
        <CharString name="M.sc">
          104 17 callsubr
          46 callsubr
          102 480 149 -376 rlineto
          21 hlineto
          308 376 -101 -480 rlineto
          32 hlineto
          115 542 -4 callgsubr
          -324 -396 -157 396 -4 callgsubr
          endchar
        </CharString>
        <CharString name="N">
          124 21 5 callgsubr
          hintmask 11000000
          30 hmoveto
          -84 callgsubr
          rlineto
          hintmask 10100000
          28 callgsubr
        </CharString>
        <CharString name="N.sc">
          21 21 -21 541 -20 21 -20 hstemhm
          hintmask 11000000
          46 callsubr
          102 481 294 -481 rlineto
          32 hlineto
          114 541 rlineto
          -32 hlineto
          -103 -487 rlineto
          hintmask 10100000
          -299 488 rlineto
          -25 hlineto
          endchar
        </CharString>
        <CharString name="NULL">
          -618 endchar
        </CharString>
        <CharString name="Nacute">
          124 -32 callgsubr
          577 918 -88 callgsubr
          -448 -826 -3 callgsubr
          28 callgsubr
        </CharString>
        <CharString name="Ncaron">
          124 -32 callgsubr
          470 826 -89 callsubr
          -367 -904 -3 callgsubr
          28 callgsubr
        </CharString>
        <CharString name="Ncommaaccent">
          124 -155 -21 197 5 callgsubr
          hintmask 11100000
          278 -90 callsubr
          -228 176 -6 callgsubr
          hintmask 11010000
          28 callgsubr
        </CharString>
        <CharString name="Ndotaccent">
          124 -32 callgsubr
          509 835 -66 callsubr
          -446 -835 -3 callgsubr
          28 callgsubr
        </CharString>
        <CharString name="Ntilde">
          124 -53 callsubr
          154 -52 callsubr
          hintmask 11101000
          30 hmoveto
          -84 callgsubr
          -31 callgsubr
          369 134 -88 callsubr
          hintmask 11110000
          -97 callgsubr
        </CharString>
        <CharString name="O">
          -40 callgsubr
          -9 callsubr
          -81 callgsubr
          endchar
        </CharString>
        <CharString name="O.sc">
          5 -4 31 488 30 hstem
          38 33 468 32 vstem
          247 -4 rmoveto
          167 157 158 163 22 callsubr
          -118 76 -109 133 hvcurveto
          7 31 rmoveto
          -115 -68 94 106 138 131 150 155 112 70 -94 -107 -136 -130 -151 -155 hvcurveto
          endchar
        </CharString>
        <CharString name="OE">
          516 0 32 -16 -21 352 32 303 28 5 -20 hstemhm
          50 35 hintmask 01110100
          300 -5 rmoveto
          129 127 98 125 70 hvcurveto
          hintmask 10110100
          -47 -218 rlineto
          445 hlineto
          6 32 rlineto
          -409 hlineto
          66 315 rlineto
          350 hlineto
          8 32 rlineto
          -350 hlineto
          63 299 rlineto
          401 hlineto
          8 32 rlineto
          -437 hlineto
          -46 -219 rlineto
          hintmask 01101100
          123 -16 -82 101 -135 hhcurveto
          -204 -197 -210 -217 -153 90 -140 160 hvcurveto
          5 33 rmoveto
          -139 -81 122 141 hvcurveto
          hintmask 10110100
          187 167 -25 callgsubr
          135 82 -123 -141 -185 -165 -205 -192 vhcurveto
          endchar
        </CharString>
        <CharString name="Oacute">
          -17 callsubr
          566 918 -88 callgsubr
          -170 -831 -106 callgsubr
          endchar
        </CharString>
        <CharString name="Obreve">
          -40 callgsubr
          119 19 callgsubr
          50 35 322 26 230 34 vstem
          -81 callgsubr
          169 828 -104 callsubr
        </CharString>
        <CharString name="Ocircumflex">
          -17 callsubr
          398 826 -98 callsubr
          -82 -846 -106 callgsubr
          endchar
        </CharString>
        <CharString name="Odblgrave">
          -40 callgsubr
          -33 236 17 callgsubr
          hintmask 10111000
          544 826 -87 callgsubr
          -86 -923 rmoveto
          204 196 209 217 hvcurveto
          hintmask 11011000
          150 -88 144 -158 -204 -197 -210 -218 -152 89 -140 158 vhcurveto
          -30 callsubr
        </CharString>
        <CharString name="Odieresis">
          -40 callgsubr
          120 82 -9 callsubr
          432 835 -93 callgsubr
          -224 -840 -106 callgsubr
          endchar
        </CharString>
        <CharString name="Odotbelow">
          107 7 callsubr
          133 33 654 33 -9 callsubr
          287 -47 callsubr
          42 133 -106 callgsubr
          endchar
        </CharString>
        <CharString name="Ograve">
          -17 callsubr
          -81 callgsubr
          179 798 -77 callsubr
        </CharString>
        <CharString name="Ohungarumlaut">
          -40 callgsubr
          -33 236 17 callgsubr
          hintmask 10111000
          497 918 -62 callgsubr
          -206 -831 rmoveto
          204 196 209 217 hvcurveto
          hintmask 11011000
          150 -88 144 -158 -204 -197 -210 -218 -152 89 -140 158 vhcurveto
          -30 callsubr
        </CharString>
        <CharString name="Oinvertedbreve">
          -40 callgsubr
          181 22 -9 callsubr
          404 834 -103 callsubr
          -107 -839 -106 callgsubr
          endchar
        </CharString>
        <CharString name="Omacron">
          -40 callgsubr
          152 28 -9 callsubr
          616 867 -68 callgsubr
          -51 -872 -106 callgsubr
          endchar
        </CharString>
        <CharString name="Omega">
          -76 callgsubr
        </CharString>
        <CharString name="Oogonek">
          107 -146 -21 163 32 654 33 hstem
          50 35 104 27 447 34 vstem
          233 15 callgsubr
          199 9 186 204 212 vvcurveto
          150 -88 144 -158 -204 -197 -210 -218 -146 82 -134 146 -11 vhcurveto
          -65 -44 -24 -30 -21 callsubr
          72 195 rmoveto
          -139 -81 122 141 187 166 -25 callgsubr
          136 83 -123 -141 -185 -165 -205 -193 hvcurveto
          endchar
        </CharString>
        <CharString name="Oslash">
          107 -5 33 -7 -21 682 33 -5 -20 17 callgsubr
          hintmask 10011100
          650 710 rmoveto
          -45 -55 rlineto
          hintmask 01101100
          -12 callgsubr
          hintmask 10011100
          -13 callsubr
          hintmask 10101100
          -53 callgsubr
          endchar
        </CharString>
        <CharString name="Oslashacute">
          107 -5 33 -7 -21 682 33 -5 -20 228 -20 17 callgsubr
          hintmask 10011110
          650 710 rmoveto
          -45 -55 rlineto
          hintmask 01101110
          -12 callgsubr
          hintmask 10011110
          -13 callsubr
          hintmask 10101110
          -53 callgsubr
          253 890 -45 callsubr
        </CharString>
        <CharString name="Otilde">
          -40 callgsubr
          129 26 12 27 9 -20 17 callgsubr
          hintmask 11101110
          -81 callgsubr
          229 816 -88 callsubr
          hintmask 11110110
          -97 callgsubr
        </CharString>
        <CharString name="P">
          -22 -5 callgsubr
          hstem
          575 34 vstem
          30 hmoveto
          35 hlineto
          58 274 rlineto
          248 hlineto
          129 109 133 124 91 -56 88 -95 hvcurveto
          -277 hlineto
          -51 -404 rmoveto
          79 372 rlineto
          240 hlineto
          76 50 -70 -81 -103 -88 -118 -110 hvcurveto
          endchar
        </CharString>
        <CharString name="P.sc">
          -101 21 -21 207 30 275 30 hstem
          465 34 vstem
          46 callsubr
          44 207 rlineto
          202 hlineto
          106 89 100 95 71 -48 69 -81 hvcurveto
          -229 hlineto
          -32 -305 rmoveto
          58 275 rlineto
          195 hlineto
          62 41 -53 -61 -76 -67 -85 -89 hvcurveto
          endchar
        </CharString>
        <CharString name="Q">
          106 -5 33 -7 -21 682 33 17 callgsubr
          hintmask 01111000
          547 hmoveto
          38 hlineto
          -51 89 rlineto
          96 81 67 124 127 vvcurveto
          150 -87 144 -158 -205 -197 -210 -218 vhcurveto
          hintmask 10111000
          -152 90 -140 158 74 73 27 46 63 vhcurveto
          hintmask 01111000
          hintmask 10111000
          -203 -40 rmoveto
          -139 -81 122 141 187 167 -25 callgsubr
          135 83 -123 -141 -109 -57 -116 -87 -77 hvcurveto
          -44 79 rlineto
          -38 hlineto
          56 -100 rlineto
          -42 -55 -65 -25 -68 hhcurveto
          endchar
        </CharString>
        <CharString name="Q.sc">
          4 -4 31 -6 -21 516 29 hstemhm
          38 32 468 33 hintmask 01111000
          451 hmoveto
          35 hlineto
          -44 69 rlineto
          76 62 53 92 94 vvcurveto
          22 callsubr
          vhcurveto
          hintmask 10111000
          -118 76 -109 133 61 60 21 35 51 vhcurveto
          hintmask 01111000
          hintmask 10111000
          -165 -25 rmoveto
          -115 -69 94 106 138 132 151 155 112 69 -95 -107 -79 -44 -85 -67 -56 hvcurveto
          -37 60 -72 callsubr
          48 -78 rlineto
          -31 -44 -52 -18 -54 hhcurveto
          endchar
        </CharString>
        <CharString name="R">
          1 21 4 callsubr
          65 hmoveto
          -99 callsubr
          endchar
        </CharString>
        <CharString name="R.sc">
          -79 0 237 -30 30 275 30 hstemhm
          468 33 hintmask 10110000
          46 callsubr
          hintmask 01110000
          44 207 rlineto
          190 hlineto
          hintmask 10110000
          93 -207 rlineto
          38 hlineto
          -95 212 rlineto
          95 11 78 89 90 vvcurveto
          71 -48 69 -81 vhcurveto
          -231 hlineto
          -32 -305 rmoveto
          58 275 rlineto
          197 hlineto
          63 41 -54 -60 -77 -71 -84 -86 hvcurveto
          endchar
        </CharString>
        <CharString name="Racute">
          2 callgsubr
          210 -20 hstem
          576 35 vstem
          495 920 -88 callgsubr
          -331 -828 rmoveto
          -99 callsubr
          endchar
        </CharString>
        <CharString name="Rcaron">
          2 callgsubr
          210 -20 hstem
          576 35 vstem
          408 828 -89 callsubr
          -270 -906 rmoveto
          -99 callsubr
          endchar
        </CharString>
        <CharString name="Rcommaaccent">
          1 -155 -21 197 4 callsubr
          214 -90 callsubr
          -129 176 rmoveto
          -99 callsubr
          endchar
        </CharString>
        <CharString name="Rdblgrave">
          2 callgsubr
          -32 240 hstemhm
          576 35 hintmask 11011000
          480 826 -87 callgsubr
          -254 -918 rmoveto
          58 274 rlineto
          234 hlineto
          108 -274 rlineto
          40 hlineto
          -109 278 rlineto
          117 12 98 121 120 vvcurveto
          hintmask 11101000
          91 -56 88 -96 vhcurveto
          -278 hlineto
          -151 -710 rlineto
          100 306 rmoveto
          79 372 rlineto
          242 hlineto
          75 50 -71 -81 -103 -88 -117 -109 hvcurveto
          endchar
        </CharString>
        <CharString name="Rdotbelow">
          1 -117 -21 159 4 callsubr
          65 hmoveto
          -99 callsubr
          -141 -444 -82 callsubr
          endchar
        </CharString>
        <CharString name="Rinvertedbreve">
          2 callgsubr
          186 22 hstem
          576 35 vstem
          350 834 -103 callsubr
          -285 -834 rmoveto
          -99 callsubr
          endchar
        </CharString>
        <CharString name="S">
          -37 -5 11 callgsubr
          239 -5 -102 callsubr
          endchar
        </CharString>
        <CharString name="S.sc">
          -113 -4 28 493 28 hstem
          82 33 280 35 vstem
          199 -4 rmoveto
          136 95 58 108 77 -67 25 -103 21 hvcurveto
          -98 21 -47 19 55 vvcurveto
          78 57 59 135 66 43 -18 -43 31 vhcurveto
          22 26 rlineto
          44 -35 -50 19 -72 hhcurveto
          -133 -97 -64 -109 -70 57 -24 101 -21 hvcurveto
          103 -21 52 -24 -58 vvcurveto
          -87 -78 -43 -111 -85 -61 28 50 -39 vhcurveto
          -24 -25 rlineto
          -54 49 65 -27 88 hhcurveto
          endchar
        </CharString>
        <CharString name="Sacute">
          -17 callgsubr
          495 938 -88 callgsubr
          -157 -851 -102 callsubr
          endchar
        </CharString>
        <CharString name="Scaron">
          -17 callgsubr
          400 846 -89 callsubr
          -88 -929 -102 callsubr
          endchar
        </CharString>
        <CharString name="Schwa">
          89 -9 34 310 33 313 34 hstem
          31 36 572 39 vstem
          281 -9 rmoveto
          200 197 197 232 164 -98 131 -150 -112 -128 -72 -97 -58 hvcurveto
          30 -15 rlineto
          90 53 109 60 98 hhcurveto
          130 87 -106 -148 -21 -1 -18 -3 -20 hvcurveto
          -589 hlineto
          -9 -31 -6 -34 -37 vvcurveto
          -159 100 -116 150 vhcurveto
          4 34 rmoveto
          -149 -69 118 122 24 3 23 5 23 hvcurveto
          553 hlineto
          -175 -37 -149 -135 -157 hhcurveto
          endchar
        </CharString>
        <CharString name="Scircumflex">
          -17 callgsubr
          337 846 -98 callsubr
          -79 -866 -102 callsubr
          endchar
        </CharString>
        <CharString name="Sdotbelow">
          -37 7 callsubr
          133 11 callgsubr
          239 -5 -102 callsubr
          -13 -133 -82 callsubr
          endchar
        </CharString>
        <CharString name="T">
          -42 21 -21 678 32 hstem
          204 hmoveto
          34 -71 callsubr
        </CharString>
        <CharString name="T.sc">
          -119 21 -21 512 30 hstem
          168 hmoveto
          33 hlineto
          109 512 rlineto
          206 hlineto
          7 30 rlineto
          -447 hlineto
          -7 -30 rlineto
          208 hlineto
          endchar
        </CharString>
        <CharString name="Tbar">
          -2 21 -21 393 25 260 32 hstem
          85 393 rmoveto
          223 hlineto
          -83 -393 -25 callsubr
          83 393 rlineto
          224 hlineto
          5 25 rlineto
          -223 hlineto
          55 260 rlineto
          252 hlineto
          8 32 rlineto
          -540 hlineto
          -7 -32 rlineto
          253 hlineto
          -55 -260 rlineto
          -224 hlineto
          endchar
        </CharString>
        <CharString name="Tcaron">
          -42 21 -21 678 32 208 -20 hstem
          377 826 -89 callsubr
          -100 -904 rmoveto
          34 -71 callsubr
        </CharString>
        <CharString name="Tdotbelow">
          -42 34 callsubr
          678 32 hstem
          208 -47 callsubr
          28 138 rmoveto
          34 -71 callsubr
        </CharString>
        <CharString name="Thorn">
          -43 21 -21 127 32 371 33 147 -20 hstem
          525 34 vstem
          30 hmoveto
          35 hlineto
          26 127 rlineto
          230 hlineto
          129 109 132 124 92 -56 88 -95 hvcurveto
          -224 hlineto
          32 147 rlineto
          -35 hlineto
          -82 -551 rmoveto
          79 371 rlineto
          221 hlineto
          76 50 -70 -81 -102 -87 -118 -111 hvcurveto
          endchar
        </CharString>
        <CharString name="U">
          105 -5 33 682 -82 callgsubr
          endchar
        </CharString>
        <CharString name="U.sc">
          4 -4 31 515 -20 hstem
          64 34 vstem
          247 -4 rmoveto
          170 88 129 145 31 hvcurveto
          57 272 -4 callgsubr
          -58 -272 rlineto
          -120 -26 -70 -123 -155 hhcurveto
          -117 -38 70 88 27 3 30 6 28 hvcurveto
          58 272 rlineto
          -33 hlineto
          -57 -272 rlineto
          -6 -31 -5 -30 -29 vvcurveto
          -101 47 -83 136 vhcurveto
          endchar
        </CharString>
        <CharString name="Uacute">
          -1 callsubr
          548 918 -88 callgsubr
          -151 -831 -107 callsubr
          endchar
        </CharString>
        <CharString name="Ubreve">
          -40 callsubr
          144 19 callgsubr
          81 34 290 26 -94 callgsubr
          174 861 -104 callsubr
        </CharString>
        <CharString name="Ucircumflex">
          -1 callsubr
          393 826 -98 callsubr
          -76 -846 -107 callsubr
          endchar
        </CharString>
        <CharString name="Udblgrave">
          -1 callsubr
          535 826 -87 callgsubr
          -76 -923 -107 callsubr
          endchar
        </CharString>
        <CharString name="Udieresis">
          -40 callsubr
          145 82 hstem
          81 34 vstem
          428 835 -93 callgsubr
          -219 -840 -107 callsubr
          endchar
        </CharString>
        <CharString name="Udotbelow">
          106 7 callsubr
          133 33 682 -82 callgsubr
          -13 -133 -82 callsubr
          endchar
        </CharString>
        <CharString name="Ugrave">
          106 -5 33 682 -20 228 -82 callgsubr
          183 831 -77 callsubr
        </CharString>
        <CharString name="Uhungarumlaut">
          106 -5 33 682 -20 228 -82 callgsubr
          197 923 -62 callgsubr
          endchar
        </CharString>
        <CharString name="Uinvertedbreve">
          -40 callsubr
          206 22 hstem
          81 34 vstem
          399 834 -103 callsubr
          -101 -839 -107 callsubr
          endchar
        </CharString>
        <CharString name="Umacron">
          -40 callsubr
          177 28 -89 callgsubr
          314 872 -68 callgsubr
          endchar
        </CharString>
        <CharString name="Uogonek">
          106 -146 -21 163 32 682 -20 hstem
          81 34 73 27 vstem
          232 15 callgsubr
          198 6 104 167 39 185 75 356 rcurveline
          -34 hlineto
          -75 -356 rlineto
          -160 -34 -87 -166 -193 hhcurveto
          -142 -47 90 115 38 6 42 9 41 hvcurveto
          75 356 -72 callsubr
          -76 -356 rlineto
          -9 -43 -5 -43 -41 vvcurveto
          -123 49 -100 147 -8 vhcurveto
          -65 -44 -24 -30 -21 callsubr
          endchar
        </CharString>
        <CharString name="Uring">
          -40 callsubr
          109 119 hstem
          81 34 303 21 80 20 vstem
          418 847 -70 callsubr
          69 52 -76 callsubr
          -189 -904 -107 callsubr
          endchar
        </CharString>
        <CharString name="Utilde">
          -40 callsubr
          154 -52 callsubr
          81 34 hintmask 11101100
          -99 callgsubr
          232 849 -88 callsubr
          hintmask 11110100
          -97 callgsubr
        </CharString>
        <CharString name="V">
          27 6 callgsubr
          238 hmoveto
          34 hlineto
          440 -7 callgsubr
          -37 hlineto
          -410 -667 -129 667 rlineto
          -36 hlineto
          endchar
        </CharString>
        <CharString name="V.sc">
          -61 17 callsubr
          197 hmoveto
          30 hlineto
          354 542 rlineto
          -35 hlineto
          -324 -498 -115 498 -72 callsubr
          endchar
        </CharString>
        <CharString name="W">
          371 6 callgsubr
          239 hmoveto
          -90 callgsubr
          endchar
        </CharString>
        <CharString name="W.alt">
          365 6 callgsubr
          171 hmoveto
          37 hlineto
          350 654 79 -654 rlineto
          37 hlineto
          368 -7 callgsubr
          -39 hlineto
          -340 -663 -75 663 rlineto
          -38 hlineto
          -349 -663 -59 663 rlineto
          -37 hlineto
          endchar
        </CharString>
        <CharString name="W.sc">
          226 17 callsubr
          198 hmoveto
          31 hlineto
          186 284 66 -284 rlineto
          31 hlineto
          355 542 rlineto
          -35 hlineto
          -329 -502 -64 271 148 227 rlineto
          -33 hlineto
          -128 -199 -43 199 rlineto
          -32 hlineto
          50 -227 -177 -271 -116 502 rlineto
          -35 hlineto
          endchar
        </CharString>
        <CharString name="Wacute">
          371 -32 callgsubr
          686 918 -88 callgsubr
          -348 -826 rmoveto
          -90 callgsubr
          endchar
        </CharString>
        <CharString name="Wcircumflex">
          371 -32 callgsubr
          521 826 -98 callsubr
          -263 -841 rmoveto
          -90 callgsubr
          endchar
        </CharString>
        <CharString name="Wdieresis">
          371 -53 callsubr
          145 82 hstem
          553 835 -93 callgsubr
          -403 -835 rmoveto
          -90 callgsubr
          endchar
        </CharString>
        <CharString name="Wgrave">
          371 -32 callgsubr
          239 hmoveto
          -90 callgsubr
          516 116 -77 callsubr
        </CharString>
        <CharString name="X">
          -25 6 callgsubr
          -48 hmoveto
          41 hlineto
          309 324 170 -324 rlineto
          41 hlineto
          -186 350 345 360 rlineto
          -41 hlineto
          -318 -334 -177 334 rlineto
          -41 hlineto
          192 -360 rlineto
          endchar
        </CharString>
        <CharString name="X.sc">
          -101 17 callsubr
          -38 hmoveto
          38 hlineto
          246 243 144 -243 rlineto
          37 hlineto
          -157 267 279 275 rlineto
          -38 hlineto
          -254 -250 -149 250 rlineto
          -38 hlineto
          163 -275 rlineto
          endchar
        </CharString>
        <CharString name="Y">
          -20 6 callgsubr
          -83 callsubr
          endchar
        </CharString>
        <CharString name="Y.sc">
          -100 17 callsubr
          174 hmoveto
          33 hlineto
          44 206 294 336 rlineto
          -36 hlineto
          -268 -305 -136 305 rlineto
          -36 hlineto
          150 -335 rlineto
          endchar
        </CharString>
        <CharString name="Yacute">
          -20 -32 callgsubr
          -83 callsubr
          208 644 -45 callsubr
        </CharString>
        <CharString name="Ycircumflex">
          -20 -32 callgsubr
          -83 callsubr
          54 552 -64 callsubr
        </CharString>
        <CharString name="Ydieresis">
          -20 -53 callsubr
          145 82 hstem
          -83 callsubr
          89 561 -66 callgsubr
        </CharString>
        <CharString name="Ygrave">
          -20 -32 callgsubr
          -83 callsubr
          137 552 -77 callsubr
        </CharString>
        <CharString name="Ytilde">
          -20 -53 callsubr
          154 -52 callsubr
          hintmask 11101000
          -83 callsubr
          179 570 -88 callsubr
          hintmask 11110000
          -97 callgsubr
        </CharString>
        <CharString name="Z">
          -28 42 callgsubr
          hstem
          -39 hmoveto
          -22 callgsubr
        </CharString>
        <CharString name="Z.sc">
          -102 0 30 482 30 hstem
          -29 hmoveto
          443 -20 callsubr
          -402 hlineto
          508 484 6 28 rlineto
          -441 hlineto
          -7 -30 rlineto
          402 hlineto
          -509 -484 rlineto
          endchar
        </CharString>
        <CharString name="Zacute">
          44 callsubr
          478 918 -88 callgsubr
          -418 -826 rmoveto
          -22 callgsubr
        </CharString>
        <CharString name="Zcaron">
          44 callsubr
          388 826 -89 callsubr
          -354 -24 callsubr
          endchar
        </CharString>
        <CharString name="Zdotaccent">
          44 callsubr
          -39 -55 callgsubr
          456 805 -66 callsubr
          endchar
        </CharString>
        <CharString name="Zdotbelow">
          -28 7 callsubr
          138 32 646 32 hstem
          -39 -55 callgsubr
          253 -168 -82 callsubr
          endchar
        </CharString>
        <CharString name="a">
          -33 -10 32 -2 -21 22 37 callgsubr
          29 35 hintmask 10010100
          -84 callsubr
          hintmask 01010100
          -17 10 -15 21 vhcurveto
          hintmask 00101100
          -97 callsubr
          hintmask 10010100
          -106 callsubr
          endchar
        </CharString>
        <CharString name="a.alt">
          -33 -10 32 -1 -39 callgsubr
          hstemhm
          28 35 hintmask 10110000
          213 -10 rmoveto
          84 81 52 73 55 hvcurveto
          hintmask 01110000
          -25 -115 -25 callsubr
          110 517 -72 callsubr
          -24 -116 rlineto
          73 -24 -58 54 -87 hhcurveto
          -147 -150 -153 -167 hvcurveto
          hintmask 10110000
          -114 68 -104 117 vhcurveto
          11 32 rmoveto
          -101 -60 88 102 132 121 152 140 86 59 -65 -84 13 hvcurveto
          -38 -177 rlineto
          -81 -47 -82 -67 -91 hhcurveto
          endchar
        </CharString>
        <CharString name="a.alt2">
          -112 -10 29 2 -21 274 26 199 29 hstemhm
          0 33 378 34 hintmask 10111100
          131 -10 rmoveto
          75 85 30 66 63 hvcurveto
          hintmask 01111100
          -18 -86 rlineto
          33 hlineto
          70 326 rlineto
          4 19 2 19 18 vvcurveto
          86 -49 60 -102 -63 -66 -31 -37 -60 vhcurveto
          9 -25 rlineto
          41 64 60 23 49 hhcurveto
          79 45 -49 -75 -15 -2 -16 -4 -16 hvcurveto
          -12 -56 rlineto
          11 -23 -53 17 -77 hhcurveto
          -100 -140 -45 -133 hvcurveto
          hintmask 10111100
          -75 52 -57 79 vhcurveto
          11 29 rmoveto
          -61 -48 43 65 111 118 36 86 52 51 -9 -21 47 hvcurveto
          -21 -98 -3 -12 -7 -14 -13 -14 rlinecurve
          -60 -50 -84 -27 -67 hhcurveto
          endchar
        </CharString>
        <CharString name="aacute">
          -33 -10 32 -2 -21 22 -21 496 32 -8 -20 230 -20 -105 callgsubr
          219 708 -45 callsubr
        </CharString>
        <CharString name="abreve">
          -33 -10 32 -2 -21 22 -39 callgsubr
          -8 -20 146 22 62 -20 hstemhm
          29 35 226 26 hintmask 1001011110000000
          -84 callsubr
          hintmask 0101011110000000
          -17 10 -15 21 vhcurveto
          hintmask 0010111110000000
          -97 callsubr
          hintmask 1001011110000000
          -106 callsubr
          133 646 -104 callsubr
        </CharString>
        <CharString name="acircumflex">
          -33 -10 32 -2 -21 22 -21 496 32 -8 -20 230 -20 -105 callgsubr
          55 616 -64 callsubr
        </CharString>
        <CharString name="acute">
          -423 -15 callgsubr
          158 730 -45 callsubr
        </CharString>
        <CharString name="adblgrave">
          -33 -10 32 -2 -21 22 -39 callgsubr
          -32 234 -210 -20 hstemhm
          29 35 hintmask 10010010
          -84 callsubr
          hintmask 01010010
          -17 10 -15 21 vhcurveto
          hintmask 00100110
          -97 callsubr
          hintmask 10010010
          -106 callsubr
          190 616 rmoveto
          26 13 rlineto
          hintmask 10001010
          -43 79 rlineto
          -41 hlineto
          -44 -92 rmoveto
          24 13 -42 79 rlineto
          -41 hlineto
          endchar
        </CharString>
        <CharString name="adieresis">
          -33 -10 32 -2 -21 22 -39 callgsubr
          -8 -20 147 82 -105 callgsubr
          89 625 -66 callgsubr
        </CharString>
        <CharString name="ae">
          33 callsubr
          45 callgsubr
          136 -10 -86 callgsubr
        </CharString>
        <CharString name="aeacute">
          33 callsubr
          202 -20 45 callgsubr
          578 730 -88 callgsubr
          -343 -648 -86 callgsubr
        </CharString>
        <CharString name="afii61352">
          446 21 -21 354 28 304 28 -4 -20 hstemhm
          748 32 281 33 hintmask 11011100
          551 hmoveto
          -68 callsubr
          -355 655 -7 callsubr
          -151 -710 rlineto
          46 callgsubr
          644 rlineto
          680 -290 rmoveto
          111 101 103 110 hvcurveto
          hintmask 11101100
          81 -53 66 -83 -109 -101 -102 -111 -79 51 -68 83 vhcurveto
          -102 150 rmoveto
          98 87 84 86 64 44 -54 -69 -96 -87 -85 -86 -64 -44 54 68 vhcurveto
          endchar
        </CharString>
        <CharString name="agrave">
          -33 -10 32 -2 -21 22 -21 496 32 -8 -20 230 -20 -105 callgsubr
          150 616 -77 callsubr
        </CharString>
        <CharString name="ainvertedbreve">
          -33 -10 32 -2 -21 22 -39 callgsubr
          -8 -20 208 22 -105 callgsubr
          57 624 -65 callsubr
        </CharString>
        <CharString name="amacron">
          -33 -10 32 -2 -21 22 -39 callgsubr
          -8 -20 179 28 -105 callgsubr
          278 657 -68 callgsubr
          endchar
        </CharString>
        <CharString name="ampersand">
          51 -10 31 0 -21 386 30 275 28 hstemhm
          19 36 105 33 hintmask 01111100
          499 hmoveto
          46 hlineto
          -102 145 49 65 38 83 21 93 rlinecurve
          98 -20 callsubr
          -131 hlineto
          -17 -94 -36 -84 -46 -67 -170 244 rcurveline
          -44 63 -18 41 35 vvcurveto
          71 77 66 84 64 52 -38 -60 25 vhcurveto
          23 21 rlineto
          66 -28 -59 39 -72 hhcurveto
          -105 -94 -79 -90 -37 16 -39 43 -67 hvcurveto
          -137 -78 -63 -77 -96 vvcurveto
          hintmask 10111100
          -98 69 -68 99 83 83 47 78 67 vhcurveto
          hintmask 01111100
          -227 -94 rmoveto
          -81 -57 56 82 84 58 68 123 72 hvcurveto
          166 -242 rlineto
          -75 -60 -74 -45 -75 hhcurveto
          endchar
        </CharString>
        <CharString name="aogonek">
          -33 -143 -21 154 32 40 callsubr
          hstemhm
          29 35 267 27 hintmask 11011100
          375 -164 29 callgsubr
          77 47 vhcurveto
          7 32 rlineto
          -10 -4 5 8 4 1 5 1 3 hvcurveto
          99 463 rlineto
          -35 hlineto
          -25 -118 rlineto
          hintmask 11101100
          68 -25 -57 58 -90 hhcurveto
          -150 -140 -157 -162 -114 70 -105 115 77 84 47 69 55 hvcurveto
          -12 -61 -2 -6 -8 vvcurveto
          -11 4 -10 8 -6 vhcurveto
          -71 -46 -26 -31 -38 -50 callgsubr
          -151 186 rmoveto
          -93 -67 88 102 135 117 149 134 87 67 -68 -77 11 hvcurveto
          -50 callsubr
          -80 -24 -115 -70 -79 hhcurveto
          endchar
        </CharString>
        <CharString name="apostrophe">
          -80 -15 callgsubr
          318 638 rmoveto
          99 92 rlineto
          -64 hlineto
          -7 -28 -49 -51 rlineto
          endchar
        </CharString>
        <CharString name="approxequal">
          -175 201 30 12 29 11 29 13 29 hstem
          343 326 rmoveto
          -11 -12 -16 -3 -21 -58 -42 42 0 callsubr
          10 12 16 hvcurveto
          -17 -61 rmoveto
          -11 -12 -16 -2 -21 -58 -42 41 0 callsubr
          9 12 16 hvcurveto
          endchar
        </CharString>
        <CharString name="aring">
          -33 -10 32 -2 -21 22 -39 callgsubr
          -32 134 -110 -20 111 119 -19 -20 hstemhm
          29 35 237 21 80 20 hintmask 1001001011100000
          -84 callsubr
          hintmask 0101001011100000
          -17 10 -15 21 vhcurveto
          hintmask 0010011011100000
          -97 callsubr
          hintmask 1001001011100000
          -106 callsubr
          77 637 -70 callsubr
          hintmask 1000100111100000
          69 52 -76 callsubr
          endchar
        </CharString>
        <CharString name="aringacute">
          -33 -10 32 -2 -21 22 -39 callgsubr
          -32 134 -110 -20 111 119 -19 -20 178 -20 hstemhm
          29 35 238 21 80 20 hintmask 1001001011110000
          -84 callsubr
          hintmask 0101001011110000
          -17 10 -15 21 vhcurveto
          hintmask 0010011011110000
          -97 callsubr
          hintmask 1001001011110000
          -106 callsubr
          239 847 -88 callgsubr
          -62 -118 -70 callsubr
          hintmask 1000100111110000
          69 52 -76 callsubr
          endchar
        </CharString>
        <CharString name="asciicircum">
          -103 324 -21 407 -20 hstem
          86 303 rmoveto
          181 368 178 -368 -25 callsubr
          -197 407 rlineto
          -30 hlineto
          -198 -407 rlineto
          endchar
        </CharString>
        <CharString name="asciitilde">
          -161 248 27 33 27 hstem
          55 248 14 callgsubr
          2 24 58 42 vhcurveto
          43 42 -60 63 hhcurveto
          73 27 77 3 1 hvcurveto
          -27 1 rlineto
          -5 -23 -49 -48 vhcurveto
          -53 -40 60 -56 hhcurveto
          -64 -30 -80 -7 hvcurveto
          endchar
        </CharString>
        <CharString name="asterisk">
          -319 565 -21 167 -20 hstem
          158 544 rmoveto
          52 59 27 -59 24 15 -28 58 68 22 rlineto
          24 vlineto
          -71 -23 16 71 -7 callsubr
          -14 -71 -60 23 -12 -24 59 -22 -52 -58 rlineto
          endchar
        </CharString>
        <CharString name="at">
          176 -146 24 106 25 0 26 389 27 128 24 hstemhm
          26 24 125 28 278 27 199 24 hintmask 1101111110000000
          546 9 rmoveto
          -25 -13 13 29 8 1 14 6 26 hvcurveto
          75 351 rlineto
          -28 hlineto
          -18 -88 rlineto
          56 -21 -47 33 -63 hhcurveto
          -126 -112 -126 -141 -102 58 -73 87 56 63 29 44 45 hvcurveto
          -3 -13 0 -14 -10 vvcurveto
          -43 18 -18 36 115 81 177 144 173 -116 125 -163 -211 -215 -209 -236 -173 114 -131 158 51 59 14 26 55 vhcurveto
          -6 22 rlineto
          -25 -51 -48 -13 -50 hhcurveto
          -153 -105 120 161 220 196 200 201 155 105 -118 -161 -136 -76 -155 -85 hvcurveto
          hintmask 1011111110000000
          -216 26 rmoveto
          -76 -51 65 89 125 101 110 106 60 47 -35 -62 18 hvcurveto
          -37 -183 rlineto
          -59 -24 -78 -50 -66 hhcurveto
          endchar
        </CharString>
        <CharString name="atilde">
          -33 -10 32 -2 -21 22 -39 callgsubr
          -8 -20 156 -52 callsubr
          29 35 hintmask 1001011010000000
          -84 callsubr
          hintmask 0101011010000000
          -17 10 -15 21 vhcurveto
          hintmask 0010111010000000
          -97 callsubr
          hintmask 1001010110000000
          -106 callsubr
          190 634 -88 callsubr
          hintmask 1001011010000000
          -97 callgsubr
        </CharString>
        <CharString name="b">
          -37 -10 32 -1 -39 callgsubr
          -2 callgsubr
          hstemhm
          500 35 hintmask 10111000
          238 -10 rmoveto
          148 149 155 169 106 -58 108 -120 -84 -75 -52 -74 -64 hvcurveto
          70 328 -72 callsubr
          hintmask 01111000
          -155 -730 rlineto
          31 hlineto
          23 106 rlineto
          hintmask 10111000
          -62 24 58 -54 87 hhcurveto
          1 32 rmoveto
          -80 -67 50 77 -11 hvcurveto
          43 210 rlineto
          73 61 71 64 86 hhcurveto
          102 56 -89 -97 -145 -127 -143 -134 hvcurveto
          endchar
        </CharString>
        <CharString name="backslash">
          -122 6 callgsubr
          105 710 rmoveto
          263 -710 rlineto
          40 hlineto
          -262 -7 callgsubr
          endchar
        </CharString>
        <CharString name="bar">
          -354 -109 -21 905 -20 hstem
          121 32 vstem
          153 -130 rmoveto
          905 -32 -905 vlineto
          endchar
        </CharString>
        <CharString name="braceleft">
          44 callgsubr
          264 709 rmoveto
          7 31 rlineto
          -63 hlineto
          -6 -17 -4 -26 -5 hvcurveto
          -61 -287 rlineto
          -11 -2 -12 -36 -27 hhcurveto
          -6 -30 rlineto
          16 -2 7 -14 -16 vvcurveto
          -6 -1 -6 -1 -5 vhcurveto
          -64 -298 rlineto
          -1 -4 0 -4 -3 vvcurveto
          -14 8 -5 8 vhcurveto
          63 hlineto
          7 31 rlineto
          -53 hlineto
          64 302 rlineto
          1 4 1 8 9 vvcurveto
          13 -2 14 -9 10 vhcurveto
          24 19 8 29 2 10 62 291 rcurveline
          endchar
        </CharString>
        <CharString name="braceright">
          44 callgsubr
          189 709 rmoveto
          -63 -291 rlineto
          -1 -4 -1 -8 -9 vvcurveto
          -12 3 -14 9 -11 vhcurveto
          -23 -18 -10 -31 -1 -9 -65 -302 rcurveline
          -52 hlineto
          -6 -31 rlineto
          62 hlineto
          11 13 8 22 5 hvcurveto
          63 298 5 23 13 23 24 3 rlinecurve
          6 30 rlineto
          -18 -5 17 14 6 1 7 1 3 hvcurveto
          61 287 rlineto
          1 3 0 3 3 vvcurveto
          18 -12 3 -5 vhcurveto
          -62 hlineto
          -6 -31 rlineto
          endchar
        </CharString>
        <CharString name="bracketleft">
          -392 -19 -21 52 -21 749 -20 hstem
          103 -40 rmoveto
          6 31 rlineto
          -50 hlineto
          153 718 rlineto
          49 hlineto
          7 31 rlineto
          -82 hlineto
          -166 -780 rlineto
          endchar
        </CharString>
        <CharString name="bracketright">
          -393 -19 -21 52 -21 749 -20 hstem
          61 -40 rmoveto
          165 780 rlineto
          -81 hlineto
          -7 -31 rlineto
          49 hlineto
          -153 -718 rlineto
          -49 hlineto
          -6 -31 rlineto
          endchar
        </CharString>
        <CharString name="breve">
          -372 646 19 callgsubr
          50 26 vstem
          117 668 -104 callsubr
        </CharString>
        <CharString name="brokenbar">
          -360 -109 -21 905 -20 hstem
          118 32 vstem
          118 283 rmoveto
          -413 32 413 vlineto
          -32 492 rmoveto
          -413 32 413 vlineto
          endchar
        </CharString>
        <CharString name="bullet">
          -284 262 163 hstem
          95 160 vstem
          255 358 rmoveto
          37 -25 30 -37 -48 -50 -45 -51 -38 26 -29 37 49 48 44 52 vhcurveto
          endchar
        </CharString>
        <CharString name="c">
          -101 -42 callgsubr
          hstem
          29 35 vstem
          220 -10 -91 callgsubr
          endchar
        </CharString>
        <CharString name="c_t">
          184 -10 32 -6 -21 501 32 -8 -20 226 25 hstemhm
          28 35 370 24 101 36 80 35 hintmask 1010111110000000
          218 -10 rmoveto
          77 102 43 82 44 hvcurveto
          -30 10 rlineto
          -63 -31 -96 -40 -59 hhcurveto
          -98 -64 88 105 127 111 154 144 70 54 -29 -69 21 hvcurveto
          34 12 rlineto
          -6 29 -34 85 65 vvcurveto
          69 45 68 83 69 20 -33 -49 vhcurveto
          hintmask 0101111110000000
          -35 -11 -44 -9 -45 vhcurveto
          -56 callgsubr
          -87 -409 rlineto
          -1 -7 -1 -7 -6 vvcurveto
          -41 32 -25 43 42 27 12 17 35 vhcurveto
          -6 28 rlineto
          -13 -24 -29 -12 -31 hhcurveto
          -29 -24 17 32 3 0 4 1 3 hvcurveto
          86 404 rlineto
          117 -20 callsubr
          -116 hlineto
          10 53 11 47 37 vvcurveto
          60 -26 34 -87 -99 -64 -78 -86 -40 13 -38 11 -27 vhcurveto
          hintmask 1010111110000000
          29 -28 -41 17 -62 hhcurveto
          -161 -137 -162 -155 -115 70 -106 120 hvcurveto
          endchar
        </CharString>
        <CharString name="cacute">
          -101 -44 callsubr
          29 35 vstem
          431 730 -88 callgsubr
          -112 -648 -91 callgsubr
          endchar
        </CharString>
        <CharString name="caron">
          -322 -15 callgsubr
          127 638 -89 callsubr
          endchar
        </CharString>
        <CharString name="caron.alt">
          -423 -15 callgsubr
          65 -35 callgsubr
          endchar
        </CharString>
        <CharString name="ccaron">
          -101 -44 callsubr
          29 35 vstem
          342 638 -89 callsubr
          -49 -726 -91 callgsubr
          endchar
        </CharString>
        <CharString name="ccedilla">
          -101 13 callgsubr
          39 -42 callsubr
          hstem
          29 35 202 24 vstem
          106 -147 rmoveto
          -77 callgsubr
          35 45 86 4 89 51 38 70 rlinecurve
          -32 10 rlineto
          -55 -26 -87 -48 -73 hhcurveto
          -95 -65 86 107 152 128 129 132 68 53 -37 -61 18 hvcurveto
          36 12 rlineto
          73 -18 -61 45 -87 hhcurveto
          -159 -145 -147 -171 -116 68 -94 105 -9 hvcurveto
          -56 -75 -78 callgsubr
          endchar
        </CharString>
        <CharString name="ccircumflex">
          -101 -44 callsubr
          29 35 vstem
          282 638 -98 callsubr
          -43 -663 -91 callgsubr
          endchar
        </CharString>
        <CharString name="cdotaccent">
          -101 -44 callsubr
          29 35 vstem
          220 -10 -91 callgsubr
          157 657 -66 callsubr
          endchar
        </CharString>
        <CharString name="cedilla">
          -370 13 callgsubr
          62 -20 hstem
          150 24 vstem
          -10 -147 rmoveto
          -77 callgsubr
          44 56 -19 12 -73 -97 -78 callgsubr
          endchar
        </CharString>
        <CharString name="cent">
          -91 -99 -21 110 32 473 33 117 -20 hstem
          30 35 vstem
          199 -120 rmoveto
          24 110 rlineto
          71 105 42 83 45 hvcurveto
          -32 10 -28 -62 -97 -40 -57 -1 rlinecurve
          101 474 64 -3 49 -30 20 -65 rlinecurve
          36 12 -19 68 -47 47 -97 3 rlinecurve
          25 117 rlineto
          -24 hlineto
          -25 -117 rlineto
          -154 -11 -129 -156 -151 vvcurveto
          -107 62 -103 107 -9 vhcurveto
          -24 -111 rlineto
          -110 334 rmoveto
          122 102 150 139 9 vhcurveto
          -100 -471 rlineto
          -87 9 -54 85 96 vvcurveto
          endchar
        </CharString>
        <CharString name="circumflex">
          -322 -15 callgsubr
          70 638 -64 callsubr
        </CharString>
        <CharString name="colon">
          -454 21 -21 517 -20 hstem
          127 443 rmoveto
          11 callsubr
          -63 -443 rmoveto
          15 74 rlineto
          -30 hlineto
          -16 -74 rlineto
          endchar
        </CharString>
        <CharString name="colonmonetary">
          -99 -99 -21 131 -21 538 -20 137 -20 hstem
          29 34 vstem
          133 -120 rmoveto
          24 hlineto
          24 114 rlineto
          -3 13 14 -1 13 hhcurveto
          8 8 0 2 8 hvcurveto
          -23 -112 rlineto
          24 hlineto
          25 116 71 15 68 46 32 58 rlinecurve
          -32 10 rlineto
          -55 -26 -88 -48 -72 hhcurveto
          -95 -66 86 107 152 129 129 132 68 53 -37 -61 17 hvcurveto
          37 12 -15 58 -42 40 -60 14 rlinecurve
          27 123 rlineto
          -25 hlineto
          -26 -119 rlineto
          1 -8 -8 1 -9 hhcurveto
          -13 -13 -1 -2 -13 hvcurveto
          26 120 rlineto
          -24 hlineto
          -27 -125 rlineto
          -132 -33 -108 -130 -147 vvcurveto
          -99 49 -82 80 -29 vhcurveto
          endchar
        </CharString>
        <CharString name="comma">
          -371 -60 -21 96 -21 80 -20 hstem
          44 -81 rmoveto
          31 75 17 80 rlineto
          -36 hlineto
          -17 -80 rlineto
          13 hlineto
          -28 -75 rlineto
          endchar
        </CharString>
        <CharString name="commaaccent">
          -493 -155 -21 126 -20 hstem
          35 -90 callsubr
          endchar
        </CharString>
        <CharString name="copyright">
          221 -7 24 109 31 398 32 104 24 hstem
          67 25 122 35 519 25 vstem
          -33 callsubr
          1 24 rmoveto
          -196 -143 144 193 194 144 143 195 194 143 -143 -196 -199 -147 -136 -190 hvcurveto
          6 109 rmoveto
          96 70 70 39 12 hvcurveto
          -32 9 rlineto
          -54 -24 -70 -33 -56 hhcurveto
          -81 -103 72 126 93 56 107 125 42 72 -13 -69 30 hvcurveto
          32 11 rlineto
          69 -27 -71 34 -78 hhcurveto
          -149 -67 -124 -108 -144 116 -85 107 hvcurveto
          endchar
        </CharString>
        <CharString name="currency">
          -64 152 -21 25 27 305 28 23 -20 hstem
          105 31 292 31 vstem
          96 539 rmoveto
          -20 -20 69 -68 rlineto
          -25 -32 -15 -40 -44 vvcurveto
          -44 15 -40 27 -32 vhcurveto
          -71 -69 19 -19 70 69 rlineto
          -27 31 40 -17 45 hhcurveto
          47 40 18 28 31 hvcurveto
          73 -71 19 19 -73 71 rlineto
          26 32 15 40 42 vvcurveto
          43 -15 39 -24 32 vhcurveto
          71 70 -20 20 -70 -70 rlineto
          29 -31 -42 18 -47 hhcurveto
          -45 -41 -17 -28 -31 hvcurveto
          -28 -137 rmoveto
          86 67 68 78 80 67 -67 -85 -83 -67 -70 -80 -79 -66 68 83 vhcurveto
          endchar
        </CharString>
        <CharString name="d">
          -33 -10 32 -1 -39 callgsubr
          -2 callgsubr
          hstemhm
          29 35 hintmask 10111000
          216 -10 rmoveto
          -69 callgsubr
          hintmask 01111000
          -1 4 5 0 7 -8 callsubr
          9 2 0 4 1 4 hvcurveto
          144 674 rlineto
          -35 hlineto
          -69 -328 rlineto
          68 -25 -58 58 -87 hhcurveto
          -152 -140 -157 -161 hvcurveto
          hintmask 10111000
          -83 callgsubr
        </CharString>
        <CharString name="d.alt">
          -36 -10 32 -1 -39 callgsubr
          -2 callgsubr
          hstemhm
          29 35 hintmask 10111000
          216 -10 rmoveto
          74 83 47 68 54 hvcurveto
          hintmask 01111000
          -22 -105 -25 callsubr
          155 730 -72 callsubr
          -69 -328 rlineto
          68 -30 -53 58 -88 hhcurveto
          -151 -140 -157 -161 hvcurveto
          hintmask 10111000
          -5 callsubr
          vhcurveto
          11 32 rmoveto
          -98 -65 88 105 132 116 149 139 77 75 -65 -80 9 hvcurveto
          -50 callsubr
          -81 -22 -120 -69 -73 hhcurveto
          endchar
        </CharString>
        <CharString name="dagger">
          -249 -109 -21 385 32 488 -20 hstem
          110 -130 rmoveto
          81 385 rlineto
          125 hlineto
          7 32 rlineto
          -124 hlineto
          104 488 rlineto
          -33 hlineto
          -104 -488 rlineto
          -126 hlineto
          -7 -32 rlineto
          125 hlineto
          -81 -385 rlineto
          endchar
        </CharString>
        <CharString name="daggerdbl">
          -243 -109 -21 319 32 110 33 411 -20 hstem
          113 -130 rmoveto
          67 319 rlineto
          125 hlineto
          7 32 rlineto
          -124 hlineto
          23 110 rlineto
          124 hlineto
          8 33 rlineto
          -125 hlineto
          87 411 rlineto
          -33 hlineto
          -87 -411 rlineto
          -125 hlineto
          -7 -33 rlineto
          125 hlineto
          -23 -110 rlineto
          -126 hlineto
          -7 -32 rlineto
          125 hlineto
          -67 -319 rlineto
          endchar
        </CharString>
        <CharString name="dcaron">
          -33 -10 32 -1 -39 callgsubr
          -2 callgsubr
          hstemhm
          29 35 hintmask 10111000
          642 -35 callgsubr
          -405 -661 rmoveto
          -69 callgsubr
          hintmask 01111000
          -1 4 5 0 7 -8 callsubr
          9 2 0 4 1 4 hvcurveto
          144 674 rlineto
          -35 hlineto
          -69 -328 rlineto
          68 -25 -58 58 -87 hhcurveto
          -152 -140 -157 -161 hvcurveto
          hintmask 10111000
          -83 callgsubr
        </CharString>
        <CharString name="dcroat">
          -33 -10 32 -1 -39 callgsubr
          98 28 76 -20 hstemhm
          29 35 hintmask 10111100
          426 626 rmoveto
          112 hlineto
          -47 -224 rlineto
          68 -25 -58 58 -87 hhcurveto
          -152 -140 -157 -161 -5 callsubr
          -69 callgsubr
          hintmask 01111100
          -1 4 5 0 7 -8 callsubr
          9 2 0 4 1 4 hvcurveto
          122 570 rlineto
          73 hlineto
          5 28 rlineto
          -72 hlineto
          16 76 rlineto
          -35 hlineto
          -16 -76 rlineto
          -112 hlineto
          hintmask 10111100
          -205 -632 rmoveto
          -98 -65 88 105 133 116 148 139 77 73 -65 -80 11 hvcurveto
          -50 callsubr
          -81 -24 -118 -69 -73 hhcurveto
          endchar
        </CharString>
        <CharString name="ddotbelow">
          -33 7 callsubr
          128 32 -1 -39 callgsubr
          -2 callgsubr
          hstemhm
          29 35 hintmask 11011100
          212 -47 callsubr
          36 128 rmoveto
          -69 callgsubr
          hintmask 10111100
          -1 4 5 0 7 -8 callsubr
          9 2 0 4 1 4 hvcurveto
          144 674 rlineto
          -35 hlineto
          -69 -328 rlineto
          68 -25 -58 58 -87 hhcurveto
          -152 -140 -157 -161 hvcurveto
          hintmask 11011100
          -83 callgsubr
        </CharString>
        <CharString name="degree">
          -369 578 25 93 28 hstem
          124 28 91 25 vstem
          180 578 rmoveto
          45 43 40 46 34 -23 26 -33 -48 -40 -45 -44 -33 23 -24 33 hvcurveto
          6 25 rmoveto
          -22 -12 17 22 30 26 24 28 22 15 -12 -24 -31 -32 -26 -25 hvcurveto
          endchar
        </CharString>
        <CharString name="dieresis">
          -364 647 82 hstem
          78 647 -66 callgsubr
        </CharString>
        <CharString name="divide">
          -73 108 -21 172 31 171 -20 hstem
          250 32 vstem
          282 389 rmoveto
          72 -32 -72 vlineto
          32 -302 rmoveto
          71 -32 -71 vlineto
          218 172 rmoveto
          31 -403 -31 vlineto
          endchar
        </CharString>
        <CharString name="dollar">
          -28 -75 -21 91 30 657 32 101 -20 hstem
          110 37 343 38 vstem
          581 631 rmoveto
          -40 57 -58 26 -84 1 22 100 rcurveline
          -25 hlineto
          -22 -101 rlineto
          -154 -6 -110 -85 -137 vvcurveto
          -88 69 -30 118 -27 vhcurveto
          -68 -316 -90 5 -66 35 -44 63 rlinecurve
          -26 -25 53 -68 71 -35 95 -4 rlinecurve
          -20 -92 rlineto
          25 hlineto
          19 91 rlineto
          166 1 116 78 138 vvcurveto
          96 -81 34 -123 28 vhcurveto
          67 313 78 -1 51 -21 37 -56 rlinecurve
          -67 -402 rmoveto
          -116 -93 -62 -147 vhcurveto
          67 312 rlineto
          114 -28 59 -32 -74 vvcurveto
          -343 293 rmoveto
          101 65 79 157 6 vhcurveto
          -65 -307 rlineto
          -106 26 -51 25 70 vvcurveto
          endchar
        </CharString>
        <CharString name="dotaccent">
          -492 668 -21 83 -20 hstem
          75 647 -66 callsubr
          endchar
        </CharString>
        <CharString name="dotbelow">
          -491 7 callsubr
          83 -20 hstem
          51 -47 callsubr
          endchar
        </CharString>
        <CharString name="dotlessi">
          18 callgsubr
          15 hmoveto
          -63 callgsubr
          endchar
        </CharString>
        <CharString name="dotlessj">
          -173 32 661 -46 callgsubr
          endchar
        </CharString>
        <CharString name="e">
          -63 callsubr
          -95 callsubr
          endchar
        </CharString>
        <CharString name="eacute">
          -29 callgsubr
          432 730 -88 callgsubr
          -111 -648 -107 callgsubr
          endchar
        </CharString>
        <CharString name="ebreve">
          -63 callsubr
          118 19 callgsubr
          29 35 231 26 138 -100 callsubr
          32 170 -104 callsubr
        </CharString>
        <CharString name="ecaron">
          -29 callgsubr
          340 638 -89 callsubr
          -45 -726 -107 callgsubr
          endchar
        </CharString>
        <CharString name="ecircumflex">
          -29 callgsubr
          285 638 -98 callsubr
          -44 -663 -107 callgsubr
          endchar
        </CharString>
        <CharString name="edblgrave">
          -63 callsubr
          -30 232 hstemhm
          13 callsubr
          hintmask 11011100
          403 638 -87 callgsubr
          -20 -740 rmoveto
          91 92 53 79 46 hvcurveto
          -30 9 rlineto
          -68 -38 -82 -44 -71 hhcurveto
          -110 -56 88 104 12 1 13 2 13 hvcurveto
          -4 62 49 -1 47 hhcurveto
          179 88 50 96 hvcurveto
          hintmask 11101100
          91 -82 47 -75 -174 -132 -158 -160 -121 71 -99 122 vhcurveto
          108 508 rmoveto
          59 70 -32 -75 -69 -60 -49 -171 -46 -48 1 4 -61 hvcurveto
          113 29 100 107 128 hhcurveto
          endchar
        </CharString>
        <CharString name="edieresis">
          -63 callsubr
          119 82 5 callsubr
          314 647 -93 callgsubr
          -181 -657 -107 callgsubr
          endchar
        </CharString>
        <CharString name="edotaccent">
          -93 -10 29 225 29 225 30 202 -20 -95 callsubr
          48 149 -66 callsubr
          endchar
        </CharString>
        <CharString name="edotbelow">
          -93 7 callsubr
          128 29 225 29 225 30 -95 callsubr
          -122 -636 -82 callsubr
          endchar
        </CharString>
        <CharString name="egrave">
          -93 -10 29 225 29 225 30 202 -20 -95 callsubr
          50 140 -77 callsubr
        </CharString>
        <CharString name="eight">
          9 callgsubr
          212 -7 rmoveto
          138 140 92 138 76 -48 59 -66 23 hvcurveto
          -29 callsubr
          vhcurveto
          10 30 rmoveto
          27 callsubr
          -119 -130 -79 -104 hvcurveto
          78 372 rmoveto
          -70 -73 43 76 29 callsubr
          hvcurveto
          endchar
        </CharString>
        <CharString name="eight.denominator">
          -247 42 callsubr
          144 25 hstemhm
          -3 -21 callgsubr
          hintmask 11111100
          119 -4 -36 callgsubr
          hintmask 11111010
          -85 callgsubr
          hintmask 11111100
          -70 callgsubr
          hintmask 11111010
          -16 callgsubr
          endchar
        </CharString>
        <CharString name="eight.lnum">
          9 callgsubr
          490 223 rmoveto
          76 -48 59 -66 23 vhcurveto
          -29 callsubr
          138 140 92 138 vhcurveto
          -34 -2 rmoveto
          -119 -130 -79 -104 27 callsubr
          vhcurveto
          -299 293 rmoveto
          29 callsubr
          -70 -73 43 76 vhcurveto
          endchar
        </CharString>
        <CharString name="eight.numerator">
          -246 338 26 174 23 144 25 hstemhm
          70 28 27 28 184 27 -3 27 hintmask 11111100
          364 464 rmoveto
          42 -30 31 -42 14 vhcurveto
          hintmask 11111010
          51 15 45 34 49 vvcurveto
          52 -53 29 -58 -69 -83 -40 -68 -34 28 -25 33 21 callgsubr
          87 85 22 callgsubr
          75 40 63 50 51 -28 -48 vhcurveto
          -184 161 rmoveto
          50 60 43 callsubr
          -68 -31 -52 -43 -45 23 39 hvcurveto
          endchar
        </CharString>
        <CharString name="eightinferior">
          -247 -84 25 175 23 144 25 hstemhm
          -20 -21 callgsubr
          hintmask 11111100
          274 41 rmoveto
          42 -30 32 -43 13 vhcurveto
          hintmask 11111010
          51 16 47 33 49 vvcurveto
          52 -54 30 -58 -69 -83 -40 -68 -34 27 -26 33 -12 vhcurveto
          -54 -15 -61 -41 -60 vvcurveto
          -52 45 -44 77 vhcurveto
          hintmask 11111100
          87 85 50 75 hvcurveto
          -27 -1 rmoveto
          -60 -75 -39 -62 -50 -52 28 47 59 75 41 62 50 52 -29 -47 vhcurveto
          -184 161 rmoveto
          49 60 33 58 vhcurveto
          hintmask 11111010
          48 42 -23 -39 -52 -68 -30 -52 -43 -45 23 39 hvcurveto
          endchar
        </CharString>
        <CharString name="eightsuperior">
          -246 418 26 174 23 144 25 hstemhm
          87 28 27 27 185 27 -3 27 hintmask 11111100
          381 544 rmoveto
          42 -30 31 -42 14 vhcurveto
          hintmask 11111010
          50 15 46 34 49 vvcurveto
          52 -54 29 -57 -69 -83 -40 -68 -34 27 -25 34 21 callgsubr
          86 86 22 callgsubr
          74 40 64 50 51 -28 -48 vhcurveto
          -185 161 rmoveto
          50 61 43 callsubr
          -69 -31 -52 -42 -46 23 39 hvcurveto
          endchar
        </CharString>
        <CharString name="einvertedbreve">
          -63 callsubr
          180 22 5 callsubr
          284 646 -103 callsubr
          -62 -656 -107 callgsubr
          endchar
        </CharString>
        <CharString name="ellipsis">
          -245 0 74 hstem
          37 hmoveto
          11 callsubr
          134 hmoveto
          15 74 rlineto
          -30 hlineto
          -16 -74 rlineto
          133 hmoveto
          11 callsubr
          endchar
        </CharString>
        <CharString name="emacron">
          -63 callsubr
          151 28 -95 callsubr
          172 181 -68 callgsubr
          endchar
        </CharString>
        <CharString name="emdash">
          227 255 33 hstem
          769 255 rmoveto
          6 33 rlineto
          -712 hlineto
          -6 -33 rlineto
          endchar
        </CharString>
        <CharString name="emspace">
          246 endchar
        </CharString>
        <CharString name="endash">
          8 callsubr
        </CharString>
        <CharString name="eng">
          -72 -173 32 162 37 callgsubr
          448 36 hintmask 11101000
          239 38 callsubr
          18 hvcurveto
          69 326 rlineto
          8 41 5 36 31 vvcurveto
          84 -34 42 -76 -88 -99 -56 -82 -57 vhcurveto
          hintmask 11011000
          -34 callsubr
          -110 -520 rlineto
          -46 callsubr
          hintmask 11101000
          98 47 106 73 89 hhcurveto
          59 29 -34 -72 -27 -4 -34 -8 -39 hvcurveto
          -69 -323 rlineto
          -61 -13 -62 -47 -49 hhcurveto
          -26 -27 5 20 -17 hvcurveto
          -26 -22 rlineto
          -26 21 33 -9 38 hhcurveto
          endchar
        </CharString>
        <CharString name="enspace">
          -78 endchar
        </CharString>
        <CharString name="eogonek">
          -93 -151 -21 163 28 225 29 225 30 hstem
          29 35 56 27 312 33 vstem
          164 21 callsubr
          75 46 vhcurveto
          84 8 81 50 42 73 -30 9 rcurveline
          -68 -38 -82 -44 -71 hhcurveto
          -110 -56 88 104 12 1 13 2 13 hvcurveto
          -4 62 49 -1 47 hhcurveto
          179 88 50 96 91 -82 47 -75 -174 -132 -158 -160 -117 66 -95 113 -7 hvcurveto
          -64 -44 -24 -30 -21 callsubr
          166 670 rmoveto
          59 70 -32 -75 -69 -60 -49 -171 -46 -48 1 4 -61 hvcurveto
          113 29 100 107 128 hhcurveto
          endchar
        </CharString>
        <CharString name="equal">
          -160 220 29 54 29 hstem
          371 220 rmoveto
          29 -296 -29 vlineto
          296 83 rmoveto
          29 -296 -29 vlineto
          endchar
        </CharString>
        <CharString name="estimated">
          -2 -10 23 242 24 229 23 hstem
          42 79 370 78 vstem
          305 13 rmoveto
          -75 -66 36 56 -43 hvcurveto
          150 448 vlineto
          152 -108 124 -156 -155 -108 -125 -146 -145 106 -125 157 100 68 36 47 47 vhcurveto
          -16 18 rlineto
          -44 -38 -69 -34 -92 hhcurveto
          495 vmoveto
          72 70 -37 -58 44 hvcurveto
          -134 -370 135 vlineto
          57 43 66 37 75 hhcurveto
          endchar
        </CharString>
        <CharString name="eth">
          -47 -10 32 422 31 255 -20 hstemhm
          25 35 420 49 -32 32 hintmask 11110100
          530 713 rmoveto
          -103 -62 -24 27 -29 27 -34 25 rlinecurve
          -48 hlineto
          45 -31 35 -32 28 -31 -125 -73 rcurveline
          9 -19 130 77 62 -75 19 -75 2 -72 rlinecurve
          -21 0 -20 -2 -20 vhcurveto
          80 -16 -69 57 -94 hhcurveto
          -144 -147 -134 -151 -110 77 -90 114 150 163 145 235 85 -22 95 -67 85 hvcurveto
          100 59 rlineto
          -480 -500 rmoveto
          132 128 118 126 vhcurveto
          hintmask 11111000
          97 69 -74 -92 -131 -130 -125 -127 -97 -66 76 96 hvcurveto
          endchar
        </CharString>
        <CharString name="etilde">
          -63 callsubr
          128 -52 callsubr
          13 callsubr
          hintmask 11110111
          -103 callgsubr
          84 158 -88 callsubr
          hintmask 11111011
          -97 callgsubr
        </CharString>
        <CharString name="exclam">
          -387 21 -21 717 -20 hstem
          113 208 rmoveto
          107 509 rlineto
          -33 hlineto
          -108 -509 rlineto
          -11 -208 rmoveto
          24 92 rlineto
          -38 hlineto
          -19 -92 rlineto
          endchar
        </CharString>
        <CharString name="exclamdown">
          -387 20 -21 717 -20 hstem
          142 508 rmoveto
          -108 -509 -25 callsubr
          108 509 rlineto
          10 208 rmoveto
          -23 -92 rlineto
          38 hlineto
          19 92 rlineto
          endchar
        </CharString>
        <CharString name="f">
          -317 -192 -21 703 30 189 31 hstem
          -13 40 callgsubr
          149 703 rlineto
          144 -20 callsubr
          -143 hlineto
          4 19 rlineto
          110 22 52 60 68 hhcurveto
          28 27 -10 -15 13 hvcurveto
          21 22 rlineto
          20 -16 -34 14 -37 hhcurveto
          -84 -69 -75 -126 -25 hvcurveto
          -4 -19 -34 callgsubr
          endchar
        </CharString>
        <CharString name="f_f">
          -86 -23 callgsubr
          170 -20 callsubr
          -169 hlineto
          4 19 rlineto
          77 15 53 92 98 hhcurveto
          44 11 -16 -8 6 hvcurveto
          21 22 rlineto
          7 -4 -14 27 -63 hhcurveto
          -59 -42 -26 -40 -35 hvcurveto
          12 -15 -33 14 -44 hhcurveto
          -103 -59 -88 -83 -17 hvcurveto
          -2 -9 -34 callgsubr
          41 30 rmoveto
          2 9 rlineto
          57 14 39 35 callgsubr
          -16 -36 -11 -57 rrcurveto
          endchar
        </CharString>
        <CharString name="f_f_i">
          32 -23 callgsubr
          204 hlineto
          -104 -490 -25 callsubr
          111 520 rlineto
          -238 hlineto
          4 19 rlineto
          78 15 54 91 99 hhcurveto
          41 41 -15 -14 10 hvcurveto
          25 23 rlineto
          7 -7 -43 31 -64 hhcurveto
          -60 -45 -26 -40 -35 hvcurveto
          12 -15 -33 14 -43 hhcurveto
          -104 -60 -90 -82 -17 hvcurveto
          -1 -8 -34 callgsubr
          41 30 rmoveto
          1 9 rlineto
          57 12 42 35 callgsubr
          -15 -43 -12 -50 rrcurveto
          endchar
        </CharString>
        <CharString name="f_f_l">
          106 -5 31 -5 -21 490 30 149 31 8 32 hstemhm
          638 35 hintmask 10111100
          592 -5 rmoveto
          30 41 9 2 2 hvcurveto
          -3 30 rlineto
          -2 -35 -10 -21 hhcurveto
          -33 -13 24 23 5 1 6 1 5 hvcurveto
          110 516 rlineto
          2 11 1 11 9 vvcurveto
          60 -41 44 -80 -59 -45 -25 -40 -33 vhcurveto
          11 -15 -23 14 -46 hhcurveto
          -100 -65 -76 -96 -22 hvcurveto
          -1 -8 -34 callgsubr
          hintmask 01111100
          -26 callsubr
          175 hlineto
          -26 callsubr
          113 hlineto
          7 30 rlineto
          -113 hlineto
          3 17 rlineto
          84 17 50 87 93 hhcurveto
          61 28 -36 -45 -9 -1 -9 -2 -8 hvcurveto
          -110 -515 rlineto
          -3 -10 0 -9 -8 vvcurveto
          hintmask 10111100
          -37 21 -27 49 vhcurveto
          -415 525 rmoveto
          1 8 rlineto
          68 15 48 73 88 hhcurveto
          22 28 -4 -18 17 hvcurveto
          -19 -30 -14 -41 -12 -56 rrcurveto
          endchar
        </CharString>
        <CharString name="f_i">
          -172 21 -21 490 30 188 32 hstem
          32 hmoveto
          34 hlineto
          104 490 rlineto
          204 hlineto
          -104 -490 rlineto
          -57 callsubr
          -237 hlineto
          4 19 rlineto
          78 16 56 91 92 hhcurveto
          48 37 -14 -15 11 hvcurveto
          25 23 rlineto
          7 -6 -41 31 -68 hhcurveto
          -119 -68 -114 -87 -17 hvcurveto
          -4 -19 -34 callgsubr
          endchar
        </CharString>
        <CharString name="f_l">
          -102 -5 31 -5 -21 490 30 188 32 hstemhm
          430 35 hintmask 10111000
          380 -5 rmoveto
          36 40 9 2 1 hvcurveto
          -3 30 rlineto
          -1 -34 -10 -25 hhcurveto
          -31 -13 24 24 4 1 6 1 5 hvcurveto
          109 516 rlineto
          3 11 1 10 11 vvcurveto
          60 -41 43 -81 -108 -65 -89 -111 -23 vhcurveto
          -4 -20 -34 callgsubr
          hintmask 01111000
          -26 callsubr
          114 hlineto
          7 30 rlineto
          -114 hlineto
          4 18 rlineto
          84 16 54 86 85 hhcurveto
          69 25 -38 -42 -9 -1 -10 -2 -8 hvcurveto
          -110 -516 rlineto
          -3 -10 0 -8 -8 vvcurveto
          hintmask 10111000
          -36 22 -28 44 vhcurveto
          endchar
        </CharString>
        <CharString name="five">
          -95 -149 32 393 32 230 33 hstem
          405 35 vstem
          158 -149 rmoveto
          140 142 115 160 108 -73 74 -104 -63 -65 -27 -47 -30 callgsubr
          -135 -117 -102 33 callgsubr
          19 69 -58 95 hhcurveto
          endchar
        </CharString>
        <CharString name="five.denominator">
          -264 -5 25 201 24 116 27 hstem
          253 28 vstem
          106 -5 rmoveto
          89 86 61 87 60 -48 42 -68 -54 callgsubr
          endchar
        </CharString>
        <CharString name="five.lnum">
          -84 -10 32 393 32 230 33 hstem
          440 35 vstem
          193 -10 rmoveto
          140 142 115 160 107 -73 75 -104 -63 -65 -26 -48 -30 callgsubr
          -134 -117 -103 33 callgsubr
          20 68 -58 95 hhcurveto
          endchar
        </CharString>
        <CharString name="five.numerator">
          -264 337 25 201 24 117 26 hstem
          326 28 vstem
          237 587 -81 callsubr
          endchar
        </CharString>
        <CharString name="fiveeighths">
          159 42 callsubr
          118 25 1 25 175 24 117 26 hstemhm
          329 28 48 -21 callgsubr
          hintmask 1111111111000000
          240 587 -81 callsubr
          -178 -589 -74 callsubr
          483 -20 -36 callgsubr
          hintmask 1111111110100000
          -85 callgsubr
          hintmask 1111111111000000
          -70 callgsubr
          hintmask 1111111110100000
          -16 callgsubr
          endchar
        </CharString>
        <CharString name="fiveinferior">
          -264 -85 25 201 24 116 27 hstem
          236 28 vstem
          148 165 rmoveto
          -54 callgsubr
          89 86 61 87 60 -48 42 -68 hvcurveto
          endchar
        </CharString>
        <CharString name="fivesuperior">
          -264 417 25 201 24 117 26 hstem
          343 28 vstem
          254 667 -81 callsubr
          endchar
        </CharString>
        <CharString name="florin">
          -126 -173 32 570 30 250 31 hstem
          29 -173 rmoveto
          64 81 58 82 18 hvcurveto
          98 462 rlineto
          144 -20 callsubr
          -143 hlineto
          17 80 rlineto
          110 23 50 60 69 hhcurveto
          28 27 -10 -15 12 hvcurveto
          22 22 rlineto
          20 -16 -35 14 -36 hhcurveto
          -85 -67 -75 -126 -26 hvcurveto
          -17 -80 -34 callgsubr
          -98 -462 rlineto
          -61 -13 -62 -47 -50 hhcurveto
          -25 -28 5 20 -17 hvcurveto
          -25 -22 rlineto
          -26 20 33 -9 38 hhcurveto
          endchar
        </CharString>
        <CharString name="four">
          -111 -106 -21 193 32 473 -20 hstem
          269 -127 rmoveto
          34 hlineto
          41 193 rlineto
          84 hlineto
          6 32 rlineto
          -84 hlineto
          101 473 rlineto
          -23 hlineto
          -449 -476 -6 -29 rlineto
          337 hlineto
          -290 32 rmoveto
          387 416 -89 -416 rlineto
          endchar
        </CharString>
        <CharString name="four.denominator">
          -261 21 12 callsubr
          182 hmoveto
          -67 callgsubr
          endchar
        </CharString>
        <CharString name="four.lnum">
          -85 21 -21 205 32 473 -20 hstem
          351 hmoveto
          43 205 rlineto
          84 hlineto
          7 32 rlineto
          -84 hlineto
          101 473 rlineto
          -24 hlineto
          -465 -475 -7 -30 rlineto
          354 hlineto
          -43 -205 rlineto
          -263 237 rmoveto
          403 416 -88 -416 rlineto
          endchar
        </CharString>
        <CharString name="four.numerator">
          -260 363 12 callsubr
          282 342 -45 callgsubr
        </CharString>
        <CharString name="fourinferior">
          -261 -59 12 callsubr
          191 -80 rmoveto
          24 108 rlineto
          53 hlineto
          5 26 rlineto
          -53 hlineto
          54 254 rlineto
          -19 hlineto
          -282 -256 -5 -24 8 callgsubr
        </CharString>
        <CharString name="foursuperior">
          -260 443 12 callsubr
          299 422 -45 callgsubr
        </CharString>
        <CharString name="fraction">
          -488 19 -21 714 -20 hstem
          -253 -2 -74 callsubr
          endchar
        </CharString>
        <CharString name="franc">
          -24 21 -21 146 30 171 31 300 32 hstem
          88 hmoveto
          31 146 rlineto
          150 -20 callsubr
          -150 hlineto
          37 171 rlineto
          342 hlineto
          7 31 rlineto
          -342 hlineto
          63 300 -12 callsubr
          6 32 rlineto
          -436 hlineto
          -114 -534 rlineto
          -89 hlineto
          -6 -30 rlineto
          89 hlineto
          -31 -146 rlineto
          endchar
        </CharString>
        <CharString name="g">
          -51 callsubr
          hstemhm
          28 35 hintmask 11011000
          -3 callsubr
          hintmask 11101000
          -102 callgsubr
          endchar
        </CharString>
        <CharString name="gacute">
          -51 callsubr
          230 -20 hstemhm
          28 35 hintmask 11011100
          419 730 -88 callgsubr
          -154 -861 -75 callgsubr
          hintmask 11101100
          -102 callgsubr
          endchar
        </CharString>
        <CharString name="gbreve">
          -51 callsubr
          146 22 62 -20 hstemhm
          28 35 219 26 hintmask 11011111
          -3 callsubr
          hintmask 11101111
          -102 callgsubr
          123 646 -104 callsubr
        </CharString>
        <CharString name="gcircumflex">
          -51 callsubr
          230 -20 hstemhm
          28 35 hintmask 11011100
          272 638 -98 callsubr
          -87 -876 -75 callgsubr
          hintmask 11101100
          -102 callgsubr
          endchar
        </CharString>
        <CharString name="gcommaaccent">
          -51 callsubr
          233 -20 hstemhm
          28 35 hintmask 11011100
          366 733 rmoveto
          -29 -62 -14 -64 rlineto
          36 hlineto
          14 64 rlineto
          -12 hlineto
          25 62 rlineto
          -220 -956 -75 callgsubr
          hintmask 11101100
          -102 callgsubr
          endchar
        </CharString>
        <CharString name="gdotaccent">
          -51 callsubr
          230 -20 hstemhm
          28 35 hintmask 11011100
          -3 callsubr
          hintmask 11101100
          -102 callgsubr
          140 625 -66 callsubr
          endchar
        </CharString>
        <CharString name="germandbls">
          -93 -6 32 -5 -21 386 32 264 32 hstemhm
          431 35 -12 35 hintmask 10111000
          157 -6 rmoveto
          192 7 117 92 153 vvcurveto
          79 -42 60 -81 19 vhcurveto
          hintmask 01110100
          74 15 72 81 83 vvcurveto
          76 -57 55 -86 -106 -91 -82 -121 -26 vhcurveto
          -108 -511 rlineto
          33 hlineto
          107 508 rlineto
          104 22 71 70 90 hhcurveto
          69 47 -44 -65 -86 -78 -69 -89 hvcurveto
          -16 hlineto
          -7 -32 rlineto
          17 hlineto
          hintmask 10111000
          93 57 -58 -87 -133 -102 -79 -165 -3 hvcurveto
          endchar
        </CharString>
        <CharString name="grave">
          -422 -15 callgsubr
          118 638 -77 callsubr
        </CharString>
        <CharString name="greater">
          -76 18 -21 523 -20 hstem
          493 270 rmoveto
          -417 250 rlineto
          -37 vlineto
          368 -224 -368 -225 rlineto
          -37 vlineto
          417 250 rlineto
          endchar
        </CharString>
        <CharString name="greaterequal">
          -146 78 31 413 -20 hstem
          72 78 rmoveto
          307 31 -307 hlineto
          9 85 rmoveto
          298 152 rlineto
          24 vlineto
          -306 152 8 -35 249 -128 -249 -129 rlineto
          endchar
        </CharString>
        <CharString name="guillemotleft">
          -105 -19 callsubr
          173 -23 rmoveto
          192 -171 6 33 -167 150 231 150 8 33 -266 -172 rlineto
          endchar
        </CharString>
        <CharString name="guillemotright">
          -105 97 -21 366 -20 hstem
          464 270 rmoveto
          -192 172 -7 -33 167 -150 -231 -150 -6 -33 264 171 rlineto
          -173 23 -2 callsubr
        </CharString>
        <CharString name="guilsinglleft">
          -283 -19 callsubr
          endchar
        </CharString>
        <CharString name="guilsinglright">
          -283 97 -21 366 -20 hstem
          286 270 -2 callsubr
        </CharString>
        <CharString name="h">
          -72 21 -61 callgsubr
          endchar
        </CharString>
        <CharString name="hbar">
          -72 21 -39 callgsubr
          98 28 76 -20 hstem
          447 35 vstem
          78 626 rmoveto
          70 hlineto
          -133 -626 rlineto
          -75 callsubr
          50 236 rlineto
          115 hlineto
          5 28 rlineto
          -114 hlineto
          16 76 -72 callsubr
          -16 -76 rlineto
          -70 hlineto
          endchar
        </CharString>
        <CharString name="hcircumflex">
          -72 21 -39 callgsubr
          18 callsubr
          447 35 vstem
          302 638 rmoveto
          93 63 67 -63 24 15 -73 77 rlineto
          -25 hlineto
          -105 -77 rlineto
          -268 -653 rmoveto
          -75 callsubr
          72 340 -72 callsubr
          endchar
        </CharString>
        <CharString name="hdotbelow">
          -72 -117 -21 159 -61 callgsubr
          37 -868 -82 callsubr
          endchar
        </CharString>
        <CharString name="hungarumlaut">
          -326 -15 callgsubr
          157 730 -62 callgsubr
          endchar
        </CharString>
        <CharString name="hyphen">
          -214 255 33 hstem
          328 255 rmoveto
          7 33 rlineto
          -272 hlineto
          -6 -33 rlineto
          endchar
        </CharString>
        <CharString name="i">
          -44 callgsubr
          15 hmoveto
          -63 callgsubr
          27 126 rmoveto
          34 hlineto
          18 84 -72 callsubr
          endchar
        </CharString>
        <CharString name="iacute">
          -44 callgsubr
          264 730 -88 callgsubr
          -150 -638 rmoveto
          -63 callgsubr
          endchar
        </CharString>
        <CharString name="ibreve">
          -51 callgsubr
          146 19 callgsubr
          98 26 vstem
          15 hmoveto
          -63 callgsubr
          40 148 -104 callsubr
        </CharString>
        <CharString name="icircumflex">
          -44 callgsubr
          85 638 -98 callsubr
          -51 -653 rmoveto
          -63 callgsubr
          endchar
        </CharString>
        <CharString name="idblgrave">
          -44 callgsubr
          216 638 -87 callgsubr
          -40 -730 rmoveto
          -63 callgsubr
          endchar
        </CharString>
        <CharString name="idieresis">
          -51 callgsubr
          147 82 hstem
          123 647 -93 callgsubr
          -197 -647 rmoveto
          -63 callgsubr
          endchar
        </CharString>
        <CharString name="idotbelow">
          -117 -21 159 -9 callgsubr
          hstem
          15 hmoveto
          -63 callgsubr
          27 126 rmoveto
          34 hlineto
          18 84 -72 callsubr
          -152 -868 -82 callsubr
          endchar
        </CharString>
        <CharString name="igrave">
          -44 callgsubr
          15 hmoveto
          -63 callgsubr
          28 118 -77 callsubr
        </CharString>
        <CharString name="iinvertedbreve">
          -51 callgsubr
          208 22 hstem
          93 646 -103 callsubr
          -78 -646 rmoveto
          -63 callgsubr
          endchar
        </CharString>
        <CharString name="ij">
          -228 -173 32 162 -62 callsubr
          146 84 hstem
          15 hmoveto
          -63 callgsubr
          27 126 rmoveto
          34 hlineto
          18 84 -72 callsubr
          -93 -903 -93 callsubr
          endchar
        </CharString>
        <CharString name="imacron">
          -51 callgsubr
          179 28 hstem
          15 hmoveto
          -63 callgsubr
          176 159 -68 callgsubr
          endchar
        </CharString>
        <CharString name="infinity">
          81 186 30 271 30 hstem
          59 30 538 31 vstem
          211 517 rmoveto
          -87 -65 -74 -91 -91 67 -75 85 82 39 58 65 29 hvcurveto
          -65 29 40 -58 76 hhcurveto
          86 66 74 91 91 -59 75 -92 -80 -38 -58 -66 -30 hvcurveto
          66 -31 -38 58 -79 hhcurveto
          -301 vmoveto
          -58 -64 47 89 91 64 44 58 70 34 -63 -74 31 hvcurveto
          -72 -31 -35 -62 -69 hhcurveto
          296 hmoveto
          -68 -36 60 70 -30 hvcurveto
          75 29 33 65 72 hhcurveto
          58 62 -43 -91 -89 -62 -47 -58 hvcurveto
          endchar
        </CharString>
        <CharString name="integral">
          -347 -167 29 929 29 hstemhm
          104 32 -11 32 -10 31 hintmask 11010000
          145 -22 rmoveto
          hintmask 11101000
          2 -30 0 -4 -4 vvcurveto
          -52 -23 -26 -35 -17 -27 9 9 -21 vhcurveto
          -9 -26 rlineto
          -12 24 33 -9 24 hhcurveto
          50 32 36 63 3 0 4 -2 35 hvcurveto
          -38 701 rlineto
          -2 32 0 4 5 vvcurveto
          48 22 27 35 15 33 -9 -9 18 vhcurveto
          10 26 rlineto
          12 -24 -35 9 -24 hhcurveto
          -50 -32 -41 -55 -5 0 -5 2 -34 hvcurveto
          endchar
        </CharString>
        <CharString name="iogonek">
          -426 -143 -21 684 -20 230 -20 hstem
          -76 27 vstem
          -32 -164 29 callgsubr
          77 47 vhcurveto
          110 520 -72 callsubr
          -110 -519 rlineto
          -67 -45 -25 -30 -37 -50 callgsubr
          185 810 rmoveto
          34 hlineto
          18 84 -72 callsubr
          endchar
        </CharString>
        <CharString name="itilde">
          -51 callgsubr
          156 -52 callsubr
          hintmask 11101000
          15 hmoveto
          -63 callgsubr
          93 136 -88 callsubr
          hintmask 11110000
          -97 callgsubr
        </CharString>
        <CharString name="j">
          -419 -173 32 661 -20 230 -20 hstem
          -114 -173 -93 callsubr
          endchar
        </CharString>
        <CharString name="j.alt">
          -192 -21 931 -20 hstem
          -30 40 callgsubr
          155 730 -72 callsubr
          27 129 rmoveto
          34 hlineto
          16 72 -72 callsubr
          endchar
        </CharString>
        <CharString name="jcircumflex">
          -173 32 661 -20 230 -46 callgsubr
          202 811 -64 callsubr
        </CharString>
        <CharString name="k">
          -93 21 -21 501 30 199 -20 hstem
          477 34 vstem
          15 hmoveto
          -58 callgsubr
        </CharString>
        <CharString name="kcommaaccent">
          -93 34 callgsubr
          501 30 199 -20 hstem
          477 34 vstem
          158 -90 callsubr
          -123 176 rmoveto
          -58 callgsubr
        </CharString>
        <CharString name="kgreenlandic">
          -127 18 callgsubr
          15 hmoveto
          34 hlineto
          35 167 150 121 141 -288 rlineto
          38 hlineto
          -150 310 254 208 rlineto
          -41 hlineto
          -383 -311 66 313 -72 callsubr
          endchar
        </CharString>
        <CharString name="l">
          -382 -5 12 callgsubr
          99 -5 rmoveto
          21 35 6 7 21 hvcurveto
          -2 28 rlineto
          -6 -17 -23 -4 -14 hhcurveto
          -32 -19 17 29 6 1 5 1 6 hvcurveto
          137 641 -72 callsubr
          -138 -648 rlineto
          -2 -8 0 -8 -7 vvcurveto
          -39 25 -25 40 vhcurveto
          endchar
        </CharString>
        <CharString name="l.alt">
          -412 21 -21 730 -20 hstem
          22 hmoveto
          34 hlineto
          155 730 -72 callsubr
          endchar
        </CharString>
        <CharString name="lacute">
          -382 -5 31 704 -20 160 -20 hstem
          34 35 vstem
          292 870 -88 callgsubr
          -94 -783 rmoveto
          21 35 6 7 21 hvcurveto
          -2 28 rlineto
          -6 -17 -23 -4 -14 hhcurveto
          -32 -19 17 29 6 1 5 1 6 hvcurveto
          137 641 -72 callsubr
          -138 -648 rlineto
          -2 -8 0 -8 -7 vvcurveto
          -39 25 -25 40 vhcurveto
          endchar
        </CharString>
        <CharString name="lcaron">
          -390 -5 12 callgsubr
          265 -35 callgsubr
          -145 -656 rmoveto
          21 35 6 7 21 hvcurveto
          -2 28 rlineto
          -6 -17 -23 -4 -14 hhcurveto
          -32 -19 17 29 6 1 5 1 6 hvcurveto
          137 641 -72 callsubr
          -138 -648 rlineto
          -2 -8 0 -8 -7 vvcurveto
          -39 25 -25 40 vhcurveto
          endchar
        </CharString>
        <CharString name="lcommaaccent">
          -382 -155 -21 171 12 callgsubr
          58 -90 callsubr
          61 171 rmoveto
          21 35 6 7 21 hvcurveto
          -2 28 rlineto
          -6 -17 -23 -4 -14 hhcurveto
          -32 -19 17 29 6 1 5 1 6 hvcurveto
          137 641 -72 callsubr
          -138 -648 rlineto
          -2 -8 0 -8 -7 vvcurveto
          -39 25 -25 40 vhcurveto
          endchar
        </CharString>
        <CharString name="ldot">
          -361 -5 12 callgsubr
          99 -5 rmoveto
          21 35 6 7 21 hvcurveto
          -2 28 rlineto
          -6 -17 -23 -4 -14 hhcurveto
          -32 -19 17 29 6 1 5 1 6 hvcurveto
          137 641 -72 callsubr
          -138 -648 rlineto
          -2 -8 0 -8 -7 vvcurveto
          -39 25 -25 40 vhcurveto
          135 259 -27 callgsubr
        </CharString>
        <CharString name="less">
          -76 18 -21 523 -20 hstem
          31 247 rmoveto
          417 -250 rlineto
          37 vlineto
          -368 225 368 224 rlineto
          37 vlineto
          -417 -250 rlineto
          endchar
        </CharString>
        <CharString name="lessequal">
          -160 78 31 413 -20 hstem
          368 78 rmoveto
          31 -307 -31 vlineto
          268 vmoveto
          298 -152 rlineto
          36 vlineto
          -249 129 249 128 rlineto
          35 vlineto
          -298 -152 rlineto
          endchar
        </CharString>
        <CharString name="lira">
          -171 -15 32 -11 30 221 26 64 27 310 31 hstemhm
          124 34 13 33 hintmask 01111110
          56 347 rmoveto
          107 hlineto
          5 -20 3 -21 1 -23 rrcurveto
          -98 hlineto
          -5 -26 rlineto
          102 hlineto
          -4 -69 -35 -46 -139 -123 6 -26 rcurveline
          8 30 39 5 28 hhcurveto
          hintmask 10111110
          36 callsubr
          -4 29 rlineto
          -14 -40 -29 -6 -26 hhcurveto
          hintmask 01111110
          -48 -30 19 -56 hhcurveto
          -23 -25 -3 -5 -22 hvcurveto
          123 111 31 55 5 63 rrcurveto
          148 hlineto
          5 26 rlineto
          -152 hlineto
          -1 23 -2 21 -4 20 rrcurveto
          158 hlineto
          6 27 rlineto
          -171 hlineto
          -14 52 -19 44 52 vvcurveto
          88 79 74 78 55 45 -36 -59 18 vhcurveto
          28 21 rlineto
          64 -21 -52 41 -65 hhcurveto
          -99 -100 -91 -106 -52 19 -43 14 -49 hvcurveto
          -95 hlineto
          endchar
        </CharString>
        <CharString name="logicalnot">
          -72 157 -21 177 33 hstem
          92 346 rmoveto
          -7 -33 rlineto
          363 hlineto
          -38 -177 rlineto
          31 hlineto
          45 210 rlineto
          endchar
        </CharString>
        <CharString name="lozenge">
          -141 21 -21 730 -20 hstem
          233 730 rmoveto
          -186 -364 186 -366 rlineto
          38 hlineto
          186 366 -186 364 rlineto
          -14 -697 rmoveto
          -170 342 161 325 171 -346 rlineto
          endchar
        </CharString>
        <CharString name="lslash">
          -367 -5 31 704 -20 hstem
          49 36 vstem
          32 300 rmoveto
          80 64 -60 -282 rlineto
          -2 -8 -1 -8 -8 vvcurveto
          -39 25 -24 41 21 35 6 7 21 vhcurveto
          -2 28 rlineto
          -6 -18 -22 -4 -14 hhcurveto
          -32 -19 17 29 6 1 7 2 8 hvcurveto
          65 304 125 101 -13 21 -104 -84 63 295 -72 callsubr
          -70 -328 -100 -81 rlineto
          endchar
        </CharString>
        <CharString name="m">
          251 21 37 callgsubr
          430 37 304 37 hintmask 11011000
          15 hmoveto
          -46 callsubr
          102 49 85 69 86 hhcurveto
          62 30 -35 -74 -26 -4 -33 -8 -38 hvcurveto
          -61 -290 -25 callsubr
          68 324 rlineto
          102 48 86 70 86 hhcurveto
          62 30 -36 -75 -27 -4 -32 -7 -36 hvcurveto
          -61 -290 -25 callsubr
          62 294 rlineto
          8 40 5 35 29 vvcurveto
          85 -36 45 -78 -84 -91 -53 -98 -53 vhcurveto
          6 1 7 6 vvcurveto
          83 -44 49 -74 -78 -81 -51 -87 -60 vhcurveto
          hintmask 10111000
          -34 callsubr
          endchar
        </CharString>
        <CharString name="macron">
          -252 679 28 hstem
          322 679 -68 callgsubr
          endchar
        </CharString>
        <CharString name="minus">
          -69 263 30 hstem
          471 263 rmoveto
          30 -403 -30 vlineto
          endchar
        </CharString>
        <CharString name="mu">
          -33 26 callsubr
          -22 -71 callgsubr
        </CharString>
        <CharString name="multiply">
          -156 138 -21 309 -20 hstem
          246 271 rmoveto
          131 131 -22 24 -132 -132 -130 131 -24 -23 131 -131 -130 -130 22 -24 131 131 131 -131 24 23 rlineto
          endchar
        </CharString>
        <CharString name="n">
          -72 21 37 callgsubr
          448 36 hintmask 11010000
          15 hmoveto
          -46 callsubr
          -95 callgsubr
          hintmask 10110000
          -34 callsubr
          endchar
        </CharString>
        <CharString name="nacute">
          -47 callgsubr
          451 730 -88 callgsubr
          -337 -638 rmoveto
          -46 callsubr
          -95 callgsubr
          hintmask 10111000
          -34 callsubr
          endchar
        </CharString>
        <CharString name="napostrophe">
          -47 callgsubr
          -20 638 rmoveto
          99 92 rlineto
          -64 hlineto
          -7 -28 -49 -51 rlineto
          56 -651 rmoveto
          -46 callsubr
          -95 callgsubr
          hintmask 10111000
          -34 callsubr
          endchar
        </CharString>
        <CharString name="ncaron">
          -47 callgsubr
          332 638 -89 callsubr
          -244 -716 rmoveto
          -46 callsubr
          -95 callgsubr
          hintmask 10111000
          -34 callsubr
          endchar
        </CharString>
        <CharString name="ncommaaccent">
          -72 -155 -21 197 37 callgsubr
          448 36 hintmask 11101000
          181 -90 callsubr
          -146 176 rmoveto
          -46 callsubr
          -95 callgsubr
          hintmask 11011000
          -34 callsubr
          endchar
        </CharString>
        <CharString name="ndotaccent">
          -47 callgsubr
          368 647 -66 callsubr
          -320 -647 rmoveto
          -46 callsubr
          -95 callgsubr
          hintmask 10111000
          -34 callsubr
          endchar
        </CharString>
        <CharString name="nine">
          -51 -156 32 209 30 423 31 hstem
          38 34 413 34 vstem
          173 -156 rmoveto
          205 141 250 261 132 -75 82 -114 -149 -143 -132 -154 -111 74 -87 110 102 102 59 97 49 hvcurveto
          -218 -42 -115 -147 -138 hhcurveto
          -79 -57 51 77 -8 hvcurveto
          -30 -17 rlineto
          -88 12 64 -55 91 hhcurveto
          60 271 rmoveto
          -94 -67 79 96 133 125 115 125 96 67 -78 -97 -130 -126 -118 -126 hvcurveto
          endchar
        </CharString>
        <CharString name="nine.denominator">
          -234 -5 26 callgsubr
          24 41 callsubr
          117 -5 rmoveto
          125 85 123 148 77 -49 48 -74 -93 -87 -70 -84 -62 48 -49 72 58 59 31 47 29 hvcurveto
          3 callsubr
          36 155 rmoveto
          -59 -43 41 52 65 72 58 75 59 43 -42 -50 -66 -73 -58 -74 hvcurveto
          endchar
        </CharString>
        <CharString name="nine.lnum">
          -36 -10 32 208 31 423 31 hstem
          75 35 412 34 vstem
          75 429 rmoveto
          -111 74 -88 111 95 99 63 93 49 vhcurveto
          -231 -50 -111 -133 -126 hhcurveto
          -77 -58 51 76 -9 hvcurveto
          -29 -16 rlineto
          -88 12 65 -55 91 hhcurveto
          205 140 250 260 133 -75 82 -113 -149 -144 -132 -154 hvcurveto
          285 255 rmoveto
          95 67 -78 -97 -131 -127 -117 -124 -95 -66 78 97 132 125 116 125 hvcurveto
          endchar
        </CharString>
        <CharString name="nine.numerator">
          -234 334 26 callgsubr
          96 41 callsubr
          96 576 rmoveto
          -62 49 -49 71 58 60 32 46 28 vhcurveto
          -117 -26 -66 -67 -75 hhcurveto
          -49 -37 26 39 -7 hvcurveto
          -22 -15 rlineto
          -47 10 43 -28 56 hhcurveto
          125 85 123 149 77 -49 47 1 callsubr
          66 72 57 75 hvcurveto
          endchar
        </CharString>
        <CharString name="nineinferior">
          -234 -85 26 callgsubr
          7 41 callsubr
          7 157 rmoveto
          -62 48 -49 72 58 59 31 47 29 vhcurveto
          3 callsubr
          125 85 123 148 77 -49 48 1 callsubr
          65 72 58 75 hvcurveto
          endchar
        </CharString>
        <CharString name="ninesuperior">
          -235 414 26 callgsubr
          113 27 248 27 vstem
          113 656 rmoveto
          -62 49 -49 71 57 60 32 46 28 vhcurveto
          -117 -25 -66 -67 -76 hhcurveto
          -49 -37 26 39 -7 hvcurveto
          -21 -15 rlineto
          -47 9 43 -28 56 hhcurveto
          125 85 123 149 77 -49 47 -74 -93 -86 -70 -84 hvcurveto
          173 129 rmoveto
          59 43 -42 -50 -66 -72 -58 -75 -59 -42 41 52 66 71 57 75 hvcurveto
          endchar
        </CharString>
        <CharString name="notequal">
          -158 134 -21 107 29 54 29 106 -20 hstem
          76 303 rmoveto
          146 hlineto
          -33 -54 rlineto
          -113 -29 96 hlineto
          -62 -102 27 -5 65 107 rlineto
          170 29 -152 hlineto
          33 54 rlineto
          119 29 -101 hlineto
          62 101 -28 5 -65 -106 rlineto
          -164 hlineto
          endchar
        </CharString>
        <CharString name="ntilde">
          -72 21 -39 callgsubr
          -8 -20 156 -52 callsubr
          448 36 hintmask 11011010
          15 hmoveto
          -46 callsubr
          -95 callgsubr
          hintmask 10110110
          -34 callsubr
          283 136 -88 callsubr
          hintmask 11011010
          -97 callgsubr
        </CharString>
        <CharString name="numbersign">
          13 0 247 -30 30 227 29 -29 236 hstemhm
          hintmask 10100000
          636 503 rmoveto
          -108 hlineto
          hintmask 10010000
          93 207 rlineto
          -32 hlineto
          hintmask 10100000
          -91 -207 rlineto
          -213 hlineto
          hintmask 10010000
          93 207 -4 callgsubr
          hintmask 10100000
          -92 -207 rlineto
          -134 hlineto
          -7 -29 rlineto
          127 hlineto
          -99 -227 rlineto
          -115 hlineto
          hintmask 01100000
          -6 -30 rlineto
          107 20 callsubr
          213 20 callsubr
          136 -20 callsubr
          -128 hlineto
          100 227 rlineto
          115 hlineto
          -458 -227 rmoveto
          100 227 rlineto
          212 hlineto
          -100 -227 rlineto
          endchar
        </CharString>
        <CharString name="o">
          -16 callsubr
          hstem
          31 callsubr
          vstem
          -79 callgsubr
          endchar
        </CharString>
        <CharString name="oacute">
          -18 callsubr
          449 730 -88 callgsubr
          -134 -648 -104 callgsubr
          endchar
        </CharString>
        <CharString name="obreve">
          -16 callsubr
          118 19 callgsubr
          28 35 225 26 170 34 vstem
          -79 callgsubr
          133 646 -104 callsubr
        </CharString>
        <CharString name="ocircumflex">
          -18 callsubr
          276 638 -98 callsubr
          -41 -663 -104 callgsubr
          endchar
        </CharString>
        <CharString name="odblgrave">
          -16 callsubr
          -32 234 hstemhm
          31 callsubr
          hintmask 10111000
          425 638 -87 callgsubr
          -48 -740 -59 callsubr
        </CharString>
        <CharString name="odieresis">
          -16 callsubr
          119 82 hstem
          31 callsubr
          vstem
          309 647 -93 callgsubr
          -182 -657 -104 callgsubr
          endchar
        </CharString>
        <CharString name="odotbelow">
          -54 7 callsubr
          128 -42 callsubr
          hstem
          31 callsubr
          vstem
          205 -47 callsubr
          43 128 -104 callgsubr
          endchar
        </CharString>
        <CharString name="oe">
          378 -10 29 226 27 224 32 hstem
          28 35 421 23 420 32 vstem
          215 -10 rmoveto
          101 103 73 113 58 hvcurveto
          -109 11 79 -77 102 hhcurveto
          87 96 52 74 46 hvcurveto
          -29 8 rlineto
          -62 -37 -79 -43 -75 hhcurveto
          -102 -69 81 107 12 1 12 2 14 hvcurveto
          441 hlineto
          4 7 4 12 42 vvcurveto
          136 -69 86 -117 -109 -99 -71 -115 -54 vhcurveto
          112 -6 -71 74 -102 hhcurveto
          -153 -151 -150 -173 -121 74 -94 113 hvcurveto
          7 32 rmoveto
          -96 -63 81 106 153 133 134 129 95 64 -83 -107 -153 -131 -131 -131 hvcurveto
          293 250 rmoveto
          130 34 106 96 111 hhcurveto
          97 64 -74 -107 -15 -1 -15 -2 -15 hvcurveto
          endchar
        </CharString>
        <CharString name="ogonek">
          -414 -143 -21 179 -20 hstem
          25 27 vstem
          69 -164 29 callgsubr
          77 47 vhcurveto
          -12 15 rlineto
          -84 -53 -30 -33 -40 -50 callgsubr
          endchar
        </CharString>
        <CharString name="ograve">
          -18 callsubr
          -79 callgsubr
          152 616 -77 callsubr
        </CharString>
        <CharString name="ohungarumlaut">
          -16 callsubr
          -32 234 hstemhm
          31 callsubr
          hintmask 10111000
          373 730 -62 callgsubr
          -163 -648 -59 callsubr
        </CharString>
        <CharString name="oinvertedbreve">
          -16 callsubr
          180 22 hstem
          31 callsubr
          vstem
          281 646 -103 callsubr
          -65 -656 -104 callgsubr
          endchar
        </CharString>
        <CharString name="omacron">
          -16 callsubr
          151 28 hstem
          31 callsubr
          vstem
          496 679 -68 callgsubr
          -12 -689 -104 callgsubr
          endchar
        </CharString>
        <CharString name="one">
          -248 0 32 408 36 95 -20 hstem
          2 hmoveto
          291 hlineto
          6 32 rlineto
          -121 hlineto
          115 539 rlineto
          -35 hlineto
          -6 -4 -106 -89 -66 hhcurveto
          -8 -36 rlineto
          52 95 53 31 27 hvcurveto
          -104 -492 rlineto
          -135 hlineto
          endchar
        </CharString>
        <CharString name="one.denominator">
          -368 0 26 368 -20 hstem
          -16 hmoveto
          183 hlineto
          6 26 rlineto
          -76 hlineto
          -10 callgsubr
          endchar
        </CharString>
        <CharString name="one.lnum">
          -264 0 32 556 33 99 -20 hstem
          -2 hmoveto
          281 hlineto
          7 32 rlineto
          -120 hlineto
          146 688 rlineto
          -35 hlineto
          -4 -3 -100 -95 -66 hhcurveto
          -7 -33 rlineto
          51 88 55 31 27 hvcurveto
          -136 -642 rlineto
          -127 hlineto
          endchar
        </CharString>
        <CharString name="one.numerator">
          -372 337 27 367 -20 hstem
          166 364 -37 callsubr
        </CharString>
        <CharString name="oneeighth">
          154 42 callsubr
          118 27 -1 25 343 -20 hstemhm
          401 -21 callgsubr
          hintmask 1110111100000000
          47 -2 -74 callsubr
          146 348 -87 callsubr
          274 -368 -36 callgsubr
          hintmask 1101111010000000
          -85 callgsubr
          hintmask 1101111100000000
          -70 callgsubr
          hintmask 1110111010000000
          -16 callgsubr
          endchar
        </CharString>
        <CharString name="onehalf">
          155 0 26 -7 -21 339 27 3 26 338 -20 hstemhm
          702 30 hintmask 10111100
          393 hmoveto
          277 hlineto
          6 30 callsubr
          59 101 34 rrcurveto
          73 24 91 27 93 vvcurveto
          50 -33 41 -76 -91 -59 -60 -7 -6 vhcurveto
          15 -18 rlineto
          22 20 46 37 68 hhcurveto
          59 27 -33 -38 -79 -86 -17 -69 -24 hvcurveto
          -80 -29 -53 -47 -21 -100 rrcurveto
          hintmask 01111100
          -360 -2 -74 callsubr
          163 348 -37 callsubr
        </CharString>
        <CharString name="oneinferior">
          -368 -80 26 368 -20 hstem
          80 -54 rmoveto
          -10 callgsubr
          -5 -26 rlineto
          183 hlineto
          6 26 rlineto
          endchar
        </CharString>
        <CharString name="onequarter">
          114 19 -21 23 -21 108 26 203 27 367 -20 hstemhm
          hintmask 01111000
          552 hmoveto
          -67 callgsubr
          hintmask 10111000
          -523 -136 -74 callsubr
          133 348 -37 callsubr
        </CharString>
        <CharString name="onesuperior">
          -372 417 27 286 -20 101 -20 hstem
          183 444 -37 callsubr
        </CharString>
        <CharString name="onethird">
          154 -5 26 165 24 127 27 4 25 338 -20 hstemhm
          401 45 callsubr
          0 29 hintmask 11111101
          37 -2 -74 callsubr
          158 348 -87 callsubr
          273 -369 -79 callsubr
          -56 -30 -91 -43 callgsubr
          hintmask 11111110
          -41 callgsubr
        </CharString>
        <CharString name="oogonek">
          -54 -151 -21 162 -42 callsubr
          hstem
          28 35 55 27 339 34 vstem
          162 21 callsubr
          76 47 vhcurveto
          144 16 131 145 156 vvcurveto
          121 -74 98 -113 -151 -152 -152 -169 -116 69 -95 109 -6 vhcurveto
          -64 -43 -24 -30 -21 callsubr
          60 194 rmoveto
          -95 -64 84 105 150 135 135 126 94 66 -86 -106 -149 -134 -133 -128 hvcurveto
          endchar
        </CharString>
        <CharString name="ordfeminine">
          -211 350 31 153 27 118 30 hstem
          78 38 239 38 vstem
          170 350 rmoveto
          56 56 23 42 40 hvcurveto
          -2 -10 -1 -9 -8 vvcurveto
          -19 8 -13 31 vhcurveto
          8 35 rlineto
          -8 1 -4 4 6 vvcurveto
          3 0 2 1 2 vhcurveto
          34 163 rlineto
          3 13 1 13 12 vvcurveto
          63 -40 36 -71 -40 -45 -15 -31 -51 vhcurveto
          9 -25 rlineto
          27 45 40 14 34 hhcurveto
          52 29 -29 -47 -9 -1 -8 -2 -10 hvcurveto
          -7 -33 rlineto
          12 -26 -38 6 -37 hhcurveto
          -92 -74 -50 -72 -50 37 -39 55 hvcurveto
          15 31 rmoveto
          -42 -27 29 36 54 55 34 73 35 33 -4 -14 27 hvcurveto
          -12 -58 rlineto
          -43 -9 -74 -34 -59 hhcurveto
          endchar
        </CharString>
        <CharString name="ordmasculine">
          -187 350 27 304 28 hstem
          90 31 282 32 vstem
          223 350 rmoveto
          111 101 102 110 81 -53 66 -83 -108 -101 -101 -112 -79 50 -67 83 hvcurveto
          6 27 rmoveto
          -64 -44 54 68 98 88 84 85 64 45 -54 -69 -96 -87 -85 -87 hvcurveto
          endchar
        </CharString>
        <CharString name="oslash">
          -54 -10 32 -1 37 callgsubr
          31 callsubr
          hintmask 01101100
          46 hmoveto
          31 hlineto
          26 30 rlineto
          hintmask 10011100
          -13 callgsubr
          hintmask 01101100
          -48 callsubr
          hintmask 10101100
          -19 callgsubr
          endchar
        </CharString>
        <CharString name="oslashacute">
          -54 -10 32 -1 -41 callsubr
          31 callsubr
          hintmask 01101110
          46 hmoveto
          31 hlineto
          26 30 rlineto
          hintmask 10011110
          -13 callgsubr
          hintmask 01101110
          -48 callsubr
          hintmask 10101110
          -19 callgsubr
          227 708 -45 callsubr
        </CharString>
        <CharString name="otilde">
          -16 callsubr
          128 -52 callsubr
          31 callsubr
          hintmask 11101110
          -79 callgsubr
          189 634 -88 callsubr
          hintmask 11110110
          -97 callgsubr
        </CharString>
        <CharString name="p">
          -36 -192 -21 203 32 40 callsubr
          hstemhm
          500 35 hintmask 11101000
          -30 40 callgsubr
          70 329 rlineto
          -69 26 58 -57 86 hhcurveto
          158 133 159 158 114 -69 107 -117 -75 -85 -48 -68 -55 hvcurveto
          hintmask 11011000
          23 108 -4 callgsubr
          119 -498 rmoveto
          -83 -61 64 81 -17 hvcurveto
          38 179 rlineto
          hintmask 11101000
          79 24 118 71 73 hhcurveto
          99 64 -90 -103 -133 -116 -148 -139 hvcurveto
          endchar
        </CharString>
        <CharString name="paragraph">
          -66 -59 -21 323 30 407 30 hstem
          64 32 vstem
          64 429 rmoveto
          -114 79 -69 138 -3 vhcurveto
          -69 -323 rlineto
          32 hlineto
          69 323 rlineto
          81 hlineto
          -69 -323 rlineto
          31 hlineto
          162 760 rlineto
          66 hlineto
          7 30 rlineto
          -203 hlineto
          -197 -127 -113 -168 hvcurveto
          32 7 rmoveto
          144 101 100 177 vhcurveto
          -87 -407 rlineto
          -106 5 -85 48 110 vvcurveto
          304 -163 rmoveto
          -81 hlineto
          87 407 rlineto
          81 hlineto
          endchar
        </CharString>
        <CharString name="parenleft">
          -380 -8 -21 759 -20 hstem
          48 33 vstem
          48 257 rmoveto
          -90 21 -107 39 -89 vhcurveto
          29 16 rlineto
          -37 85 -19 110 83 vvcurveto
          159 121 185 90 105 vhcurveto
          -23 16 rlineto
          -121 -155 -100 -140 -178 vvcurveto
          endchar
        </CharString>
        <CharString name="parenright">
          -380 -8 -21 759 -20 hstem
          176 34 vstem
          210 433 rmoveto
          99 -25 107 -33 91 vhcurveto
          -30 -16 rlineto
          29 -68 25 -122 -100 vvcurveto
          -143 -84 -151 -124 -143 vhcurveto
          22 -16 rlineto
          136 158 84 144 160 vvcurveto
          endchar
        </CharString>
        <CharString name="partialdiff">
          -50 -10 32 382 30 249 32 hstemhm
          35 33 395 59 -33 33 hintmask 11110100
          254 -10 rmoveto
          159 109 140 269 224 -75 92 -145 -76 -74 -25 -53 -44 hvcurveto
          21 -21 rlineto
          39 32 66 28 73 hhcurveto
          114 75 -68 -200 -42 -3 -65 -7 -33 hvcurveto
          102 -21 -81 57 -95 hhcurveto
          -134 -113 -112 -127 -114 91 -91 128 hvcurveto
          -1 32 rmoveto
          -108 -77 78 96 112 101 96 112 hvcurveto
          hintmask 11111000
          103 79 -80 -91 -89 -75 -122 -135 hvcurveto
          endchar
        </CharString>
        <CharString name="percent">
          39 32 callsubr
          102 30 170 29 18 29 170 29 vstem
          210 441 rmoveto
          85 83 76 88 64 -44 51 -64 -85 -83 -77 -88 -64 44 -50 64 hvcurveto
          6 25 rmoveto
          -50 -34 41 53 69 65 65 67 48 37 -40 -53 -69 -66 -66 -67 hvcurveto
          194 -476 rmoveto
          85 82 76 89 64 -43 50 -64 -85 -83 -76 -88 -65 44 -50 64 hvcurveto
          5 26 rmoveto
          -50 -34 40 52 70 66 66 67 48 36 -42 -53 -69 -66 -64 -67 hvcurveto
          -405 24 callgsubr
        </CharString>
        <CharString name="period">
          -451 21 -21 74 -20 hstem
          37 hmoveto
          11 callsubr
          endchar
        </CharString>
        <CharString name="periodcentered">
          -454 270 -21 91 -20 hstem
          86 249 -27 callgsubr
        </CharString>
        <CharString name="perthousand">
          353 32 callsubr
          108 30 170 29 18 29 170 29 46 29 218 29 vstem
          218 441 rmoveto
          82 84 76 89 64 -43 50 -67 -82 -84 -77 -89 -63 44 -50 66 hvcurveto
          6 25 rmoveto
          -51 -35 41 51 71 65 65 65 50 37 -40 -52 -70 -66 -66 -65 hvcurveto
          194 -476 rmoveto
          82 83 76 89 64 -43 50 -66 -83 -83 -76 -89 -64 43 -50 67 hvcurveto
          5 26 rmoveto
          -52 -34 40 51 71 67 66 64 51 35 -42 -51 -70 -66 -65 -65 hvcurveto
          316 -26 rmoveto
          81 85 76 89 64 -43 50 -67 -82 -84 -76 -89 -65 44 -49 66 hvcurveto
          5 26 rmoveto
          -52 -34 40 51 71 66 66 65 51 36 -42 -52 -69 -66 -65 -66 hvcurveto
          -728 24 callgsubr
        </CharString>
        <CharString name="pi">
          18 -5 31 -5 -21 487 33 hstemhm
          135 33 233 33 hintmask 10111000
          485 -5 rmoveto
          21 36 6 7 20 hvcurveto
          -9 28 rlineto
          -6 -17 -22 -4 -15 hhcurveto
          -40 -25 24 39 hvcurveto
          398 110 33 -489 -33 80 vlineto
          hintmask 01111000
          -487 33 487 233 -405 vlineto
          hintmask 10111000
          -53 34 -34 50 vhcurveto
          endchar
        </CharString>
        <CharString name="plus">
          -207 215 -21 146 30 146 -20 hstem
          199 33 vstem
          232 370 rmoveto
          146 -33 -146 -135 -30 135 -146 33 146 135 30 vlineto
          endchar
        </CharString>
        <CharString name="plusminus">
          -135 78 31 233 31 147 -20 hstem
          211 33 vstem
          381 78 rmoveto
          31 -307 -31 vlineto
          170 295 rmoveto
          147 -33 -147 -137 -31 137 -147 33 147 137 31 vlineto
          endchar
        </CharString>
        <CharString name="product">
          71 -69 -21 768 32 hstem
          162 33 339 33 vstem
          534 -90 rmoveto
          33 768 80 32 -573 -32 88 -768 33 768 339 hlineto
          endchar
        </CharString>
        <CharString name="q">
          -37 -191 -21 202 32 40 callsubr
          hstemhm
          28 34 hintmask 11011000
          205 -10 rmoveto
          77 76 44 82 71 hvcurveto
          -60 -283 rlineto
          -1 -3 -1 -3 -4 vvcurveto
          -26 21 -9 23 vhcurveto
          6 31 rlineto
          -9 1 -5 5 9 vvcurveto
          2 0 2 1 4 vhcurveto
          144 678 -14 callgsubr
          hvcurveto
          13 32 27 callgsubr
          56 -66 -78 11 hvcurveto
          -41 -188 rlineto
          -75 -52 -80 -67 -89 hhcurveto
          endchar
        </CharString>
        <CharString name="q.alt">
          -37 -192 -21 203 32 40 callsubr
          hstemhm
          28 34 hintmask 11011000
          359 40 callgsubr
          155 733 -14 callgsubr
          77 76 44 82 71 hvcurveto
          -211 -94 27 callgsubr
          62 -68 -71 6 hvcurveto
          -42 -193 rlineto
          -75 -52 -80 -67 -89 hhcurveto
          endchar
        </CharString>
        <CharString name="question">
          -166 21 -21 688 31 hstem
          433 33 vstem
          168 186 rmoveto
          24 111 38 27 48 24 rrcurveto
          89 46 99 29 148 vvcurveto
          97 -67 51 -80 -80 -92 -46 -83 -53 vhcurveto
          23 -14 rlineto
          67 46 77 45 73 hhcurveto
          65 55 -38 -82 -138 -102 -24 -75 -38 hvcurveto
          -55 -28 -40 -38 -24 -116 rrcurveto
          -8 -186 -27 callgsubr
        </CharString>
        <CharString name="questiondown">
          -171 -213 31 688 -20 hstem
          -37 33 vstem
          261 320 rmoveto
          -24 -111 -38 -27 -48 -24 rrcurveto
          -89 -46 -99 -29 -148 vvcurveto
          -97 67 -51 80 80 92 46 83 53 vhcurveto
          -23 14 rlineto
          -67 -46 -77 -45 -73 hhcurveto
          -65 -55 38 82 138 102 24 75 38 hvcurveto
          55 28 40 38 24 116 rrcurveto
          8 186 rmoveto
          -19 -91 rlineto
          31 hlineto
          19 91 rlineto
          endchar
        </CharString>
        <CharString name="quotedbl">
          -384 556 156 hstem
          154 556 rmoveto
          33 156 -4 callgsubr
          -33 -156 rlineto
          92 hmoveto
          34 156 rlineto
          -32 hlineto
          -33 -156 rlineto
          endchar
        </CharString>
        <CharString name="quotedblbase">
          -288 -4 callsubr
          101 hmoveto
          34 84 18 82 rlineto
          -38 hlineto
          -18 -82 rlineto
          13 hlineto
          -29 -84 rlineto
          endchar
        </CharString>
        <CharString name="quotedblleft">
          -360 -11 callsubr
          68 hmoveto
          -36 -92 -18 -82 rlineto
          38 hlineto
          17 82 rlineto
          -13 hlineto
          31 92 rlineto
          endchar
        </CharString>
        <CharString name="quotedblright">
          -363 -10 callsubr
          107 hmoveto
          36 92 17 82 rlineto
          -38 hlineto
          -16 -82 rlineto
          13 hlineto
          -31 -92 rlineto
          endchar
        </CharString>
        <CharString name="quoteleft">
          -447 -11 callsubr
          endchar
        </CharString>
        <CharString name="quoteright">
          -451 -10 callsubr
          endchar
        </CharString>
        <CharString name="quotesinglbase">
          -370 -4 callsubr
          endchar
        </CharString>
        <CharString name="quotesingle">
          -446 576 -21 157 -20 hstem
          154 555 rmoveto
          33 157 -4 callgsubr
          -33 -157 rlineto
          endchar
        </CharString>
        <CharString name="r">
          25 callgsubr
          hstem
          15 hmoveto
          -85 callsubr
          endchar
        </CharString>
        <CharString name="racute">
          25 callgsubr
          210 -20 hstem
          331 730 -88 callgsubr
          -217 -638 rmoveto
          -85 callsubr
          endchar
        </CharString>
        <CharString name="radical">
          -233 21 -21 336 29 425 -20 hstem
          23 336 rmoveto
          80 hlineto
          94 -336 rlineto
          44 hlineto
          140 790 -72 callsubr
          -128 -753 -87 328 rlineto
          -109 hlineto
          endchar
        </CharString>
        <CharString name="rcaron">
          25 callgsubr
          210 -20 hstem
          230 638 -89 callsubr
          -142 -716 rmoveto
          -85 callsubr
          endchar
        </CharString>
        <CharString name="rcommaaccent">
          -293 34 callgsubr
          488 32 hstem
          -7 -90 callsubr
          42 176 rmoveto
          -85 callsubr
          endchar
        </CharString>
        <CharString name="rdblgrave">
          25 callgsubr
          -32 242 hstemhm
          hintmask 10100000
          307 638 -87 callgsubr
          -131 -730 rmoveto
          -60 callgsubr
          hintmask 11000000
          1 -5 -2 0 -3 hhcurveto
          -72 -81 -50 -82 -55 hvcurveto
          27 132 rlineto
          -32 hlineto
          endchar
        </CharString>
        <CharString name="rdotbelow">
          -293 34 callsubr
          488 32 hstem
          15 hmoveto
          -85 callsubr
          -106 -658 -82 callsubr
          endchar
        </CharString>
        <CharString name="registered">
          221 -7 23 107 205 -27 27 225 29 109 24 hstemhm
          67 26 190 30 261 29 165 25 hintmask 1101111110000000
          -33 callsubr
          23 vmoveto
          -195 -142 145 194 192 143 144 194 195 143 -144 -192 -203 -147 -136 -191 hvcurveto
          -147 107 rmoveto
          30 hlineto
          hintmask 1011111110000000
          178 145 vlineto
          hintmask 1101111110000000
          113 -178 -25 callsubr
          -115 180 rlineto
          67 7 46 61 70 vvcurveto
          70 -54 71 -77 vhcurveto
          -189 hlineto
          30 -254 rmoveto
          225 158 vlineto
          60 43 -50 -62 -61 -34 -52 -65 hvcurveto
          endchar
        </CharString>
        <CharString name="ring">
          -389 611 119 -19 -20 hstemhm
          60 21 80 20 hintmask 10110000
          60 659 -70 callsubr
          hintmask 01110000
          69 52 -76 callsubr
          endchar
        </CharString>
        <CharString name="rinvertedbreve">
          25 callgsubr
          191 22 hstem
          172 649 -103 callsubr
          -157 -649 rmoveto
          -85 callsubr
          endchar
        </CharString>
        <CharString name="s">
          -163 -10 10 callgsubr
          163 -10 -101 callsubr
          endchar
        </CharString>
        <CharString name="s_t">
          125 -10 29 -3 -21 504 21 8 -20 218 25 hstemhm
          64 34 260 35 106 36 81 35 hintmask 1010111110000000
          169 -10 rmoveto
          98 126 50 117 97 -87 10 -74 8 hvcurveto
          -70 8 -64 9 79 vvcurveto
          95 92 36 83 48 53 -12 -50 23 vhcurveto
          26 17 rlineto
          -7 21 -19 45 62 vvcurveto
          70 26 74 118 53 22 -15 -53 -31 -8 -45 -13 -62 vhcurveto
          -70 hlineto
          -7 -30 rlineto
          70 hlineto
          -86 -405 rlineto
          -2 -8 -1 -9 -9 vvcurveto
          hintmask 0110111110000000
          -39 32 -25 46 47 47 26 3 7 vhcurveto
          -6 28 rlineto
          -4 -7 -37 -21 -38 hhcurveto
          -31 -24 15 32 3 0 4 1 5 hvcurveto
          86 404 rlineto
          117 -20 callsubr
          -116 hlineto
          12 61 10 46 37 vvcurveto
          59 -24 28 -77 -138 -38 -91 -74 -33 7 -25 6 -30 vhcurveto
          hintmask 1001111110000000
          19 -25 -38 11 -46 hhcurveto
          -96 -118 -47 -123 -95 69 -9 80 -9 hvcurveto
          80 -10 65 -8 -75 vvcurveto
          -94 -103 -39 -79 -63 -53 25 49 -43 vhcurveto
          -23 -23 rlineto
          -44 34 59 -36 82 hhcurveto
          endchar
        </CharString>
        <CharString name="sacute">
          -22 callsubr
          390 730 -88 callgsubr
          -128 -648 -101 callsubr
          endchar
        </CharString>
        <CharString name="scaron">
          -22 callsubr
          286 638 -89 callsubr
          -50 -726 -101 callsubr
          endchar
        </CharString>
        <CharString name="schwa">
          -66 -10 29 227 27 225 30 hstem
          15 35 420 35 vstem
          205 -10 rmoveto
          154 146 148 169 123 -75 98 -114 -90 -95 -54 -72 -42 hvcurveto
          28 -8 rlineto
          61 39 79 43 73 hhcurveto
          96 66 -77 -108 -13 -1 -13 -2 -14 hvcurveto
          -442 hlineto
          -9 -23 -1 -31 -24 vvcurveto
          -117 75 -88 115 vhcurveto
          6 29 rmoveto
          -98 -63 74 108 14 1 15 2 16 hvcurveto
          408 hlineto
          -130 -33 -107 -97 -110 hhcurveto
          endchar
        </CharString>
        <CharString name="scircumflex">
          -22 callsubr
          230 638 -98 callsubr
          -48 -663 -101 callsubr
          endchar
        </CharString>
        <CharString name="sdotbelow">
          -163 7 callsubr
          128 10 callgsubr
          163 -10 -101 callsubr
          -6 -128 -82 callsubr
          endchar
        </CharString>
        <CharString name="section">
          -144 -88 33 242 244 -31 31 252 32 hstemhm
          77 33 -13 35 218 36 -7 33 hintmask 11010101
          355 185 rmoveto
          31 27 26 49 48 vvcurveto
          88 -76 34 -79 -74 -51 26 69 98 98 59 78 48 60 -12 -50 13 vhcurveto
          31 13 rlineto
          48 -21 -37 33 -88 hhcurveto
          -93 -124 -72 -122 -37 12 -36 21 -15 hvcurveto
          hintmask 11011010
          -26 -25 -27 -48 -48 vvcurveto
          -84 66 -38 85 -3 vhcurveto
          59 -2 63 -13 -71 vvcurveto
          -97 -100 -59 -79 -60 -43 24 49 -39 vhcurveto
          -28 -21 rlineto
          -45 32 48 -40 83 hhcurveto
          92 130 68 131 33 -10 27 -21 14 hvcurveto
          -245 127 rmoveto
          44 23 40 26 22 vhcurveto
          hintmask 10111001
          -12 24 33 -6 35 hhcurveto
          59 69 -24 -73 -40 -24 -43 -30 -23 hvcurveto
          -63 29 -152 -33 119 vvcurveto
          endchar
        </CharString>
        <CharString name="semicolon">
          -449 -60 -21 96 -21 523 -20 hstem
          129 443 rmoveto
          16 74 -4 callgsubr
          -15 -74 rlineto
          -92 -524 rmoveto
          31 75 18 80 rlineto
          -37 hlineto
          -17 -80 rlineto
          13 hlineto
          -28 -75 rlineto
          endchar
        </CharString>
        <CharString name="servicemark">
          29 427 26 235 27 -5 -20 hstemhm
          134 29 114 30 hintmask 10111000
          491 507 rmoveto
          -51 203 -72 callsubr
          -60 -280 rlineto
          36 callgsubr
          130 191 -50 -233 rlineto
          27 hlineto
          60 280 rlineto
          -35 hlineto
          -300 -29 rmoveto
          hintmask 11011000
          24 -17 -25 10 -35 hhcurveto
          -67 -49 -35 -58 -39 40 -13 42 -13 hvcurveto
          34 -10 27 -11 -26 vvcurveto
          -38 -32 -19 -49 -40 -27 13 27 -19 vhcurveto
          -18 -22 rlineto
          -30 23 32 -14 43 hhcurveto
          68 49 31 59 39 -34 15 -39 12 hvcurveto
          -39 11 -32 9 26 vvcurveto
          35 24 24 57 29 20 -8 -23 12 vhcurveto
          endchar
        </CharString>
        <CharString name="seven">
          -107 -106 -21 677 33 hstem
          12 -127 rmoveto
          28 callsubr
          391 hlineto
          endchar
        </CharString>
        <CharString name="seven.denominator">
          -297 21 -21 361 27 hstem
          -3 hmoveto
          15 callsubr
        </CharString>
        <CharString name="seven.lnum">
          -145 21 -21 677 33 hstem
          20 hmoveto
          28 callsubr
          392 hlineto
          endchar
        </CharString>
        <CharString name="seven.numerator">
          -298 363 -21 362 26 hstem
          70 342 10 callsubr
          -6 -26 rlineto
          243 hlineto
          endchar
        </CharString>
        <CharString name="seveneighths">
          152 42 callsubr
          144 25 316 26 hstemhm
          400 -21 callgsubr
          hintmask 11111110
          7 -2 -74 callsubr
          533 -20 -36 callgsubr
          hintmask 11111101
          -85 callgsubr
          hintmask 11111110
          -70 callgsubr
          hintmask 11111101
          -16 callgsubr
          -483 123 10 callsubr
          -6 -26 rlineto
          243 hlineto
          endchar
        </CharString>
        <CharString name="seveninferior">
          -297 -59 -21 361 27 hstem
          -20 -80 rmoveto
          15 callsubr
        </CharString>
        <CharString name="sevensuperior">
          -297 443 -21 362 26 hstem
          87 422 10 callsubr
          -5 -26 rlineto
          242 hlineto
          endchar
        </CharString>
        <CharString name="six">
          -26 callgsubr
          -102 -102 -60 -96 -48 hvcurveto
          217 41 115 147 139 -56 callsubr
        </CharString>
        <CharString name="six.denominator">
          -234 -5 25 callsubr
          11 27 249 26 vstem
          133 -5 rmoveto
          94 86 70 84 62 -48 48 -72 -57 -60 -31 -47 -28 hvcurveto
          -28 callsubr
          21 15 rlineto
          47 -9 -39 callsubr
          hvcurveto
          7 25 -52 callgsubr
        </CharString>
        <CharString name="six.lnum">
          -26 callgsubr
          -95 -99 -63 -93 -49 hvcurveto
          231 50 112 133 124 -56 callsubr
        </CharString>
        <CharString name="six.numerator">
          -235 334 25 callsubr
          83 41 callsubr
          386 488 -64 callgsubr
        </CharString>
        <CharString name="sixinferior">
          -235 -85 25 callsubr
          -6 27 249 26 vstem
          296 69 rmoveto
          62 -48 48 -72 -57 -60 -31 -47 23 callgsubr
          21 15 rlineto
          47 -9 20 callgsubr
          86 70 84 hvcurveto
          -173 -129 -52 callgsubr
        </CharString>
        <CharString name="sixsuperior">
          -235 414 25 callsubr
          100 41 callsubr
          403 568 -64 callgsubr
        </CharString>
        <CharString name="slash">
          -67 6 callgsubr
          563 710 rmoveto
          -589 -710 rlineto
          40 hlineto
          589 -7 callgsubr
          endchar
        </CharString>
        <CharString name="space">
          -365 endchar
        </CharString>
        <CharString name="sterling">
          -163 -15 32 -11 30 302 30 316 31 hstemhm
          128 34 14 33 hintmask 01111100
          59 338 rmoveto
          112 hlineto
          3 -17 2 -17 -18 vvcurveto
          -84 -20 -41 -159 -142 vhcurveto
          6 -26 rlineto
          8 30 39 5 28 hhcurveto
          hintmask 10111100
          36 callsubr
          -3 29 rlineto
          -14 -41 -29 -6 -25 hhcurveto
          hintmask 01111100
          -49 -29 19 -57 hhcurveto
          -23 -25 -3 -5 -22 hvcurveto
          141 130 19 51 81 vvcurveto
          17 -2 15 -3 16 vhcurveto
          155 hlineto
          7 30 rlineto
          -168 hlineto
          -14 55 -22 48 51 vvcurveto
          88 79 74 78 55 45 -36 -59 19 vhcurveto
          27 21 rlineto
          64 -21 -52 41 -64 hhcurveto
          -100 -100 -91 -106 -52 22 -46 14 -52 hvcurveto
          -99 hlineto
          endchar
        </CharString>
        <CharString name="summation">
          -45 0 36 643 31 hstem
          494 710 rmoveto
          -414 -29 hlineto
          227 -313 -231 -337 rlineto
          -31 433 36 -390 4 vlineto
          228 329 -223 306 rlineto
          4 370 vlineto
          endchar
        </CharString>
        <CharString name="t">
          -325 -5 32 2 callsubr
          vstem
          124 -5 rmoveto
          52 46 25 4 5 hvcurveto
          -92 callsubr
          -41 32 -25 44 vhcurveto
          endchar
        </CharString>
        <CharString name="t.alt">
          -340 21 -21 487 33 180 -20 hstem
          34 hmoveto
          34 hlineto
          104 487 rlineto
          118 hlineto
          7 33 rlineto
          -119 hlineto
          39 180 rlineto
          -35 hlineto
          -38 -180 rlineto
          -72 hlineto
          -6 -33 rlineto
          71 hlineto
          endchar
        </CharString>
        <CharString name="tbar">
          -324 -5 32 303 27 133 30 179 -20 hstem
          49 36 vstem
          34 330 rmoveto
          70 hlineto
          -53 -249 rlineto
          -1 -7 -1 -7 -6 vvcurveto
          -41 32 -25 44 52 45 24 5 6 vhcurveto
          -6 28 rlineto
          -3 -5 -38 -22 -41 hhcurveto
          -30 -23 16 33 10 3 14 5 22 hvcurveto
          44 208 rlineto
          118 hlineto
          6 27 rlineto
          -118 hlineto
          29 133 rlineto
          117 -20 callsubr
          -117 hlineto
          39 179 -72 callsubr
          -39 -11 callgsubr
          -70 hlineto
          -6 -30 rlineto
          70 hlineto
          -29 -133 rlineto
          -70 hlineto
          endchar
        </CharString>
        <CharString name="tcaron">
          -325 -5 32 463 30 210 -20 hstem
          48 36 vstem
          294 -35 callgsubr
          -149 -656 rmoveto
          52 46 25 4 5 hvcurveto
          -92 callsubr
          -41 32 -25 44 vhcurveto
          endchar
        </CharString>
        <CharString name="tdotbelow">
          -325 7 callsubr
          133 32 2 callsubr
          vstem
          106 -47 callsubr
          50 133 rmoveto
          52 46 25 4 5 hvcurveto
          -92 callsubr
          -41 32 -25 44 vhcurveto
          endchar
        </CharString>
        <CharString name="thorn">
          -42 -192 -21 201 33 475 32 182 -20 hstem
          496 35 vstem
          -30 40 callgsubr
          66 311 rlineto
          -63 25 53 -47 88 hhcurveto
          173 122 180 153 106 -59 101 -120 -84 -71 -50 -70 -61 hvcurveto
          64 302 -72 callsubr
          79 -689 rmoveto
          -83 -79 59 75 3 0 4 2 8 hvcurveto
          39 184 rlineto
          78 54 79 64 87 hhcurveto
          98 54 -79 -104 -158 -125 -134 -126 hvcurveto
          endchar
        </CharString>
        <CharString name="three">
          -122 -147 32 336 31 292 32 hstem
          367 34 25 36 vstem
          147 -147 rmoveto
          141 113 100 136 77 -41 59 -71 11 hvcurveto
          100 13 73 81 98 vvcurveto
          86 -62 62 -97 -89 -87 -49 -74 -43 vhcurveto
          21 -17 rlineto
          65 41 71 43 77 hhcurveto
          79 53 -49 -75 -101 -75 -67 -125 hvcurveto
          -23 hlineto
          -6 -31 rlineto
          22 hlineto
          95 53 -52 -81 -120 -89 -83 -123 -86 -57 44 66 -9 hvcurveto
          -31 -18 rlineto
          -76 14 67 -48 94 hhcurveto
          endchar
        </CharString>
        <CharString name="three.denominator">
          -252 -5 26 165 39 callsubr
          -8 45 callsubr
          0 29 hintmask 11110100
          115 -5 -79 callsubr
          -56 -30 -91 -43 callgsubr
          hintmask 11111000
          -41 callgsubr
        </CharString>
        <CharString name="three.lnum">
          -62 -9 33 321 31 311 32 hstem
          20 29 397 36 18 36 vstem
          214 -9 rmoveto
          136 132 94 127 73 -45 60 -76 16 hvcurveto
          113 28 62 69 93 vvcurveto
          100 -72 68 -110 -93 -93 -48 -76 -48 vhcurveto
          22 -19 rlineto
          66 40 80 45 85 hhcurveto
          92 61 -55 -86 -105 -89 -65 -154 hvcurveto
          -34 hlineto
          -6 -31 rlineto
          33 hlineto
          123 73 -53 -85 -103 -108 -80 -118 -99 -72 56 101 hvcurveto
          -29 -11 rlineto
          -115 81 -64 113 vhcurveto
          endchar
        </CharString>
        <CharString name="three.numerator">
          -252 333 30 callgsubr
          64 45 callsubr
          -1 29 hintmask 11111000
          187 -1 callgsubr
          hintmask 11110100
          -67 callsubr
          hintmask 11111000
          -38 callsubr
          endchar
        </CharString>
        <CharString name="threeeighths">
          159 42 callsubr
          114 27 3 25 136 39 callsubr
          69 45 callsubr
          -1 29 15 -21 callgsubr
          hintmask 1111111101110000
          192 -1 callgsubr
          hintmask 1111111011110000
          -67 callsubr
          hintmask 1111111101110000
          -38 callsubr
          -123 -335 -74 callsubr
          475 -20 -36 callgsubr
          hintmask 1111111101101000
          -85 callgsubr
          hintmask 1111111101110000
          -70 callgsubr
          hintmask 1111111101101000
          -16 callgsubr
          endchar
        </CharString>
        <CharString name="threeinferior">
          -252 -85 26 165 39 callsubr
          -25 45 callsubr
          0 29 hintmask 11110100
          98 -85 -79 callsubr
          -55 -30 -92 -43 callgsubr
          hintmask 11111000
          77 48 -28 -45 -52 -63 -40 -73 -68 -39 34 47 hvcurveto
          -22 -13 rlineto
          -73 67 -21 56 vhcurveto
          endchar
        </CharString>
        <CharString name="threequarters">
          131 19 -21 23 -21 108 26 199 30 callgsubr
          66 45 callsubr
          -1 29 hintmask 0111111100000000
          189 -1 callgsubr
          hintmask 0111111010000000
          -67 callsubr
          hintmask 0111111100000000
          -38 callsubr
          373 -333 rmoveto
          -67 callgsubr
          hintmask 1011111100000000
          -498 -136 -74 callsubr
          endchar
        </CharString>
        <CharString name="threesuperior">
          -252 413 30 callgsubr
          81 45 callsubr
          -1 29 hintmask 11111000
          205 413 rmoveto
          86 82 49 72 41 -29 33 -49 9 hvcurveto
          hintmask 11110100
          70 14 36 37 51 vvcurveto
          53 -47 39 -72 -58 -58 -25 -40 -28 vhcurveto
          15 -19 rlineto
          35 24 48 24 52 hhcurveto
          56 39 -29 -43 -55 -54 -31 -92 -43 callgsubr
          hintmask 11111000
          78 47 -28 -44 -53 -64 -39 -72 -69 -38 32 48 hvcurveto
          -22 -13 rlineto
          -55 2 43 -39 79 hhcurveto
          endchar
        </CharString>
        <CharString name="tilde">
          -247 656 26 -15 -21 48 27 9 -20 hstemhm
          hintmask 10010000
          238 656 -88 callsubr
          hintmask 01100000
          -48 -13 39 -50 hhcurveto
          -66 -24 -66 -9 -1 hvcurveto
          25 hlineto
          6 2 16 42 41 hhcurveto
          hintmask 10100000
          39 16 -38 56 hhcurveto
          endchar
        </CharString>
        <CharString name="trademark">
          26 451 -21 254 28 -2 -20 hstemhm
          hintmask 11000000
          351 712 rmoveto
          -208 hlineto
          -6 -28 rlineto
          90 hlineto
          -54 -254 rlineto
          28 hlineto
          54 254 rlineto
          90 hlineto
          -10 -254 rmoveto
          36 callgsubr
          129 191 -49 -233 rlineto
          27 hlineto
          hintmask 10100000
          60 280 rlineto
          -35 hlineto
          -137 -203 -50 203 -72 callsubr
          endchar
        </CharString>
        <CharString name="two">
          -133 0 32 517 32 hstem
          420 37 vstem
          -10 hmoveto
          382 hlineto
          8 32 rlineto
          -345 hlineto
          11 44 59 113 126 54 rrcurveto
          150 64 76 41 106 vvcurveto
          66 -48 61 -100 -113 -88 -89 -6 -5 vhcurveto
          19 -23 rlineto
          17 17 69 69 91 hhcurveto
          85 36 -52 -50 -88 -68 -35 -146 -61 hvcurveto
          -163 -68 -40 -134 -13 -61 rrcurveto
          endchar
        </CharString>
        <CharString name="two.denominator">
          -257 0 26 341 26 hstem
          287 30 vstem
          -24 hmoveto
          279 hlineto
          6 26 rlineto
          -242 hlineto
          8 39 23 59 102 34 rrcurveto
          74 24 91 27 93 -37 callgsubr
        </CharString>
        <CharString name="two.lnum">
          -78 0 32 654 33 hstem
          503 37 vstem
          -13 hmoveto
          438 hlineto
          7 32 rlineto
          -399 hlineto
          14 81 42 113 177 71 rrcurveto
          109 44 165 40 177 vvcurveto
          85 -51 76 -115 -149 -98 -117 -8 -6 vhcurveto
          20 -20 rlineto
          40 35 77 72 111 hhcurveto
          98 41 -63 -70 -158 -147 -29 -112 -45 hvcurveto
          -127 -52 -101 -85 -29 -184 rrcurveto
          endchar
        </CharString>
        <CharString name="two.numerator">
          -258 338 26 341 26 hstem
          359 30 vstem
          326 338 rmoveto
          5 30 callsubr
          59 102 34 rrcurveto
          72 24 93 29 91 1 callgsubr
          -37 -79 -87 -17 -69 -25 hvcurveto
          -81 -29 -53 -46 -21 -101 rrcurveto
          endchar
        </CharString>
        <CharString name="twoinferior">
          -257 -80 26 341 26 hstem
          270 30 vstem
          238 -80 rmoveto
          6 26 rlineto
          -242 hlineto
          8 39 23 60 102 34 rrcurveto
          73 24 92 28 91 -37 callgsubr
        </CharString>
        <CharString name="twosuperior">
          -258 418 26 341 26 hstem
          376 30 vstem
          343 418 rmoveto
          5 30 callsubr
          61 102 33 rrcurveto
          72 23 93 27 93 vvcurveto
          50 -34 41 -75 -49 callsubr
          -37 -79 -87 -17 -69 -25 hvcurveto
          -81 -29 -53 -46 -21 -101 rrcurveto
          endchar
        </CharString>
        <CharString name="twothirds">
          170 -5 26 165 24 128 26 4 25 312 26 hstemhm
          361 30 24 45 callsubr
          0 29 hintmask 1111111010000000
          329 338 rmoveto
          5 26 rlineto
          -239 hlineto
          8 39 23 59 101 34 rrcurveto
          72 24 92 29 91 vvcurveto
          50 -33 41 -75 -91 -60 -60 -7 -6 vhcurveto
          15 -18 rlineto
          22 21 46 37 67 hhcurveto
          60 26 -33 -37 -79 -86 -17 -68 -25 hvcurveto
          -81 -29 -52 -46 -21 -101 rrcurveto
          36 -340 -74 callsubr
          467 -21 -79 callsubr
          -56 -30 -91 -43 callgsubr
          hintmask 1111111100000000
          -41 callgsubr
        </CharString>
        <CharString name="u">
          -35 callsubr
          hstemhm
          44 35 hintmask 10110000
          -58 callsubr
          hintmask 01110000
          -48 callgsubr
          8 32 rlineto
          -10 -5 5 10 2 3 13 3 13 hvcurveto
          94 445 rlineto
          -34 -38 callgsubr
          hintmask 10110000
          -78 callsubr
        </CharString>
        <CharString name="u.alt">
          -64 -31 callsubr
          hstemhm
          44 35 hintmask 10110000
          169 -10 rmoveto
          84 95 55 82 57 hvcurveto
          hintmask 01110000
          -27 -127 rlineto
          33 hlineto
          111 520 -72 callsubr
          -71 -330 rlineto
          hintmask 10110000
          -88 -43 -98 -80 -94 hhcurveto
          -78 -25 46 66 28 5 32 7 34 hvcurveto
          63 -43 callsubr
          -63 -296 rlineto
          -7 -35 -6 -34 -31 vvcurveto
          -76 29 -58 96 vhcurveto
          endchar
        </CharString>
        <CharString name="uacute">
          -35 callsubr
          230 -20 hstemhm
          44 35 hintmask 10111000
          417 730 -88 callgsubr
          -153 -648 -105 callsubr
          endchar
        </CharString>
        <CharString name="ubreve">
          -35 callsubr
          146 22 62 -20 hstemhm
          44 35 189 26 hintmask 10111110
          -58 callsubr
          hintmask 01111110
          -48 callgsubr
          8 32 rlineto
          -10 -5 5 10 2 3 13 3 13 hvcurveto
          94 445 rlineto
          -34 -38 callgsubr
          hintmask 10111110
          -99 -50 -99 -69 -89 hhcurveto
          -67 -33 37 77 26 4 31 8 35 hvcurveto
          62 -43 callsubr
          -63 -296 rlineto
          -8 -36 -4 -32 -28 vvcurveto
          -91 41 -47 80 vhcurveto
          170 678 -104 callsubr
        </CharString>
        <CharString name="ucircumflex">
          -35 callsubr
          230 -20 hstemhm
          44 35 hintmask 10111000
          261 638 -98 callsubr
          -77 -663 -105 callsubr
          endchar
        </CharString>
        <CharString name="udblgrave">
          -35 callsubr
          230 -20 hstemhm
          44 35 hintmask 10111000
          406 638 -87 callgsubr
          -80 -740 -105 callsubr
          endchar
        </CharString>
        <CharString name="udieresis">
          -35 callsubr
          147 82 hstemhm
          44 35 hintmask 10111000
          296 647 -93 callgsubr
          -220 -657 -105 callsubr
          endchar
        </CharString>
        <CharString name="udotbelow">
          -62 7 callsubr
          128 -33 callgsubr
          hstemhm
          44 35 hintmask 11011000
          -58 callsubr
          hintmask 10111000
          -48 callgsubr
          8 32 rlineto
          -10 -5 5 10 2 3 13 3 13 hvcurveto
          94 445 rlineto
          -34 -38 callgsubr
          hintmask 11011000
          -99 -50 -99 -69 -89 hhcurveto
          -67 -33 37 77 26 4 31 8 35 hvcurveto
          62 -43 callsubr
          -63 -296 rlineto
          -8 -36 -4 -32 -28 vvcurveto
          -91 41 -47 80 vhcurveto
          25 -128 -82 callsubr
          endchar
        </CharString>
        <CharString name="ugrave">
          -35 callsubr
          230 -20 hstemhm
          44 35 hintmask 10111000
          165 -10 -105 callsubr
          168 648 -77 callsubr
        </CharString>
        <CharString name="uhungarumlaut">
          -35 callsubr
          230 -20 hstemhm
          44 35 hintmask 10111000
          165 -10 -105 callsubr
          190 740 -62 callgsubr
          endchar
        </CharString>
        <CharString name="uinvertedbreve">
          -35 callsubr
          208 22 hstemhm
          44 35 321 24 hintmask 10111100
          267 646 -103 callsubr
          -102 -656 rmoveto
          88 93 53 85 61 hvcurveto
          -18 -85 0 -6 -6 vvcurveto
          -16 7 -11 16 -3 vhcurveto
          hintmask 01111100
          -48 callgsubr
          8 32 rlineto
          -10 -5 5 10 2 3 13 3 13 hvcurveto
          94 445 rlineto
          -34 -38 callgsubr
          hintmask 10111100
          -78 callsubr
        </CharString>
        <CharString name="umacron">
          -35 callsubr
          179 28 hstemhm
          44 35 hintmask 10111000
          165 -10 -105 callsubr
          311 689 -68 callgsubr
          endchar
        </CharString>
        <CharString name="underscore">
          -111 -32 32 hstem
          365 -32 rmoveto
          7 32 rlineto
          -370 hlineto
          -7 -32 rlineto
          endchar
        </CharString>
        <CharString name="uni00A0">
          -365 endchar
        </CharString>
        <CharString name="uni00AD">
          8 callsubr
        </CharString>
        <CharString name="uni015E">
          -36 13 callgsubr
          45 29 658 32 hstem
          106 37 150 24 169 37 vstem
          133 -147 rmoveto
          -77 callgsubr
          39 51 rlineto
          157 5 106 78 133 vvcurveto
          98 -81 33 -123 28 vhcurveto
          -119 27 -57 24 74 vvcurveto
          105 70 82 171 80 52 -21 -57 37 vhcurveto
          24 26 rlineto
          58 -41 -60 26 -87 hhcurveto
          -164 -119 -86 -143 -89 71 -30 122 -27 hvcurveto
          124 -28 63 -32 -77 vvcurveto
          -116 -93 -62 -144 -103 -74 35 68 -48 vhcurveto
          -25 -25 55 -71 76 -35 102 -2 rlinecurve
          -59 -79 -78 callgsubr
          endchar
        </CharString>
        <CharString name="uni015F">
          -163 13 callgsubr
          39 29 480 29 hstem
          70 34 105 24 116 35 vstem
          49 -147 rmoveto
          -77 callgsubr
          35 45 rlineto
          122 4 90 70 100 vvcurveto
          70 -63 21 -101 27 vhcurveto
          -77 20 -39 13 48 vvcurveto
          93 81 43 88 61 55 -22 -40 19 vhcurveto
          25 17 rlineto
          43 -18 -54 31 -78 hhcurveto
          -110 -103 -58 -116 -62 48 -17 89 -23 hvcurveto
          91 -24 51 -18 -55 vvcurveto
          -82 -78 -54 -102 -69 -49 25 51 -42 vhcurveto
          -23 -23 35 -51 56 -26 68 -4 rlinecurve
          -56 -75 -78 callgsubr
          endchar
        </CharString>
        <CharString name="uni0162">
          -43 13 callgsubr
          70 -21 678 32 hstem
          263 24 vstem
          203 hmoveto
          4 hlineto
          -64 -84 -78 callgsubr
          -16 -22 rlineto
          -77 callgsubr
          42 55 rlineto
          4 -71 callsubr
        </CharString>
        <CharString name="uni0163">
          -325 13 callgsubr
          45 31 2 callsubr
          85 24 vstem
          9 -147 rmoveto
          -77 callgsubr
          39 51 47 3 39 21 5 4 rlinecurve
          -92 callsubr
          -36 25 -24 36 -5 vhcurveto
          -60 -80 -78 callgsubr
          endchar
        </CharString>
        <CharString name="uni01C4">
          657 3 callgsubr
          621 35 vstem
          1073 826 -89 callsubr
          -353 -24 callsubr
          -623 -30 rmoveto
          -92 callgsubr
        </CharString>
        <CharString name="uni01C5">
          527 0 32 459 29 158 32 20 -20 hstemhm
          621 35 hintmask 11011000
          970 -49 callgsubr
          -626 -28 rmoveto
          221 hlineto
          234 171 188 251 152 -80 119 -174 hvcurveto
          -221 hlineto
          -110 -678 rmoveto
          hintmask 11101000
          138 646 rlineto
          186 hlineto
          150 76 -102 -143 -211 -137 -190 -226 hvcurveto
          endchar
        </CharString>
        <CharString name="uni01C6">
          14 callsubr
          869 -49 callgsubr
          hintmask 01101100
          -339 -38 rmoveto
          -69 callgsubr
          hintmask 10011100
          -1 4 5 0 7 -8 callsubr
          9 2 0 4 1 4 hvcurveto
          144 674 rlineto
          -35 hlineto
          -69 -328 rlineto
          68 -25 -58 58 -87 hhcurveto
          -152 -140 -157 -161 hvcurveto
          hintmask 01101100
          -83 callgsubr
        </CharString>
        <CharString name="uni01C7">
          396 0 22 -12 -21 720 -20 21 -20 hstemhm
          hintmask 01100000
          657 -11 rmoveto
          183 53 144 216 46 hvcurveto
          77 360 -72 callsubr
          -77 -360 rlineto
          hintmask 10100000
          -206 -44 -44 -121 -154 hhcurveto
          -54 -43 14 25 -28 hvcurveto
          -18 -28 rlineto
          hintmask 01100000
          -29 34 45 -15 58 hhcurveto
          hintmask 10010000
          -627 11 rmoveto
          -72 callgsubr
          endchar
        </CharString>
        <CharString name="uni01C8">
          134 -173 32 141 32 488 -20 230 -20 hstem
          439 -173 -93 callsubr
          -700 -730 rmoveto
          -72 callgsubr
          endchar
        </CharString>
        <CharString name="uni01C9">
          -184 -173 32 136 31 494 -20 230 -20 hstem
          34 35 vstem
          122 -173 -93 callsubr
          -314 -735 rmoveto
          21 35 6 7 21 hvcurveto
          -2 28 rlineto
          -6 -17 -23 -4 -14 hhcurveto
          -32 -19 17 29 6 1 5 1 6 hvcurveto
          137 641 -72 callsubr
          -138 -648 rlineto
          -2 -8 0 -8 -7 vvcurveto
          -39 25 -25 40 vhcurveto
          endchar
        </CharString>
        <CharString name="uni01CA">
          585 -11 33 -1 5 callgsubr
          hintmask 10100000
          846 -11 -80 callgsubr
          hintmask 01100000
          -816 11 -6 callgsubr
          hintmask 01010000
          28 callgsubr
        </CharString>
        <CharString name="uni01CB">
          323 -173 32 162 -9 callgsubr
          hstem
          628 -173 -93 callsubr
          -889 -730 -3 callgsubr
          28 callgsubr
        </CharString>
        <CharString name="uni01CC">
          126 -173 32 162 -41 callsubr
          448 36 hintmask 11011100
          432 -173 -93 callsubr
          -708 -730 rmoveto
          -46 callsubr
          hintmask 11101100
          -95 callgsubr
          hintmask 11011100
          -34 callsubr
          endchar
        </CharString>
        <CharString name="uni01F1">
          646 0 24 callsubr
          635 -55 callgsubr
          -611 -30 rmoveto
          -92 callgsubr
        </CharString>
        <CharString name="uni01F2">
          527 0 32 459 29 158 32 hstem
          621 35 vstem
          650 -73 callgsubr
          -626 -28 rmoveto
          -92 callgsubr
        </CharString>
        <CharString name="uni01F3">
          14 callsubr
          549 -73 callgsubr
          hintmask 01101100
          -339 -38 rmoveto
          -69 callgsubr
          hintmask 10011100
          -1 4 5 0 7 -8 callsubr
          9 2 0 4 1 4 hvcurveto
          144 674 rlineto
          -35 hlineto
          -69 -328 rlineto
          68 -25 -58 58 -87 hhcurveto
          -152 -140 -157 -161 hvcurveto
          hintmask 01101100
          -83 callgsubr
        </CharString>
        <CharString name="uni0218">
          -37 -155 -21 171 11 callgsubr
          203 -90 callsubr
          56 171 -102 callsubr
          endchar
        </CharString>
        <CharString name="uni0219">
          -163 -155 -21 166 10 callgsubr
          135 -90 callsubr
          48 166 -101 callsubr
          endchar
        </CharString>
        <CharString name="uni021A">
          -42 34 callgsubr
          678 32 hstem
          184 -90 callsubr
          40 176 rmoveto
          34 -71 callsubr
        </CharString>
        <CharString name="uni021B">
          -325 -155 -21 171 32 2 callsubr
          vstem
          87 -90 callsubr
          57 171 rmoveto
          52 46 25 4 5 hvcurveto
          -92 callsubr
          -41 32 -25 44 vhcurveto
          endchar
        </CharString>
        <CharString name="uni02C9">
          -252 679 28 hstem
          54 679 rmoveto
          268 hlineto
          6 28 rlineto
          -269 hlineto
          endchar
        </CharString>
        <CharString name="uni030F">
          -326 -15 callgsubr
          218 638 9 callsubr
        </CharString>
        <CharString name="uni0311">
          -372 667 -21 62 22 hstem
          49 646 -65 callsubr
        </CharString>
        <CharString name="uni0394">
          0 16 callsubr
          -23 hmoveto
          600 30 hlineto
          -285 680 rlineto
          -29 hlineto
          -286 -680 rlineto
          38 2 rmoveto
          263 634 261 -634 rlineto
          endchar
        </CharString>
        <CharString name="uni03A9">
          -76 callgsubr
        </CharString>
        <CharString name="uni03BC">
          -55 26 callsubr
          -31 -71 callgsubr
        </CharString>
</ttFont>
